{
.appVersion = "915";
DisplayStrings = (
"il\U00E1i\U00E3l/abreve/adblgrave/dotaccentcomb/gcommaaccent/lcommaaccent/aogonek/eogonek \U00E7/ogonekcomb/cedillacomb",
"a\U00E1/abreve/acaron \U00E2/adblgrave \U00E4/adotaccent/adotbelow \U00E0/ainvertedbreve/amacron/aogonek \U00E5\U00E3/eogonek/gcommaaccent/hbar i/lcaron/lcommaaccent \012\012/dieresiscomb  /dotaccentcomb  /gravecomb  /acutecomb  /hungarumlautcomb  /caroncomb.alt  /circumflexcomb  /caroncomb  /brevecomb  /ringcomb  /tildecomb  /macroncomb  /dblgravecomb   /breveinvertedcomb  /commaturnedabovecomb  /apostrophemod \012/dotbelowcomb  /dieresisbelowcomb  /commaaccentcomb  /cedillacomb  /ogonekcomb  /brevebelowcomb  /macronbelowcomb  ",
/dieresiscomb/dotaccentcomb/gravecomb/acutecomb/hungarumlautcomb/caroncomb.alt/circumflexcomb/caroncomb/brevecomb/ringcomb/tildecomb/macroncomb/dblgravecomb/breveinvertedcomb/commaturnedabovecomb/commaturnedmod/apostrophemod/dotbelowcomb/dieresisbelowcomb/commaaccentcomb/commaaccentcomb.alt/cedillacomb/ogonekcomb/brevebelowcomb/macronbelowcomb/firsttonechinese
);
copyright = "Nunito Font, Copyright (c) 2014, Vernon Adams (vern@newtypography.co.uk)";
customParameters = (
{
name = license;
value = "This Font Software is licensed under the SIL Open Font License, Version 1.1. This license is available with a FAQ at: http://scripts.sil.org/OFL";
},
{
name = licenseURL;
value = "http://scripts.sil.org/OFL";
},
{
name = vendorID;
value = NeWT;
},
{
name = trademark;
value = "Nunito is a trademark of Vernon Adams and may be registered in certain jurisdictions.";
},
{
name = fsType;
value = 0;
},
{
name = "Use Typo Metrics";
value = 1;
}
);
date = "2016-08-09 21:08:05 +0000";
designer = "Vernon Adams";
designerURL = "http://newtypography.co.uk";
familyName = Nunito;
featurePrefixes = (
{
automatic = 1;

glyphs = (
{
glyphname = A;
lastChange = "2016-08-22 22:18:02 +0000";
layers = (
{
anchors = (
{
name = bottom;
position = "{356, 0}";
},
{
name = ogonek;
position = "{679, 10}";
},
{
name = top;
position = "{356, 705}";
}
);
layerId = "9E718F8A-2CEA-4931-B05D-987794BD97DA";
paths = (
{
closed = 1;
nodes = (
"370 666 LINE",
"342 666 LINE",
"630 12 LINE SMOOTH",
"644 -20 OFFCURVE",
"692 -2 OFFCURVE",
"679 28 CURVE SMOOTH",
"386 691 LINE SMOOTH",
"376 716 OFFCURVE",
"337 718 OFFCURVE",
"326 691 CURVE SMOOTH",
"33 28 LINE SMOOTH",
"20 -2 OFFCURVE",
"68 -20 OFFCURVE",
"82 12 CURVE SMOOTH"
);
},
{
closed = 1;
nodes = (
"563 191 LINE",
"546 239 LINE",
"168 239 LINE",
"152 191 LINE"
);
}
);
width = 712;
},
{
anchors = (
{
name = bottom;
position = "{377, 0}";
},
{
name = ogonek;
position = "{706, 10}";
},
{
name = top;
position = "{377, 705}";
}
);
layerId = "E1B555A7-F4E1-459C-9C1A-AE952106EEF9";
paths = (
{
closed = 1;
nodes = (
"395 571 LINE",
"361 571 LINE",
"599 39 LINE SMOOTH",
"639 -48 OFFCURVE",
"771 11 OFFCURVE",
"729 98 CURVE SMOOTH",
"460 661 LINE SMOOTH",
"428 727 OFFCURVE",
"325 729 OFFCURVE",
"293 661 CURVE SMOOTH",
"24 98 LINE SMOOTH",
"-18 11 OFFCURVE",
"116 -48 OFFCURVE",
"156 39 CURVE SMOOTH"
);
},
{
closed = 1;
nodes = (
"609 154 LINE",
"548 276 LINE",
"196 276 LINE",
"135 154 LINE"
);
}
);
width = 753;
}
);
unicode = 0041;
userData = {
anchors = (
);
b = {
};
com.typemytype.robofont.layerData = {
b = {
anchors = (
);
components = (
);
contours = (
{
points = (
{
segmentType = line;
smooth = 0;
x = 403;
y = 502;
},
{
segmentType = line;
smooth = 0;
x = 703;
y = 1275;
},
{
segmentType = line;
smooth = 0;
x = 705;
y = 1275;
},
{
segmentType = line;
smooth = 0;
x = 1004;
y = 502;
}
);
},
{
points = (
{
segmentType = curve;
smooth = 1;
x = 150;
y = 0;
},
{
smooth = 0;
x = 181;
y = 0;
},
{
smooth = 0;
x = 214;
y = 15;
},
{
segmentType = curve;
smooth = 1;
x = 229;
y = 53;
},
{
segmentType = line;
smooth = 0;
x = 356;
y = 373;
},
{
segmentType = line;
smooth = 0;
x = 1051;
y = 373;
},
{
segmentType = line;
smooth = 1;
x = 1179;
y = 53;
},
{
smooth = 0;
x = 1193;
y = 17;
},
{
smooth = 0;
x = 1228;
y = 0;
},
{
segmentType = curve;
smooth = 1;
x = 1260;
y = 0;
},
{
smooth = 0;
x = 1306;
y = 0;
},
{
smooth = 0;
x = 1354;
y = 31;
},
{
segmentType = curve;
smooth = 1;
x = 1354;
y = 80;
},
{
smooth = 0;
x = 1354;
y = 87;
},
{
smooth = 0;
x = 1352;
y = 97;
},
{
segmentType = curve;
smooth = 0;
x = 1349;
y = 108;
},
{
segmentType = line;
smooth = 1;
x = 871;
y = 1288;
},
{
smooth = 0;
x = 817;
y = 1420;
},
{
smooth = 0;
x = 777;
y = 1430;
},
{
segmentType = curve;
smooth = 1;
x = 710;
y = 1430;
},
{
smooth = 0;
x = 644;
y = 1430;
},
{
smooth = 0;
x = 596;
y = 1413;
},
{
segmentType = curve;
smooth = 1;
x = 542;
y = 1280;
},
{
segmentType = line;
smooth = 1;
x = 66;
y = 108;
},
{
smooth = 0;
x = 62;
y = 97;
},
{
smooth = 0;
x = 60;
y = 87;
},
{
segmentType = curve;
smooth = 1;
x = 60;
y = 78;
},
{
smooth = 0;
x = 60;
y = 32;
},
{
smooth = 0;
x = 106;
y = 0;
}
);
}
);
lib = {
};
name = A;
unicodes = (
);
width = 1414;
};
};
components = (
);
contours = {
};
lib = {
};
name = A;
points = {
};
segmentType = line;
unicodes = (
);
width = 1445;
x = 718;
y = 1232;
};
},
{
glyphname = AE;
lastChange = "2016-08-19 19:26:20 +0000";
layers = (
{
anchors = (
{
name = bottom;
position = "{503, 0}";
},
{
name = top;
position = "{461, 705}";
}
);
layerId = "9E718F8A-2CEA-4931-B05D-987794BD97DA";
paths = (
{
closed = 1;
nodes = (
"921 0 LINE SMOOTH",
"935 0 OFFCURVE",
"945 10 OFFCURVE",
"945 25 CURVE SMOOTH",
"945 41 OFFCURVE",
"935 51 OFFCURVE",
"921 51 CURVE SMOOTH",
"622 51 LINE",
"488 682 LINE",
"481 654 LINE",
"921 654 LINE SMOOTH",
"935 654 OFFCURVE",
"945 664 OFFCURVE",
"945 680 CURVE SMOOTH",
"945 695 OFFCURVE",
"935 705 OFFCURVE",
"921 705 CURVE SMOOTH",
"461 705 LINE SMOOTH",
"449 705 OFFCURVE",
"437 703 OFFCURVE",
"429 691 CURVE SMOOTH",
"25 28 LINE SMOOTH",
"6 -3 OFFCURVE",
"54 -21 OFFCURVE",
"73 12 CURVE SMOOTH",
"469 665 LINE",
"443 665 LINE",
"577 30 LINE SMOOTH",
"581 14 OFFCURVE",
"590 0 OFFCURVE",
"607 0 CURVE SMOOTH"
);
},
{
closed = 1;
nodes = (
"565 191 LINE",
"546 239 LINE",
"168 239 LINE",
"152 191 LINE"
);
},
{
closed = 1;
nodes = (
"901 333 LINE SMOOTH",
"915 333 OFFCURVE",
"925 343 OFFCURVE",
"925 358 CURVE SMOOTH",
"925 373 OFFCURVE",
"915 383 OFFCURVE",
"901 383 CURVE SMOOTH",
"544 383 LINE",
"544 333 LINE"
);
}
);
width = 1005;
},
{
anchors = (
{
name = bottom;
position = "{508, 0}";
},
{
name = top;
position = "{488, 705}";
}
);
layerId = "E1B555A7-F4E1-459C-9C1A-AE952106EEF9";
paths = (
{
closed = 1;
nodes = (
"907 0 LINE SMOOTH",
"960 0 OFFCURVE",
"983 23 OFFCURVE",
"983 61 CURVE SMOOTH",
"983 100 OFFCURVE",
"960 123 OFFCURVE",
"907 123 CURVE SMOOTH",
"684 123 LINE",
"573 617 LINE",
"542 582 LINE",
"907 582 LINE SMOOTH",
"960 582 OFFCURVE",
"983 606 OFFCURVE",
"983 644 CURVE SMOOTH",
"983 682 OFFCURVE",
"960 705 OFFCURVE",
"907 705 CURVE SMOOTH",
"476 705 LINE SMOOTH",
"442 705 OFFCURVE",
"406 691 OFFCURVE",
"386 661 CURVE SMOOTH",
"21 98 LINE SMOOTH",
"-38 9 OFFCURVE",
"96 -51 OFFCURVE",
"152 39 CURVE SMOOTH",
"483 571 LINE",
"440 571 LINE",
"556 45 LINE SMOOTH",
"563 16 OFFCURVE",
"591 0 OFFCURVE",
"627 0 CURVE SMOOTH"
);
},
{
closed = 1;
nodes = (
"589 154 LINE",
"553 276 LINE",
"201 276 LINE",
"139 154 LINE"
);
},
{
closed = 1;
nodes = (
"887 295 LINE SMOOTH",
"940 295 OFFCURVE",
"963 318 OFFCURVE",
"963 356 CURVE SMOOTH",
"963 395 OFFCURVE",
"940 418 OFFCURVE",
"887 418 CURVE SMOOTH",
"570 418 LINE",
"570 295 LINE"
);
}
);
width = 1016;
}
);
leftMetricsKey = "=A-10";
rightMetricsKey = E;
unicode = 00C6;
userData = {
com.typemytype.robofont.layerData = {
b = {
anchors = (
);
components = (
);
contours = (
);
lib = {
};
name = AE;
unicodes = (
);
width = 1976;
};
};
};
},
{
glyphname = B;
lastChange = "2016-08-19 19:48:25 +0000";
layers = (
{
anchors = (
{
name = bottom;
position = "{332, 0}";
},
{
name = top;
position = "{332, 705}";
}
);
background = {
paths = (
{
closed = 1;
nodes = (
"365 0 LINE SMOOTH",
"500 0 OFFCURVE",
"595 61 OFFCURVE",
"595 191 CURVE SMOOTH",
"595 291 OFFCURVE",
"538 349 OFFCURVE",
"456 364 CURVE",
"456 356 LINE",
"523 376 OFFCURVE",
"579 426 OFFCURVE",
"579 520 CURVE SMOOTH",
"579 643 OFFCURVE",
"484 705 OFFCURVE",
"348 705 CURVE SMOOTH",
"117 705 LINE SMOOTH",
"100 705 OFFCURVE",
"87 693 OFFCURVE",
"87 677 CURVE SMOOTH",
"87 28 LINE SMOOTH",
"87 13 OFFCURVE",
"100 0 OFFCURVE",
"117 0 CURVE SMOOTH"
);
},
{
closed = 1;
nodes = (
"142 333 LINE",
"362 333 LINE SMOOTH",
"469 333 OFFCURVE",
"539 293 OFFCURVE",
"539 190 CURVE SMOOTH",
"539 86 OFFCURVE",
"469 51 OFFCURVE",
"362 51 CURVE SMOOTH",
"142 51 LINE"
);
},
{
closed = 1;
nodes = (
"142 654 LINE",
"347 654 LINE SMOOTH",
"453 654 OFFCURVE",
"523 619 OFFCURVE",
"523 522 CURVE SMOOTH",
"523 423 OFFCURVE",
"453 383 OFFCURVE",
"347 383 CURVE SMOOTH",
"142 383 LINE"
);
}
);
};
layerId = "9E718F8A-2CEA-4931-B05D-987794BD97DA";
paths = (
{
closed = 1;
nodes = (
"365 0 LINE SMOOTH",
"500 0 OFFCURVE",
"595 61 OFFCURVE",
"595 191 CURVE SMOOTH",
"595 291 OFFCURVE",
"538 349 OFFCURVE",
"456 364 CURVE",
"456 356 LINE",
"523 376 OFFCURVE",
"579 426 OFFCURVE",
"579 520 CURVE SMOOTH",
"579 643 OFFCURVE",
"484 705 OFFCURVE",
"348 705 CURVE SMOOTH",
"117 705 LINE SMOOTH",
"100 705 OFFCURVE",
"87 693 OFFCURVE",
"87 677 CURVE SMOOTH",
"87 28 LINE SMOOTH",
"87 13 OFFCURVE",
"100 0 OFFCURVE",
"117 0 CURVE SMOOTH"
);
},
{
closed = 1;
nodes = (
"141 333 LINE",
"362 333 LINE SMOOTH",
"469 333 OFFCURVE",
"539 293 OFFCURVE",
"539 190 CURVE SMOOTH",
"539 86 OFFCURVE",
"469 50 OFFCURVE",
"362 50 CURVE SMOOTH",
"141 50 LINE"
);
},
{
closed = 1;
nodes = (
"141 655 LINE",
"347 655 LINE SMOOTH",
"453 655 OFFCURVE",
"523 619 OFFCURVE",
"523 522 CURVE SMOOTH",
"523 423 OFFCURVE",
"453 383 OFFCURVE",
"347 383 CURVE SMOOTH",
"141 383 LINE"
);
}
);
width = 663;
},
{
anchors = (
{
name = bottom;
position = "{348, 0}";
},
{
name = top;
position = "{348, 705}";
}
);
layerId = "E1B555A7-F4E1-459C-9C1A-AE952106EEF9";
paths = (
{
closed = 1;
nodes = (
"406 0 LINE SMOOTH",
"563 0 OFFCURVE",
"653 77 OFFCURVE",
"653 193 CURVE SMOOTH",
"653 288 OFFCURVE",
"598 349 OFFCURVE",
"511 368 CURVE",
"511 360 LINE",
"585 382 OFFCURVE",
"635 440 OFFCURVE",
"635 522 CURVE SMOOTH",
"635 627 OFFCURVE",
"553 705 OFFCURVE",
"396 705 CURVE SMOOTH",
"143 705 LINE SMOOTH",
"95 705 OFFCURVE",
"68 678 OFFCURVE",
"68 630 CURVE SMOOTH",
"68 75 LINE SMOOTH",
"68 27 OFFCURVE",
"95 0 OFFCURVE",
"143 0 CURVE SMOOTH"
);
},
{
closed = 1;
nodes = (
"225 296 LINE",
"382 296 LINE SMOOTH",
"464 296 OFFCURVE",
"501 271 OFFCURVE",
"501 209 CURVE SMOOTH",
"501 149 OFFCURVE",
"464 123 OFFCURVE",
"382 123 CURVE SMOOTH",
"225 123 LINE"
);
},
{
closed = 1;
nodes = (
"225 582 LINE",
"364 582 LINE SMOOTH",
"445 582 OFFCURVE",
"482 556 OFFCURVE",
"482 500 CURVE SMOOTH",
"482 447 OFFCURVE",
"445 421 OFFCURVE",
"364 421 CURVE SMOOTH",
"225 421 LINE"
);
}
);
width = 696;
}
);
leftMetricsKey = H;
unicode = 0042;
userData = {
anchors = (
);
b = {
};
com.typemytype.robofont.layerData = {
b = {
anchors = (
);
components = (
);
contours = (
{
points = (
{
segmentType = curve;
smooth = 1;
x = 266;
y = 0;
},
{
segmentType = line;
smooth = 1;
x = 1035;
y = 0;
},
{
smooth = 0;
x = 1084;
y = 0;
},
{
smooth = 0;
x = 1108;
y = 36;
},
{
segmentType = curve;
smooth = 1;
x = 1108;
y = 73;
},
{
smooth = 0;
x = 1108;
y = 109;
},
{
smooth = 0;
x = 1084;
y = 145;
},
{
segmentType = curve;
smooth = 1;
x = 1035;
y = 145;
},
{
segmentType = line;
smooth = 0;
x = 353;
y = 145;
},
{
segmentType = line;
smooth = 0;
x = 353;
y = 662;
},
{
segmentType = line;
smooth = 1;
x = 975;
y = 662;
},
{
smooth = 0;
x = 1024;
y = 662;
},
{
smooth = 0;
x = 1049;
y = 698;
},
{
segmentType = curve;
smooth = 1;
x = 1049;
y = 734;
},
{
smooth = 0;
x = 1049;
y = 770;
},
{
smooth = 0;
x = 1026;
y = 806;
},
{
segmentType = curve;
smooth = 1;
x = 975;
y = 806;
},
{
segmentType = line;
smooth = 0;
x = 353;
y = 806;
},
{
segmentType = line;
smooth = 0;
x = 353;
y = 1281;
},
{
segmentType = line;
smooth = 1;
x = 1007;
y = 1281;
},
{
smooth = 0;
x = 1056;
y = 1281;
},
{
smooth = 0;
x = 1080;
y = 1317;
},
{
segmentType = curve;
smooth = 1;
x = 1080;
y = 1354;
},
{
smooth = 0;
x = 1080;
y = 1390;
},
{
smooth = 0;
x = 1056;
y = 1426;
},
{
segmentType = curve;
smooth = 1;
x = 1007;
y = 1426;
},
{
segmentType = line;
smooth = 1;
x = 261;
y = 1426;
},
{
smooth = 0;
x = 213;
y = 1426;
},
{
smooth = 0;
x = 178;
y = 1383;
},
{
segmentType = curve;
smooth = 1;
x = 178;
y = 1340;
},
{
segmentType = line;
smooth = 1;
x = 178;
y = 86;
},
{
smooth = 0;
x = 178;
y = 41;
},
{
smooth = 0;
x = 222;
y = 0;
}
);
}
);
lib = {
};
name = B;
unicodes = (
);
width = 1292;
};
};
components = (
);
contours = {
};
lib = {
};
name = B;
points = {
};
segmentType = curve;
unicodes = (
);
width = 1395;
x = 676;
y = 1260;
};
},
{
glyphname = C;
lastChange = "2016-08-19 19:35:49 +0000";
layers = (
{
anchors = (
{
name = bottom;
position = "{376, 0}";
},
{
name = top;
position = "{376, 705}";
}
);
layerId = "9E718F8A-2CEA-4931-B05D-987794BD97DA";
paths = (
{
closed = 1;
nodes = (
"463 -6 OFFCURVE",
"550 24 OFFCURVE",
"608 80 CURVE SMOOTH",
"616 89 OFFCURVE",
"620 98 OFFCURVE",
"620 107 CURVE SMOOTH",
"620 120 OFFCURVE",
"613 131 OFFCURVE",
"602 131 CURVE SMOOTH",
"595 131 OFFCURVE",
"589 128 OFFCURVE",
"581 122 CURVE SMOOTH",
"518 72 OFFCURVE",
"467 43 OFFCURVE",
"376 43 CURVE SMOOTH",
"208 43 OFFCURVE",
"116 161 OFFCURVE",
"116 353 CURVE SMOOTH",
"116 544 OFFCURVE",
"208 662 OFFCURVE",
"376 662 CURVE SMOOTH",
"467 662 OFFCURVE",
"518 633 OFFCURVE",
"581 583 CURVE SMOOTH",
"589 577 OFFCURVE",
"595 574 OFFCURVE",
"602 574 CURVE SMOOTH",
"612 574 OFFCURVE",
"620 585 OFFCURVE",
"620 598 CURVE SMOOTH",
"620 607 OFFCURVE",
"616 616 OFFCURVE",
"608 625 CURVE SMOOTH",
"550 681 OFFCURVE",
"463 711 OFFCURVE",
"377 711 CURVE SMOOTH",
"185 711 OFFCURVE",
"59 579 OFFCURVE",
"59 353 CURVE SMOOTH",
"59 126 OFFCURVE",
"185 -6 OFFCURVE",
"377 -6 CURVE SMOOTH"
);
}
);
width = 665;
},
{
anchors = (
{
name = bottom;
position = "{393, 0}";
},
{
name = top;
position = "{393, 705}";
}
);
layerId = "E1B555A7-F4E1-459C-9C1A-AE952106EEF9";
paths = (
{
closed = 1;
nodes = (
"488 -7 OFFCURVE",
"561 20 OFFCURVE",
"618 64 CURVE SMOOTH",
"640 80 OFFCURVE",
"646 97 OFFCURVE",
"646 120 CURVE SMOOTH",
"646 149 OFFCURVE",
"628 185 OFFCURVE",
"594 185 CURVE SMOOTH",
"575 185 OFFCURVE",
"563 178 OFFCURVE",
"545 168 CURVE SMOOTH",
"507 144 OFFCURVE",
"465 121 OFFCURVE",
"401 121 CURVE SMOOTH",
"277 121 OFFCURVE",
"211 197 OFFCURVE",
"211 353 CURVE SMOOTH",
"211 508 OFFCURVE",
"277 584 OFFCURVE",
"401 584 CURVE SMOOTH",
"465 584 OFFCURVE",
"507 561 OFFCURVE",
"545 537 CURVE SMOOTH",
"563 527 OFFCURVE",
"575 520 OFFCURVE",
"594 520 CURVE SMOOTH",
"628 520 OFFCURVE",
"646 556 OFFCURVE",
"646 585 CURVE SMOOTH",
"646 608 OFFCURVE",
"640 625 OFFCURVE",
"618 641 CURVE SMOOTH",
"561 685 OFFCURVE",
"488 712 OFFCURVE",
"393 712 CURVE SMOOTH",
"183 712 OFFCURVE",
"47 573 OFFCURVE",
"47 353 CURVE SMOOTH",
"47 132 OFFCURVE",
"183 -7 OFFCURVE",
"393 -7 CURVE SMOOTH"
);
}
);
width = 679;
}
);
leftMetricsKey = O;
unicode = 0043;
userData = {
anchors = (
);
b = {
};
com.typemytype.robofont.layerData = {
b = {
anchors = (
);
components = (
);
contours = (
);
lib = {
};
name = C;
unicodes = (
);
width = 1353.8900;
};
};
components = (
);
contours = (
);
lib = {
};
name = C;
unicodes = (
);
width = 1354;
};
},
{
glyphname = D;
lastChange = "2016-08-19 19:35:56 +0000";
layers = (
{
anchors = (
{
name = bottom;
position = "{359, 0}";
},
{
name = center;
position = "{359, 353}";
},
{
name = top;
position = "{359, 705}";
}
);
layerId = "9E718F8A-2CEA-4931-B05D-987794BD97DA";
paths = (
{
closed = 1;
nodes = (
"310 0 LINE SMOOTH",
"531 0 OFFCURVE",
"658 126 OFFCURVE",
"658 353 CURVE SMOOTH",
"658 581 OFFCURVE",
"531 705 OFFCURVE",
"310 705 CURVE SMOOTH",
"117 705 LINE SMOOTH",
"100 705 OFFCURVE",
"87 693 OFFCURVE",
"87 677 CURVE SMOOTH",
"87 28 LINE SMOOTH",
"87 13 OFFCURVE",
"100 0 OFFCURVE",
"117 0 CURVE SMOOTH"
);
},
{
closed = 1;
nodes = (
"141 655 LINE",
"308 655 LINE SMOOTH",
"512 655 OFFCURVE",
"601 545 OFFCURVE",
"601 353 CURVE SMOOTH",
"601 161 OFFCURVE",
"512 50 OFFCURVE",
"308 50 CURVE SMOOTH",
"141 50 LINE"
);
}
);
width = 717;
},
{
anchors = (
{
name = bottom;
position = "{381, 0}";
},
{
name = center;
position = "{381, 353}";
},
{
name = top;
position = "{381, 705}";
}
);
layerId = "E1B555A7-F4E1-459C-9C1A-AE952106EEF9";
paths = (
{
closed = 1;
nodes = (
"344 0 LINE SMOOTH",
"579 0 OFFCURVE",
"715 132 OFFCURVE",
"715 353 CURVE SMOOTH",
"715 573 OFFCURVE",
"579 705 OFFCURVE",
"344 705 CURVE SMOOTH",
"143 705 LINE SMOOTH",
"95 705 OFFCURVE",
"68 678 OFFCURVE",
"68 630 CURVE SMOOTH",
"68 75 LINE SMOOTH",
"68 27 OFFCURVE",
"95 0 OFFCURVE",
"143 0 CURVE SMOOTH"
);
},
{
closed = 1;
nodes = (
"229 575 LINE",
"333 575 LINE SMOOTH",
"474 575 OFFCURVE",
"554 509 OFFCURVE",
"554 353 CURVE SMOOTH",
"554 197 OFFCURVE",
"474 130 OFFCURVE",
"333 130 CURVE SMOOTH",
"229 130 LINE"
);
}
);
width = 762;
}
);
leftMetricsKey = I;
rightMetricsKey = O;
unicode = 0044;
userData = {
anchors = (
);
b = {
};
com.typemytype.robofont.layerData = {
b = {
anchors = (
);
components = (
);
contours = (
{
points = (
{
segmentType = curve;
smooth = 1;
x = 266;
y = 0;
},
{
segmentType = line;
smooth = 1;
x = 1035;
y = 0;
},
{
smooth = 0;
x = 1084;
y = 0;
},
{
smooth = 0;
x = 1108;
y = 34;
},
{
segmentType = curve;
smooth = 1;
x = 1108;
y = 71;
},
{
smooth = 0;
x = 1108;
y = 107;
},
{
smooth = 0;
x = 1084;
y = 141;
},
{
segmentType = curve;
smooth = 1;
x = 1035;
y = 141;
},
{
segmentType = line;
smooth = 0;
x = 356;
y = 141;
},
{
segmentType = line;
smooth = 0;
x = 356;
y = 665;
},
{
segmentType = line;
smooth = 1;
x = 975;
y = 665;
},
{
smooth = 0;
x = 1024;
y = 665;
},
{
smooth = 0;
x = 1049;
y = 698;
},
{
segmentType = curve;
smooth = 1;
x = 1049;
y = 734;
},
{
smooth = 0;
x = 1049;
y = 770;
},
{
smooth = 0;
x = 1026;
y = 803;
},
{
segmentType = curve;
smooth = 1;
x = 975;
y = 803;
},
{
segmentType = line;
smooth = 0;
x = 356;
y = 803;
},
{
segmentType = line;
smooth = 0;
x = 356;
y = 1285;
},
{
segmentType = line;
smooth = 1;
x = 1007;
y = 1285;
},
{
smooth = 0;
x = 1056;
y = 1285;
},
{
smooth = 0;
x = 1080;
y = 1319;
},
{
segmentType = curve;
smooth = 1;
x = 1080;
y = 1356;
},
{
smooth = 0;
x = 1080;
y = 1392;
},
{
smooth = 0;
x = 1056;
y = 1426;
},
{
segmentType = curve;
smooth = 1;
x = 1007;
y = 1426;
},
{
segmentType = line;
smooth = 1;
x = 261;
y = 1426;
},
{
smooth = 0;
x = 213;
y = 1426;
},
{
smooth = 0;
x = 178;
y = 1383;
},
{
segmentType = curve;
smooth = 1;
x = 178;
y = 1340;
},
{
segmentType = line;
smooth = 1;
x = 178;
y = 86;
},
{
smooth = 0;
x = 178;
y = 41;
},
{
smooth = 0;
x = 222;
y = 0;
}
);
}
);
lib = {
};
name = D;
unicodes = (
);
width = 1499;
};
};
components = (
);
contours = (
);
lib = {
};
name = D;
unicodes = (
);
width = 1535;
};
},
{
color = 3;
glyphname = Eth;
lastChange = "2016-08-19 08:45:49 +0000";
layers = (
{
background = {
components = (
{
name = D;
transform = "{1, 0, 0, 1, 13, 0}";
},
{
name = hyphen;
transform = "{1, 0, 0, 1, -8, 95}";
}
);
};
layerId = "9E718F8A-2CEA-4931-B05D-987794BD97DA";
paths = (
{
closed = 1;
nodes = (
"323 0 LINE SMOOTH",
"544 0 OFFCURVE",
"671 126 OFFCURVE",
"671 353 CURVE SMOOTH",
"671 581 OFFCURVE",
"544 705 OFFCURVE",
"323 705 CURVE SMOOTH",
"130 705 LINE SMOOTH",
"113 705 OFFCURVE",
"100 693 OFFCURVE",
"100 677 CURVE SMOOTH",
"100 28 LINE SMOOTH",
"100 13 OFFCURVE",
"113 0 OFFCURVE",
"130 0 CURVE SMOOTH"
);
},
{
closed = 1;
nodes = (
"331 335 LINE SMOOTH",
"345 335 OFFCURVE",
"354 343 OFFCURVE",
"354 358 CURVE SMOOTH",
"354 373 OFFCURVE",
"345 381 OFFCURVE",
"331 381 CURVE SMOOTH",
"25 381 LINE SMOOTH",
"11 381 OFFCURVE",
"0 373 OFFCURVE",
"0 358 CURVE SMOOTH",
"0 343 OFFCURVE",
"11 335 OFFCURVE",
"25 335 CURVE SMOOTH"
);
},
{
closed = 1;
nodes = (
"154 655 LINE",
"321 655 LINE SMOOTH",
"525 655 OFFCURVE",
"614 545 OFFCURVE",
"614 353 CURVE SMOOTH",
"614 161 OFFCURVE",
"525 50 OFFCURVE",
"321 50 CURVE SMOOTH",
"154 50 LINE"
);
}
);
width = 730;
},
{
background = {
components = (
{
name = D;
transform = "{1, 0, 0, 1, 32, 0}";
},
{
name = hyphen;
transform = "{1, 0, 0, 1, 7, 98}";
}
);
};
layerId = "E1B555A7-F4E1-459C-9C1A-AE952106EEF9";
paths = (
{
closed = 1;
nodes = (
"376 0 LINE SMOOTH",
"611 0 OFFCURVE",
"747 132 OFFCURVE",
"747 353 CURVE SMOOTH",
"747 573 OFFCURVE",
"611 705 OFFCURVE",
"376 705 CURVE SMOOTH",
"175 705 LINE SMOOTH",
"127 705 OFFCURVE",
"100 678 OFFCURVE",
"100 630 CURVE SMOOTH",
"100 75 LINE SMOOTH",
"100 27 OFFCURVE",
"127 0 OFFCURVE",
"175 0 CURVE SMOOTH"
);
},
{
closed = 1;
nodes = (
"389 295 LINE SMOOTH",
"437 295 OFFCURVE",
"461 319 OFFCURVE",
"461 356 CURVE SMOOTH",
"461 393 OFFCURVE",
"437 417 OFFCURVE",
"389 417 CURVE SMOOTH",
"72 417 LINE SMOOTH",
"24 417 OFFCURVE",
"0 393 OFFCURVE",
"0 356 CURVE SMOOTH",
"0 319 OFFCURVE",
"24 295 OFFCURVE",
"72 295 CURVE SMOOTH"
);
},
{
closed = 1;
nodes = (
"261 575 LINE",
"365 575 LINE SMOOTH",
"506 575 OFFCURVE",
"586 509 OFFCURVE",
"586 353 CURVE SMOOTH",
"586 197 OFFCURVE",
"506 130 OFFCURVE",
"365 130 CURVE SMOOTH",
"261 130 LINE"
);
}
);
width = 794;
}
);
rightMetricsKey = O;
unicode = 00D0;
},
{
glyphname = E;
lastChange = "2016-08-19 19:48:57 +0000";
layers = (
{
anchors = (
{
name = bottom;
position = "{305, 0}";
},
{
name = ogonek;
position = "{519, 10}";
},
{
name = top;
position = "{305, 705}";
},
{
name = topleft;
position = "{20, 705}";
}
);
layerId = "9E718F8A-2CEA-4931-B05D-987794BD97DA";
paths = (
{
closed = 1;
nodes = (
"499 0 LINE SMOOTH",
"513 0 OFFCURVE",
"523 10 OFFCURVE",
"523 25 CURVE SMOOTH",
"523 41 OFFCURVE",
"513 50 OFFCURVE",
"499 50 CURVE SMOOTH",
"141 50 LINE",
"141 333 LINE",
"479 333 LINE SMOOTH",
"493 333 OFFCURVE",
"503 343 OFFCURVE",
"503 358 CURVE SMOOTH",
"503 373 OFFCURVE",
"493 383 OFFCURVE",
"479 383 CURVE SMOOTH",
"141 383 LINE",
"141 655 LINE",
"499 655 LINE SMOOTH",
"513 655 OFFCURVE",
"523 664 OFFCURVE",
"523 680 CURVE SMOOTH",
"523 695 OFFCURVE",
"513 705 OFFCURVE",
"499 705 CURVE SMOOTH",
"117 705 LINE SMOOTH",
"100 705 OFFCURVE",
"87 693 OFFCURVE",
"87 677 CURVE SMOOTH",
"87 28 LINE SMOOTH",
"87 13 OFFCURVE",
"100 0 OFFCURVE",
"117 0 CURVE SMOOTH"
);
}
);
width = 583;
},
{
anchors = (
{
name = bottom;
position = "{320, 0}";
},
{
name = ogonek;
position = "{544, 10}";
},
{
name = top;
position = "{320, 705}";
},
{
name = topleft;
position = "{20, 705}";
}
);
layerId = "E1B555A7-F4E1-459C-9C1A-AE952106EEF9";
paths = (
{
closed = 1;
nodes = (
"496 0 LINE SMOOTH",
"549 0 OFFCURVE",
"572 23 OFFCURVE",
"572 61 CURVE SMOOTH",
"572 100 OFFCURVE",
"549 123 OFFCURVE",
"496 123 CURVE SMOOTH",
"225 123 LINE",
"225 297 LINE",
"476 297 LINE SMOOTH",
"529 297 OFFCURVE",
"552 320 OFFCURVE",
"552 358 CURVE SMOOTH",
"552 397 OFFCURVE",
"529 420 OFFCURVE",
"476 420 CURVE SMOOTH",
"225 420 LINE",
"225 582 LINE",
"496 582 LINE SMOOTH",
"549 582 OFFCURVE",
"572 605 OFFCURVE",
"572 644 CURVE SMOOTH",
"572 682 OFFCURVE",
"549 705 OFFCURVE",
"496 705 CURVE SMOOTH",
"143 705 LINE SMOOTH",
"95 705 OFFCURVE",
"68 678 OFFCURVE",
"68 630 CURVE SMOOTH",
"68 75 LINE SMOOTH",
"68 27 OFFCURVE",
"95 0 OFFCURVE",
"143 0 CURVE SMOOTH"
);
}
);
width = 605;
}
);
leftMetricsKey = H;
unicode = 0045;
userData = {
anchors = (
);
b = {
};
com.typemytype.robofont.layerData = {
b = {
anchors = (
);
components = (
);
contours = (
);
lib = {
};
name = E;
unicodes = (
);
width = 1234;
};
};
components = (
);
contours = (
);
lib = {
};
name = E;
unicodes = (
);
width = 1258;
};
},
{
glyphname = F;
lastChange = "2016-08-19 19:49:12 +0000";
layers = (
{
anchors = (
{
name = bottom;
position = "{300, 0}";
},
{
name = top;
position = "{300, 705}";
}
);
layerId = "9E718F8A-2CEA-4931-B05D-987794BD97DA";
paths = (
{
closed = 1;
nodes = (
"133 -5 OFFCURVE",
"141 7 OFFCURVE",
"141 24 CURVE SMOOTH",
"141 333 LINE",
"469 333 LINE SMOOTH",
"483 333 OFFCURVE",
"493 343 OFFCURVE",
"493 358 CURVE SMOOTH",
"493 373 OFFCURVE",
"483 383 OFFCURVE",
"469 383 CURVE SMOOTH",
"141 383 LINE",
"141 655 LINE",
"489 655 LINE SMOOTH",
"503 655 OFFCURVE",
"513 665 OFFCURVE",
"513 680 CURVE SMOOTH",
"513 695 OFFCURVE",
"503 705 OFFCURVE",
"489 705 CURVE SMOOTH",
"117 705 LINE SMOOTH",
"100 705 OFFCURVE",
"87 693 OFFCURVE",
"87 677 CURVE SMOOTH",
"87 24 LINE SMOOTH",
"87 7 OFFCURVE",
"98 -5 OFFCURVE",
"114 -5 CURVE SMOOTH"
);
}
);
width = 558;
},
{
anchors = (
{
name = bottom;
position = "{315, 0}";
},
{
name = top;
position = "{315, 705}";
}
);
layerId = "E1B555A7-F4E1-459C-9C1A-AE952106EEF9";
paths = (
{
closed = 1;
nodes = (
"191 -6 OFFCURVE",
"227 20 OFFCURVE",
"227 74 CURVE SMOOTH",
"227 294 LINE",
"466 294 LINE SMOOTH",
"519 294 OFFCURVE",
"542 317 OFFCURVE",
"542 358 CURVE SMOOTH",
"542 400 OFFCURVE",
"519 423 OFFCURVE",
"466 423 CURVE SMOOTH",
"227 423 LINE",
"227 576 LINE",
"486 576 LINE SMOOTH",
"539 576 OFFCURVE",
"562 599 OFFCURVE",
"562 640 CURVE SMOOTH",
"562 682 OFFCURVE",
"539 705 OFFCURVE",
"486 705 CURVE SMOOTH",
"143 705 LINE SMOOTH",
"95 705 OFFCURVE",
"68 678 OFFCURVE",
"68 630 CURVE SMOOTH",
"68 74 LINE SMOOTH",
"68 26 OFFCURVE",
"99 -6 OFFCURVE",
"148 -6 CURVE SMOOTH"
);
}
);
width = 574;
}
);
leftMetricsKey = H;
unicode = 0046;
userData = {
anchors = (
);
b = {
};
com.typemytype.robofont.layerData = {
b = {
anchors = (
);
components = (
);
contours = (
{
points = (
{
segmentType = curve;
smooth = 1;
x = 266;
y = 0;
},
{
segmentType = line;
smooth = 1;
x = 1035;
y = 0;
},
{
smooth = 0;
x = 1084;
y = 0;
},
{
smooth = 0;
x = 1108;
y = 34;
},
{
segmentType = curve;
smooth = 1;
x = 1108;
y = 71;
},
{
smooth = 0;
x = 1108;
y = 107;
},
{
smooth = 0;
x = 1084;
y = 141;
},
{
segmentType = curve;
smooth = 1;
x = 1035;
y = 141;
},
{
segmentType = line;
smooth = 0;
x = 353;
y = 141;
},
{
segmentType = line;
smooth = 0;
x = 353;
y = 665;
},
{
segmentType = line;
smooth = 1;
x = 975;
y = 665;
},
{
smooth = 0;
x = 1024;
y = 665;
},
{
smooth = 0;
x = 1049;
y = 698;
},
{
segmentType = curve;
smooth = 1;
x = 1049;
y = 734;
},
{
smooth = 0;
x = 1049;
y = 770;
},
{
smooth = 0;
x = 1026;
y = 803;
},
{
segmentType = curve;
smooth = 1;
x = 975;
y = 803;
},
{
segmentType = line;
smooth = 0;
x = 353;
y = 803;
},
{
segmentType = line;
smooth = 0;
x = 353;
y = 1285;
},
{
segmentType = line;
smooth = 1;
x = 1007;
y = 1285;
},
{
smooth = 0;
x = 1056;
y = 1285;
},
{
smooth = 0;
x = 1080;
y = 1319;
},
{
segmentType = curve;
smooth = 1;
x = 1080;
y = 1356;
},
{
smooth = 0;
x = 1080;
y = 1392;
},
{
smooth = 0;
x = 1056;
y = 1426;
},
{
segmentType = curve;
smooth = 1;
x = 1007;
y = 1426;
},
{
segmentType = line;
smooth = 1;
x = 261;
y = 1426;
},
{
smooth = 0;
x = 213;
y = 1426;
},
{
smooth = 0;
x = 178;
y = 1383;
},
{
segmentType = curve;
smooth = 1;
x = 178;
y = 1340;
},
{
segmentType = line;
smooth = 1;
x = 178;
y = 86;
},
{
smooth = 0;
x = 178;
y = 41;
},
{
smooth = 0;
x = 222;
y = 0;
}
);
}
);
lib = {
};
name = F;
unicodes = (
);
width = 1142;
};
};
components = (
);
contours = (
);
lib = {
};
name = F;
unicodes = (
);
width = 1175;
};
},
{
glyphname = G;
lastChange = "2016-08-19 19:46:44 +0000";
layers = (
{
anchors = (
{
name = bottom;
position = "{387, 0}";
},
{
name = top;
position = "{380, 705}";
}
);
layerId = "9E718F8A-2CEA-4931-B05D-987794BD97DA";
paths = (
{
closed = 1;
nodes = (
"472 -6 OFFCURVE",
"557 10 OFFCURVE",
"608 34 CURVE SMOOTH",
"622 41 OFFCURVE",
"627 52 OFFCURVE",
"627 64 CURVE SMOOTH",
"627 334 LINE SMOOTH",
"627 349 OFFCURVE",
"617 359 OFFCURVE",
"603 359 CURVE SMOOTH",
"404 359 LINE SMOOTH",
"392 359 OFFCURVE",
"383 348 OFFCURVE",
"383 334 CURVE SMOOTH",
"383 320 OFFCURVE",
"392 309 OFFCURVE",
"404 309 CURVE SMOOTH",
"577 309 LINE",
"577 43 LINE",
"591 82 LINE",
"543 60 OFFCURVE",
"471 44 OFFCURVE",
"387 44 CURVE SMOOTH",
"203 44 OFFCURVE",
"116 163 OFFCURVE",
"116 353 CURVE SMOOTH",
"116 544 OFFCURVE",
"208 662 OFFCURVE",
"380 662 CURVE SMOOTH",
"471 662 OFFCURVE",
"522 633 OFFCURVE",
"585 583 CURVE SMOOTH",
"593 577 OFFCURVE",
"599 574 OFFCURVE",
"605 574 CURVE SMOOTH",
"616 574 OFFCURVE",
"624 585 OFFCURVE",
"624 598 CURVE SMOOTH",
"624 607 OFFCURVE",
"620 616 OFFCURVE",
"612 625 CURVE SMOOTH",
"555 683 OFFCURVE",
"467 711 OFFCURVE",
"380 711 CURVE SMOOTH",
"185 711 OFFCURVE",
"59 579 OFFCURVE",
"59 353 CURVE SMOOTH",
"59 126 OFFCURVE",
"182 -6 OFFCURVE",
"387 -6 CURVE SMOOTH"
);
}
);
width = 709;
},
{
anchors = (
{
name = bottom;
position = "{413, 0}";
},
{
name = top;
position = "{406, 705}";
}
);
layerId = "E1B555A7-F4E1-459C-9C1A-AE952106EEF9";
paths = (
{
closed = 1;
nodes = (
"477 -7 OFFCURVE",
"549 4 OFFCURVE",
"596 18 CURVE SMOOTH",
"662 37 OFFCURVE",
"676 62 OFFCURVE",
"676 142 CURVE SMOOTH",
"676 331 LINE SMOOTH",
"676 364 OFFCURVE",
"655 391 OFFCURVE",
"613 391 CURVE SMOOTH",
"443 391 LINE SMOOTH",
"405 391 OFFCURVE",
"381 372 OFFCURVE",
"381 335 CURVE SMOOTH",
"381 298 OFFCURVE",
"405 279 OFFCURVE",
"443 279 CURVE SMOOTH",
"532 279 LINE",
"532 90 LINE",
"567 141 LINE",
"520 126 OFFCURVE",
"469 117 OFFCURVE",
"420 117 CURVE SMOOTH",
"297 117 OFFCURVE",
"210 175 OFFCURVE",
"210 353 CURVE SMOOTH",
"210 509 OFFCURVE",
"278 584 OFFCURVE",
"411 584 CURVE SMOOTH",
"483 584 OFFCURVE",
"525 561 OFFCURVE",
"563 537 CURVE SMOOTH",
"581 527 OFFCURVE",
"593 520 OFFCURVE",
"613 520 CURVE SMOOTH",
"646 520 OFFCURVE",
"664 556 OFFCURVE",
"664 585 CURVE SMOOTH",
"664 608 OFFCURVE",
"658 625 OFFCURVE",
"636 641 CURVE SMOOTH",
"579 685 OFFCURVE",
"506 712 OFFCURVE",
"406 712 CURVE SMOOTH",
"187 712 OFFCURVE",
"47 573 OFFCURVE",
"47 353 CURVE SMOOTH",
"47 132 OFFCURVE",
"183 -7 OFFCURVE",
"413 -7 CURVE SMOOTH"
);
}
);
width = 737;
}
);
leftMetricsKey = O;
unicode = 0047;
userData = {
anchors = (
);
b = {
};
com.typemytype.robofont.layerData = {
b = {
anchors = (
);
components = (
);
contours = (
{
points = (
{
segmentType = curve;
smooth = 1;
x = 783;
y = "-22";
},
{
smooth = 0;
x = 965;
y = "-22";
},
{
smooth = 0;
x = 1086;
y = 34;
},
{
segmentType = curve;
smooth = 1;
x = 1166;
y = 86;
},
{
smooth = 0;
x = 1270;
y = 154;
},
{
smooth = 0;
x = 1186;
y = 258;
},
{
segmentType = curve;
smooth = 1;
x = 1112;
y = 214;
},
{
smooth = 0;
x = 1024;
y = 162;
},
{
smooth = 0;
x = 939;
y = 120;
},
{
segmentType = curve;
smooth = 1;
x = 806;
y = 120;
},
{
smooth = 0;
x = 446;
y = 120;
},
{
smooth = 0;
x = 316;
y = 406;
},
{
segmentType = curve;
smooth = 1;
x = 316;
y = 706;
},
{
smooth = 0;
x = 316;
y = 1005;
},
{
smooth = 0;
x = 450;
y = 1296;
},
{
segmentType = curve;
smooth = 1;
x = 801;
y = 1296;
},
{
smooth = 0;
x = 980;
y = 1296;
},
{
smooth = 0;
x = 1053;
y = 1246;
},
{
segmentType = curve;
smooth = 1;
x = 1094;
y = 1225;
},
{
smooth = 0;
x = 1174;
y = 1184;
},
{
smooth = 0;
x = 1231;
y = 1300;
},
{
segmentType = curve;
smooth = 1;
x = 1156;
y = 1343;
},
{
smooth = 0;
x = 1106;
y = 1372;
},
{
smooth = 0;
x = 995;
y = 1438;
},
{
segmentType = curve;
smooth = 1;
x = 797;
y = 1438;
},
{
smooth = 0;
x = 359;
y = 1438;
},
{
smooth = 0;
x = 128;
y = 1093;
},
{
segmentType = curve;
smooth = 1;
x = 128;
y = 704;
},
{
smooth = 0;
x = 128;
y = 307;
},
{
smooth = 0;
x = 350;
y = "-22";
}
);
}
);
lib = {
};
name = G;
unicodes = (
);
width = 1448;
};
};
components = (
);
contours = (
);
lib = {
};
name = G;
unicodes = (
);
width = 1538;
};
},
{
glyphname = H;
lastChange = "2016-08-19 19:47:57 +0000";
layers = (
{
anchors = (
{
name = bottom;
position = "{371, 0}";
},
{
name = center;
position = "{371, 358}";
},
{
name = top;
position = "{371, 705}";
},
{
name = topleft;
position = "{20, 705}";
}
);
layerId = "9E718F8A-2CEA-4931-B05D-987794BD97DA";
paths = (
{
closed = 1;
nodes = (
"644 -5 OFFCURVE",
"654 7 OFFCURVE",
"654 24 CURVE SMOOTH",
"654 681 LINE SMOOTH",
"654 698 OFFCURVE",
"644 710 OFFCURVE",
"627 710 CURVE SMOOTH",
"610 710 OFFCURVE",
"600 698 OFFCURVE",
"600 681 CURVE SMOOTH",
"600 24 LINE SMOOTH",
"600 7 OFFCURVE",
"610 -5 OFFCURVE",
"627 -5 CURVE SMOOTH"
);
},
{
closed = 1;
nodes = (
"131 -5 OFFCURVE",
"141 7 OFFCURVE",
"141 24 CURVE SMOOTH",
"141 681 LINE SMOOTH",
"141 698 OFFCURVE",
"131 710 OFFCURVE",
"114 710 CURVE SMOOTH",
"97 710 OFFCURVE",
"87 698 OFFCURVE",
"87 681 CURVE SMOOTH",
"87 24 LINE SMOOTH",
"87 7 OFFCURVE",
"97 -5 OFFCURVE",
"114 -5 CURVE SMOOTH"
);
},
{
closed = 1;
nodes = (
"609 333 LINE",
"609 383 LINE",
"121 383 LINE",
"121 333 LINE"
);
}
);
width = 741;
},
{
anchors = (
{
name = bottom;
position = "{385, 0}";
},
{
name = center;
position = "{385, 358}";
},
{
name = top;
position = "{385, 705}";
},
{
name = topleft;
position = "{20, 705}";
}
);
layerId = "E1B555A7-F4E1-459C-9C1A-AE952106EEF9";
paths = (
{
closed = 1;
nodes = (
"665 -6 OFFCURVE",
"702 20 OFFCURVE",
"702 74 CURVE SMOOTH",
"702 631 LINE SMOOTH",
"702 684 OFFCURVE",
"665 710 OFFCURVE",
"623 710 CURVE SMOOTH",
"580 710 OFFCURVE",
"544 684 OFFCURVE",
"544 631 CURVE SMOOTH",
"544 74 LINE SMOOTH",
"544 20 OFFCURVE",
"580 -6 OFFCURVE",
"623 -6 CURVE SMOOTH"
);
},
{
closed = 1;
nodes = (
"189 -6 OFFCURVE",
"226 20 OFFCURVE",
"226 74 CURVE SMOOTH",
"226 631 LINE SMOOTH",
"226 684 OFFCURVE",
"189 710 OFFCURVE",
"147 710 CURVE SMOOTH",
"104 710 OFFCURVE",
"68 684 OFFCURVE",
"68 631 CURVE SMOOTH",
"68 74 LINE SMOOTH",
"68 20 OFFCURVE",
"104 -6 OFFCURVE",
"147 -6 CURVE SMOOTH"
);
},
{
closed = 1;
nodes = (
"639 293 LINE",
"639 423 LINE",
"119 423 LINE",
"119 293 LINE"
);
}
);
width = 770;
}
);
unicode = 0048;
userData = {
anchors = (
);
b = {
};
com.typemytype.robofont.layerData = {
b = {
anchors = (
);
components = (
);
contours = (
);
lib = {
};
name = H;
unicodes = (
);
width = 1464;
};
};
components = (
);
contours = (
);
lib = {
};
name = H;
unicodes = (
);
width = 1524;
};
},
{
color = 3;
glyphname = Hbar;
lastChange = "2016-08-19 19:51:56 +0000";
layers = (
{
background = {
components = (
{
name = H;
transform = "{1, 0, 0, 1, 13, 0}";
}
);
paths = (
{
closed = 1;
nodes = (
"75 547 LINE SMOOTH",
"57 547 OFFCURVE",
"45 540 OFFCURVE",
"45 525 CURVE SMOOTH",
"45 511 OFFCURVE",
"57 504 OFFCURVE",
"75 504 CURVE SMOOTH",
"654 504 LINE SMOOTH",
"672 504 OFFCURVE",
"684 511 OFFCURVE",
"684 525 CURVE SMOOTH",
"684 540 OFFCURVE",
"672 547 OFFCURVE",
"654 547 CURVE SMOOTH"
);
}
);
};
layerId = "9E718F8A-2CEA-4931-B05D-987794BD97DA";
paths = (
{
closed = 1;
nodes = (
"657 -5 OFFCURVE",
"667 7 OFFCURVE",
"667 24 CURVE SMOOTH",
"667 681 LINE SMOOTH",
"667 698 OFFCURVE",
"657 710 OFFCURVE",
"640 710 CURVE SMOOTH",
"623 710 OFFCURVE",
"613 698 OFFCURVE",
"613 681 CURVE SMOOTH",
"613 24 LINE SMOOTH",
"613 7 OFFCURVE",
"623 -5 OFFCURVE",
"640 -5 CURVE SMOOTH"
);
},
{
closed = 1;
nodes = (
"144 -5 OFFCURVE",
"154 7 OFFCURVE",
"154 24 CURVE SMOOTH",
"154 681 LINE SMOOTH",
"154 698 OFFCURVE",
"144 710 OFFCURVE",
"127 710 CURVE SMOOTH",
"110 710 OFFCURVE",
"100 698 OFFCURVE",
"100 681 CURVE SMOOTH",
"100 24 LINE SMOOTH",
"100 7 OFFCURVE",
"110 -5 OFFCURVE",
"127 -5 CURVE SMOOTH"
);
},
{
closed = 1;
nodes = (
"622 333 LINE",
"622 383 LINE",
"134 383 LINE",
"134 333 LINE"
);
},
{
closed = 1;
nodes = (
"744 525 LINE SMOOTH",
"758 525 OFFCURVE",
"767 533 OFFCURVE",
"767 548 CURVE SMOOTH",
"767 563 OFFCURVE",
"758 571 OFFCURVE",
"744 571 CURVE SMOOTH",
"25 571 LINE SMOOTH",
"11 571 OFFCURVE",
"0 563 OFFCURVE",
"0 548 CURVE SMOOTH",
"0 533 OFFCURVE",
"11 525 OFFCURVE",
"25 525 CURVE SMOOTH"
);
}
);
width = 767;
},
{
background = {
paths = (
{
closed = 1;
nodes = (
"697 -6 OFFCURVE",
"734 20 OFFCURVE",
"734 74 CURVE SMOOTH",
"734 631 LINE SMOOTH",
"734 684 OFFCURVE",
"697 710 OFFCURVE",
"655 710 CURVE SMOOTH",
"612 710 OFFCURVE",
"576 684 OFFCURVE",
"576 631 CURVE SMOOTH",
"576 74 LINE SMOOTH",
"576 20 OFFCURVE",
"612 -6 OFFCURVE",
"655 -6 CURVE SMOOTH"
);
},
{
closed = 1;
nodes = (
"221 -6 OFFCURVE",
"258 20 OFFCURVE",
"258 74 CURVE SMOOTH",
"258 631 LINE SMOOTH",
"258 684 OFFCURVE",
"221 710 OFFCURVE",
"179 710 CURVE SMOOTH",
"136 710 OFFCURVE",
"100 684 OFFCURVE",
"100 631 CURVE SMOOTH",
"100 74 LINE SMOOTH",
"100 20 OFFCURVE",
"136 -6 OFFCURVE",
"179 -6 CURVE SMOOTH"
);
},
{
closed = 1;
nodes = (
"671 291 LINE",
"671 421 LINE",
"151 421 LINE",
"151 291 LINE"
);
},
{
closed = 1;
nodes = (
"762 487 LINE SMOOTH",
"810 487 OFFCURVE",
"834 511 OFFCURVE",
"834 548 CURVE SMOOTH",
"834 585 OFFCURVE",
"810 609 OFFCURVE",
"762 609 CURVE SMOOTH",
"72 609 LINE SMOOTH",
"24 609 OFFCURVE",
"0 585 OFFCURVE",
"0 548 CURVE SMOOTH",
"0 511 OFFCURVE",
"24 487 OFFCURVE",
"72 487 CURVE SMOOTH"
);
}
);
};
layerId = "E1B555A7-F4E1-459C-9C1A-AE952106EEF9";
paths = (
{
closed = 1;
nodes = (
"697 -6 OFFCURVE",
"734 20 OFFCURVE",
"734 74 CURVE SMOOTH",
"734 631 LINE SMOOTH",
"734 684 OFFCURVE",
"697 710 OFFCURVE",
"655 710 CURVE SMOOTH",
"612 710 OFFCURVE",
"576 684 OFFCURVE",
"576 631 CURVE SMOOTH",
"576 74 LINE SMOOTH",
"576 20 OFFCURVE",
"612 -6 OFFCURVE",
"655 -6 CURVE SMOOTH"
);
},
{
closed = 1;
nodes = (
"221 -6 OFFCURVE",
"258 20 OFFCURVE",
"258 74 CURVE SMOOTH",
"258 631 LINE SMOOTH",
"258 684 OFFCURVE",
"221 710 OFFCURVE",
"179 710 CURVE SMOOTH",
"136 710 OFFCURVE",
"100 684 OFFCURVE",
"100 631 CURVE SMOOTH",
"100 74 LINE SMOOTH",
"100 20 OFFCURVE",
"136 -6 OFFCURVE",
"179 -6 CURVE SMOOTH"
);
},
{
closed = 1;
nodes = (
"671 293 LINE",
"671 423 LINE",
"151 423 LINE",
"151 293 LINE"
);
},
{
closed = 1;
nodes = (
"762 489 LINE SMOOTH",
"810 489 OFFCURVE",
"834 513 OFFCURVE",
"834 548 CURVE SMOOTH",
"834 583 OFFCURVE",
"810 607 OFFCURVE",
"762 607 CURVE SMOOTH",
"72 607 LINE SMOOTH",
"24 607 OFFCURVE",
"0 583 OFFCURVE",
"0 548 CURVE SMOOTH",
"0 513 OFFCURVE",
"24 489 OFFCURVE",
"72 489 CURVE SMOOTH"
);
}
);
width = 834;
}
);
unicode = 0126;
userData = {
com.typemytype.robofont.layerData = {
b = {
anchors = (
);
components = (
);
contours = (
);
lib = {
};
name = Hbar;
unicodes = (
);
width = 1464;
};
};
};
},
{
glyphname = I;
lastChange = "2016-08-19 19:53:39 +0000";
layers = (
{
anchors = (
{
name = bottom;
position = "{114, 0}";
},
{
name = ogonek;
position = "{138, 10}";
},
{
name = top;
position = "{114, 705}";
},
{
name = topleft;
position = "{20, 705}";
}
);
layerId = "9E718F8A-2CEA-4931-B05D-987794BD97DA";
paths = (
{
closed = 1;
nodes = (
"131 -5 OFFCURVE",
"141 7 OFFCURVE",
"141 24 CURVE SMOOTH",
"141 681 LINE SMOOTH",
"141 698 OFFCURVE",
"131 710 OFFCURVE",
"114 710 CURVE SMOOTH",
"97 710 OFFCURVE",
"87 698 OFFCURVE",
"87 681 CURVE SMOOTH",
"87 24 LINE SMOOTH",
"87 7 OFFCURVE",
"97 -5 OFFCURVE",
"114 -5 CURVE SMOOTH"
);
}
);
width = 228;
},
{
anchors = (
{
name = bottom;
position = "{148, 0}";
},
{
name = ogonek;
position = "{199, 10}";
},
{
name = top;
position = "{148, 705}";
},
{
name = topleft;
position = "{20, 705}";
}
);
layerId = "E1B555A7-F4E1-459C-9C1A-AE952106EEF9";
paths = (
{
closed = 1;
nodes = (
"193 -6 OFFCURVE",
"229 20 OFFCURVE",
"229 74 CURVE SMOOTH",
"229 631 LINE SMOOTH",
"229 684 OFFCURVE",
"193 710 OFFCURVE",
"148 710 CURVE SMOOTH",
"104 710 OFFCURVE",
"68 684 OFFCURVE",
"68 631 CURVE SMOOTH",
"68 74 LINE SMOOTH",
"68 20 OFFCURVE",
"104 -6 OFFCURVE",
"148 -6 CURVE SMOOTH"
);
}
);
width = 297;
}
);
leftMetricsKey = H;
rightMetricsKey = H;
unicode = 0049;
userData = {
anchors = (
);
b = {
};
com.typemytype.robofont.layerData = {
b = {
anchors = (
);
components = (
);
contours = (
);
lib = {
};
name = I;
unicodes = (
);
width = 592;
};
};
components = (
);
contours = (
);
lib = {
};
name = I;
unicodes = (
);
width = 637;
};
},
{
glyphname = J;
lastChange = "2016-08-19 19:54:30 +0000";
layers = (
{
anchors = (
{
name = bottom;
position = "{190, 0}";
},
{
name = top;
position = "{190, 705}";
}
);
layerId = "9E718F8A-2CEA-4931-B05D-987794BD97DA";
paths = (
{
closed = 1;
nodes = (
"59 -3 LINE SMOOTH",
"164 4 OFFCURVE",
"217 58 OFFCURVE",
"217 180 CURVE SMOOTH",
"217 681 LINE SMOOTH",
"217 698 OFFCURVE",
"208 710 OFFCURVE",
"190 710 CURVE SMOOTH",
"176 710 OFFCURVE",
"163 698 OFFCURVE",
"163 681 CURVE SMOOTH",
"163 182 LINE SMOOTH",
"163 83 OFFCURVE",
"125 52 OFFCURVE",
"51 46 CURVE SMOOTH",
"22 44 LINE SMOOTH",
"3 43 OFFCURVE",
"-5 32 OFFCURVE",
"-5 19 CURVE SMOOTH",
"-5 5 OFFCURVE",
"6 -7 OFFCURVE",
"29 -5 CURVE SMOOTH"
);
}
);
width = 304;
},
{
anchors = (
{
name = bottom;
position = "{237, 0}";
},
{
name = top;
position = "{237, 705}";
}
);
layerId = "E1B555A7-F4E1-459C-9C1A-AE952106EEF9";
paths = (
{
closed = 1;
nodes = (
"118 -4 LINE SMOOTH",
"254 5 OFFCURVE",
"318 80 OFFCURVE",
"318 208 CURVE SMOOTH",
"318 631 LINE SMOOTH",
"318 684 OFFCURVE",
"281 710 OFFCURVE",
"237 710 CURVE SMOOTH",
"193 710 OFFCURVE",
"156 684 OFFCURVE",
"156 631 CURVE SMOOTH",
"156 206 LINE SMOOTH",
"156 153 OFFCURVE",
"131 126 OFFCURVE",
"86 124 CURVE SMOOTH",
"53 122 LINE SMOOTH",
"9 119 OFFCURVE",
"-10 99 OFFCURVE",
"-10 59 CURVE SMOOTH",
"-10 10 OFFCURVE",
"27 -9 OFFCURVE",
"86 -6 CURVE SMOOTH"
);
}
);
width = 386;
}
);
rightMetricsKey = H;
unicode = 004A;
userData = {
anchors = (
);
b = {
};
com.typemytype.robofont.layerData = {
b = {
anchors = (
);
components = (
);
contours = (
);
lib = {
};
name = J;
unicodes = (
);
width = 1003;
};
};
components = (
);
contours = (
);
lib = {
};
name = J;
unicodes = (
);
width = 1126;
};
},
{
glyphname = K;
lastChange = "2016-08-19 19:54:36 +0000";
layers = (
{
anchors = (
{
name = bottom;
position = "{300, 0}";
},
{
name = top;
position = "{300, 705}";
}
);
layerId = "9E718F8A-2CEA-4931-B05D-987794BD97DA";
paths = (
{
closed = 1;
nodes = (
"563 -18 OFFCURVE",
"600 18 OFFCURVE",
"571 41 CURVE SMOOTH",
"172 379 LINE",
"172 339 LINE",
"552 665 LINE SMOOTH",
"579 687 OFFCURVE",
"542 724 OFFCURVE",
"517 702 CURVE SMOOTH",
"117 357 LINE",
"538 2 LINE SMOOTH"
);
},
{
closed = 1;
nodes = (
"131 -5 OFFCURVE",
"141 7 OFFCURVE",
"141 24 CURVE SMOOTH",
"141 681 LINE SMOOTH",
"141 698 OFFCURVE",
"131 710 OFFCURVE",
"114 710 CURVE SMOOTH",
"97 710 OFFCURVE",
"87 698 OFFCURVE",
"87 681 CURVE SMOOTH",
"87 24 LINE SMOOTH",
"87 7 OFFCURVE",
"97 -5 OFFCURVE",
"114 -5 CURVE SMOOTH"
);
}
);
width = 599;
},
{
anchors = (
{
name = bottom;
position = "{342, 0}";
},
{
name = top;
position = "{342, 705}";
}
);
layerId = "E1B555A7-F4E1-459C-9C1A-AE952106EEF9";
paths = (
{
closed = 1;
nodes = (
"610 -54 OFFCURVE",
"713 51 OFFCURVE",
"643 121 CURVE SMOOTH",
"352 405 LINE",
"346 321 LINE",
"626 584 LINE SMOOTH",
"699 655 OFFCURVE",
"595 755 OFFCURVE",
"527 686 CURVE SMOOTH",
"193 360 LINE",
"534 24 LINE SMOOTH"
);
},
{
closed = 1;
nodes = (
"193 -6 OFFCURVE",
"229 20 OFFCURVE",
"229 74 CURVE SMOOTH",
"229 631 LINE SMOOTH",
"229 684 OFFCURVE",
"193 710 OFFCURVE",
"148 710 CURVE SMOOTH",
"104 710 OFFCURVE",
"68 684 OFFCURVE",
"68 631 CURVE SMOOTH",
"68 74 LINE SMOOTH",
"68 20 OFFCURVE",
"104 -6 OFFCURVE",
"148 -6 CURVE SMOOTH"
);
}
);
width = 684;
}
);
leftMetricsKey = H;
unicode = 004B;
userData = {
anchors = (
);
b = {
};
com.typemytype.robofont.layerData = {
b = {
anchors = (
);
components = (
);
contours = (
);
lib = {
};
name = K;
unicodes = (
);
width = 1210;
};
};
components = (
);
contours = (
);
lib = {
};
name = K;
unicodes = (
);
width = 1329;
};
},
{
glyphname = L;
lastChange = "2016-08-19 19:56:04 +0000";
layers = (
{
anchors = (
{
name = bottom;
position = "{301, 0}";
},
{
name = center;
position = "{316, 353}";
},
{
name = top;
position = "{114, 705}";
},
{
name = topright;
position = "{414, 705}";
}
);
layerId = "9E718F8A-2CEA-4931-B05D-987794BD97DA";
paths = (
{
closed = 1;
nodes = (
"490 0 LINE SMOOTH",
"504 0 OFFCURVE",
"514 10 OFFCURVE",
"514 25 CURVE SMOOTH",
"514 40 OFFCURVE",
"504 50 OFFCURVE",
"490 50 CURVE SMOOTH",
"141 50 LINE",
"141 681 LINE SMOOTH",
"141 698 OFFCURVE",
"132 710 OFFCURVE",
"114 710 CURVE SMOOTH",
"97 710 OFFCURVE",
"87 698 OFFCURVE",
"87 681 CURVE SMOOTH",
"87 25 LINE SMOOTH",
"87 11 OFFCURVE",
"101 0 OFFCURVE",
"115 0 CURVE SMOOTH"
);
}
);
width = 519;
},
{
anchors = (
{
name = bottom;
position = "{312, 0}";
},
{
name = center;
position = "{355, 353}";
},
{
name = top;
position = "{148, 705}";
},
{
name = topright;
position = "{456, 705}";
}
);
layerId = "E1B555A7-F4E1-459C-9C1A-AE952106EEF9";
paths = (
{
closed = 1;
nodes = (
"480 0 LINE SMOOTH",
"533 0 OFFCURVE",
"556 24 OFFCURVE",
"556 66 CURVE SMOOTH",
"556 109 OFFCURVE",
"533 133 OFFCURVE",
"480 133 CURVE SMOOTH",
"229 133 LINE",
"229 631 LINE SMOOTH",
"229 684 OFFCURVE",
"193 710 OFFCURVE",
"148 710 CURVE SMOOTH",
"104 710 OFFCURVE",
"68 684 OFFCURVE",
"68 631 CURVE SMOOTH",
"68 75 LINE SMOOTH",
"68 27 OFFCURVE",
"95 0 OFFCURVE",
"143 0 CURVE SMOOTH"
);
}
);
width = 561;
}
);
leftMetricsKey = H;
unicode = 004C;
userData = {
anchors = (
);
b = {
};
com.typemytype.robofont.layerData = {
b = {
anchors = (
);
components = (
);
contours = (
{
points = (
{
segmentType = curve;
smooth = 1;
x = 266;
y = 0;
},
{
segmentType = line;
smooth = 1;
x = 1035;
y = 0;
},
{
smooth = 0;
x = 1084;
y = 0;
},
{
smooth = 0;
x = 1108;
y = 34;
},
{
segmentType = curve;
smooth = 1;
x = 1108;
y = 71;
},
{
smooth = 0;
x = 1108;
y = 107;
},
{
smooth = 0;
x = 1084;
y = 141;
},
{
segmentType = curve;
smooth = 1;
x = 1035;
y = 141;
},
{
segmentType = line;
smooth = 0;
x = 356;
y = 141;
},
{
segmentType = line;
smooth = 0;
x = 356;
y = 665;
},
{
segmentType = line;
smooth = 1;
x = 975;
y = 665;
},
{
smooth = 0;
x = 1024;
y = 665;
},
{
smooth = 0;
x = 1049;
y = 698;
},
{
segmentType = curve;
smooth = 1;
x = 1049;
y = 734;
},
{
smooth = 0;
x = 1049;
y = 770;
},
{
smooth = 0;
x = 1026;
y = 803;
},
{
segmentType = curve;
smooth = 1;
x = 975;
y = 803;
},
{
segmentType = line;
smooth = 0;
x = 356;
y = 803;
},
{
segmentType = line;
smooth = 0;
x = 356;
y = 1285;
},
{
segmentType = line;
smooth = 1;
x = 1007;
y = 1285;
},
{
smooth = 0;
x = 1056;
y = 1285;
},
{
smooth = 0;
x = 1080;
y = 1319;
},
{
segmentType = curve;
smooth = 1;
x = 1080;
y = 1356;
},
{
smooth = 0;
x = 1080;
y = 1392;
},
{
smooth = 0;
x = 1056;
y = 1426;
},
{
segmentType = curve;
smooth = 1;
x = 1007;
y = 1426;
},
{
segmentType = line;
smooth = 1;
x = 261;
y = 1426;
},
{
smooth = 0;
x = 213;
y = 1426;
},
{
smooth = 0;
x = 178;
y = 1383;
},
{
segmentType = curve;
smooth = 1;
x = 178;
y = 1340;
},
{
segmentType = line;
smooth = 1;
x = 178;
y = 86;
},
{
smooth = 0;
x = 178;
y = 41;
},
{
smooth = 0;
x = 222;
y = 0;
}
);
}
);
lib = {
};
name = L;
unicodes = (
);
width = 1095;
};
};
components = (
);
contours = (
);
lib = {
};
name = L;
unicodes = (
);
width = 1169;
};
},
{
color = 3;
glyphname = Lslash;
lastChange = "2016-08-19 09:10:46 +0000";
layers = (
{
background = {
paths = (
{
closed = 1;
nodes = (
"503 0 LINE SMOOTH",
"517 0 OFFCURVE",
"527 10 OFFCURVE",
"527 25 CURVE SMOOTH",
"527 40 OFFCURVE",
"517 50 OFFCURVE",
"503 50 CURVE SMOOTH",
"154 50 LINE",
"154 681 LINE SMOOTH",
"154 698 OFFCURVE",
"145 710 OFFCURVE",
"127 710 CURVE SMOOTH",
"110 710 OFFCURVE",
"100 698 OFFCURVE",
"100 681 CURVE SMOOTH",
"100 25 LINE SMOOTH",
"100 11 OFFCURVE",
"114 0 OFFCURVE",
"128 0 CURVE SMOOTH"
);
},
{
closed = 1;
nodes = (
"287 485 LINE SMOOTH",
"309 507 OFFCURVE",
"276 539 OFFCURVE",
"254 517 CURVE SMOOTH",
"8 272 LINE SMOOTH",
"-16 248 OFFCURVE",
"17 215 OFFCURVE",
"41 239 CURVE SMOOTH"
);
}
);
};
guideLines = (
{
position = "{384, 358}";
},
{
angle = 90;
position = "{0, 125}";
},
{
angle = 90;
position = "{254, 125}";
},
{
angle = 90;
position = "{354, 125}";
}
);
layerId = "9E718F8A-2CEA-4931-B05D-987794BD97DA";
paths = (
{
closed = 1;
nodes = (
"503 0 LINE SMOOTH",
"517 0 OFFCURVE",
"527 10 OFFCURVE",
"527 25 CURVE SMOOTH",
"527 40 OFFCURVE",
"517 50 OFFCURVE",
"503 50 CURVE SMOOTH",
"154 50 LINE",
"154 681 LINE SMOOTH",
"154 698 OFFCURVE",
"145 710 OFFCURVE",
"127 710 CURVE SMOOTH",
"110 710 OFFCURVE",
"100 698 OFFCURVE",
"100 681 CURVE SMOOTH",
"100 25 LINE SMOOTH",
"100 11 OFFCURVE",
"114 0 OFFCURVE",
"128 0 CURVE SMOOTH"
);
},
{
closed = 1;
nodes = (
"338 452 LINE SMOOTH",
"365 468 OFFCURVE",
"341 507 OFFCURVE",
"314 492 CURVE SMOOTH",
"13 319 LINE SMOOTH",
"-16 302 OFFCURVE",
"7 261 OFFCURVE",
"37 278 CURVE SMOOTH"
);
}
);
width = 532;
},
{
background = {
paths = (
{
closed = 1;
nodes = (
"512 0 LINE SMOOTH",
"565 0 OFFCURVE",
"588 24 OFFCURVE",
"588 66 CURVE SMOOTH",
"588 109 OFFCURVE",
"565 133 OFFCURVE",
"512 133 CURVE SMOOTH",
"261 133 LINE",
"261 631 LINE SMOOTH",
"261 684 OFFCURVE",
"225 710 OFFCURVE",
"180 710 CURVE SMOOTH",
"136 710 OFFCURVE",
"100 684 OFFCURVE",
"100 631 CURVE SMOOTH",
"100 75 LINE SMOOTH",
"100 27 OFFCURVE",
"127 0 OFFCURVE",
"175 0 CURVE SMOOTH"
);
},
{
closed = 1;
nodes = (
"379 471 LINE SMOOTH",
"442 534 OFFCURVE",
"358 616 OFFCURVE",
"295 554 CURVE SMOOTH",
"23 283 LINE SMOOTH",
"-40 221 OFFCURVE",
"43 135 OFFCURVE",
"107 199 CURVE SMOOTH"
);
},
{
closed = 1;
nodes = (
"428 431 LINE SMOOTH",
"505 476 OFFCURVE",
"445 577 OFFCURVE",
"369 533 CURVE SMOOTH",
"36 341 LINE SMOOTH",
"-41 297 OFFCURVE",
"17 193 OFFCURVE",
"95 238 CURVE SMOOTH"
);
}
);
};
guideLines = (
{
angle = 90;
position = "{361, 233}";
},
{
angle = 90;
position = "{0, 233}";
},
{
position = "{333, 356}";
},
{
angle = 90;
position = "{461, 233}";
}
);
layerId = "E1B555A7-F4E1-459C-9C1A-AE952106EEF9";
paths = (
{
closed = 1;
nodes = (
"512 0 LINE SMOOTH",
"565 0 OFFCURVE",
"588 24 OFFCURVE",
"588 66 CURVE SMOOTH",
"588 109 OFFCURVE",
"565 133 OFFCURVE",
"512 133 CURVE SMOOTH",
"261 133 LINE",
"261 631 LINE SMOOTH",
"261 684 OFFCURVE",
"225 710 OFFCURVE",
"180 710 CURVE SMOOTH",
"136 710 OFFCURVE",
"100 684 OFFCURVE",
"100 631 CURVE SMOOTH",
"100 75 LINE SMOOTH",
"100 27 OFFCURVE",
"127 0 OFFCURVE",
"175 0 CURVE SMOOTH"
);
},
{
closed = 1;
nodes = (
"418 425 LINE SMOOTH",
"495 470 OFFCURVE",
"434 570 OFFCURVE",
"359 527 CURVE SMOOTH",
"36 341 LINE SMOOTH",
"-40 297 OFFCURVE",
"18 193 OFFCURVE",
"95 238 CURVE SMOOTH"
);
}
);
width = 593;
}
);
rightMetricsKey = L;
unicode = 0141;
},
{
glyphname = M;
lastChange = "2016-08-19 19:56:17 +0000";
layers = (
{
anchors = (
{
name = bottom;
position = "{416, 0}";
},
{
name = top;
position = "{416, 705}";
}
);
layerId = "9E718F8A-2CEA-4931-B05D-987794BD97DA";
paths = (
{
closed = 1;
nodes = (
"133 -5 OFFCURVE",
"141 7 OFFCURVE",
"141 24 CURVE SMOOTH",
"141 646 LINE",
"110 644 LINE",
"387 122 LINE SMOOTH",
"394 108 OFFCURVE",
"404 101 OFFCURVE",
"417 101 CURVE SMOOTH",
"429 101 OFFCURVE",
"440 108 OFFCURVE",
"447 122 CURVE SMOOTH",
"719 643 LINE",
"691 646 LINE",
"691 24 LINE SMOOTH",
"691 7 OFFCURVE",
"699 -5 OFFCURVE",
"716 -5 CURVE SMOOTH",
"734 -5 OFFCURVE",
"743 7 OFFCURVE",
"743 24 CURVE SMOOTH",
"743 681 LINE SMOOTH",
"743 698 OFFCURVE",
"733 710 OFFCURVE",
"715 710 CURVE SMOOTH",
"704 710 OFFCURVE",
"696 705 OFFCURVE",
"688 689 CURVE SMOOTH",
"403 139 LINE",
"433 139 LINE",
"144 689 LINE SMOOTH",
"136 705 OFFCURVE",
"128 710 OFFCURVE",
"117 710 CURVE SMOOTH",
"99 710 OFFCURVE",
"89 698 OFFCURVE",
"89 681 CURVE SMOOTH",
"89 24 LINE SMOOTH",
"89 7 OFFCURVE",
"97 -5 OFFCURVE",
"115 -5 CURVE SMOOTH"
);
}
);
width = 832;
},
{
anchors = (
{
name = bottom;
position = "{420, 0}";
},
{
name = top;
position = "{420, 705}";
}
);
layerId = "E1B555A7-F4E1-459C-9C1A-AE952106EEF9";
paths = (
{
closed = 1;
nodes = (
"176 -6 OFFCURVE",
"213 20 OFFCURVE",
"213 74 CURVE SMOOTH",
"213 465 LINE",
"183 462 LINE",
"348 153 LINE SMOOTH",
"368 116 OFFCURVE",
"389 101 OFFCURVE",
"420 101 CURVE SMOOTH",
"451 101 OFFCURVE",
"473 116 OFFCURVE",
"492 153 CURVE SMOOTH",
"654 461 LINE",
"627 465 LINE",
"627 74 LINE SMOOTH",
"627 20 OFFCURVE",
"663 -6 OFFCURVE",
"698 -6 CURVE SMOOTH",
"734 -6 OFFCURVE",
"770 20 OFFCURVE",
"770 74 CURVE SMOOTH",
"770 631 LINE SMOOTH",
"770 684 OFFCURVE",
"733 710 OFFCURVE",
"694 710 CURVE SMOOTH",
"671 710 OFFCURVE",
"643 701 OFFCURVE",
"620 657 CURVE SMOOTH",
"404 243 LINE",
"439 243 LINE",
"222 657 LINE SMOOTH",
"199 701 OFFCURVE",
"169 710 OFFCURVE",
"146 710 CURVE SMOOTH",
"106 710 OFFCURVE",
"70 684 OFFCURVE",
"70 631 CURVE SMOOTH",
"70 74 LINE SMOOTH",
"70 20 OFFCURVE",
"106 -6 OFFCURVE",
"141 -6 CURVE SMOOTH"
);
}
);
width = 840;
}
);
leftMetricsKey = "=H+2";
rightMetricsKey = "=H+2";
unicode = 004D;
userData = {
anchors = (
);
b = {
};
com.typemytype.robofont.layerData = {
b = {
anchors = (
);
components = (
);
contours = (
);
lib = {
};
name = M;
unicodes = (
);
width = 1899;
};
};
components = (
);
contours = (
);
lib = {
};
name = M;
unicodes = (
);
width = 1984;
};
},
{
glyphname = N;
lastChange = "2016-08-19 19:56:27 +0000";
layers = (
{
anchors = (
{
name = bottom;
position = "{361, 0}";
},
{
name = top;
position = "{361, 705}";
}
);
layerId = "9E718F8A-2CEA-4931-B05D-987794BD97DA";
paths = (
{
closed = 1;
nodes = (
"130 -5 OFFCURVE",
"140 7 OFFCURVE",
"140 24 CURVE SMOOTH",
"140 644 LINE",
"115 643 LINE",
"584 9 LINE SMOOTH",
"591 0 OFFCURVE",
"597 -5 OFFCURVE",
"608 -5 CURVE SMOOTH",
"625 -5 OFFCURVE",
"635 7 OFFCURVE",
"635 24 CURVE SMOOTH",
"635 681 LINE SMOOTH",
"635 698 OFFCURVE",
"626 710 OFFCURVE",
"609 710 CURVE SMOOTH",
"593 710 OFFCURVE",
"582 698 OFFCURVE",
"582 681 CURVE SMOOTH",
"582 61 LINE",
"607 62 LINE",
"139 696 LINE SMOOTH",
"132 705 OFFCURVE",
"126 710 OFFCURVE",
"115 710 CURVE SMOOTH",
"97 710 OFFCURVE",
"87 698 OFFCURVE",
"87 681 CURVE SMOOTH",
"87 24 LINE SMOOTH",
"87 7 OFFCURVE",
"96 -5 OFFCURVE",
"114 -5 CURVE SMOOTH"
);
}
);
width = 722;
},
{
anchors = (
{
name = bottom;
position = "{376, 0}";
},
{
name = top;
position = "{376, 705}";
}
);
layerId = "E1B555A7-F4E1-459C-9C1A-AE952106EEF9";
paths = (
{
closed = 1;
nodes = (
"183 -6 OFFCURVE",
"219 20 OFFCURVE",
"219 74 CURVE SMOOTH",
"219 495 LINE",
"191 482 LINE",
"547 21 LINE SMOOTH",
"563 2 OFFCURVE",
"583 -6 OFFCURVE",
"607 -6 CURVE SMOOTH",
"646 -6 OFFCURVE",
"683 20 OFFCURVE",
"683 74 CURVE SMOOTH",
"683 631 LINE SMOOTH",
"683 684 OFFCURVE",
"646 710 OFFCURVE",
"607 710 CURVE SMOOTH",
"568 710 OFFCURVE",
"531 684 OFFCURVE",
"531 631 CURVE SMOOTH",
"531 210 LINE",
"560 222 LINE",
"203 683 LINE SMOOTH",
"187 703 OFFCURVE",
"167 710 OFFCURVE",
"144 710 CURVE SMOOTH",
"104 710 OFFCURVE",
"68 684 OFFCURVE",
"68 631 CURVE SMOOTH",
"68 74 LINE SMOOTH",
"68 20 OFFCURVE",
"104 -6 OFFCURVE",
"143 -6 CURVE SMOOTH"
);
}
);
width = 751;
}
);
leftMetricsKey = H;
rightMetricsKey = H;
unicode = 004E;
userData = {
anchors = (
);
b = {
};
com.typemytype.robofont.layerData = {
b = {
anchors = (
);
components = (
);
contours = (
);
lib = {
};
name = N;
unicodes = (
);
width = 1499;
};
};
components = (
);
contours = (
);
lib = {
};
name = N;
unicodes = (
);
width = 1557;
};
},
{
color = 3;
glyphname = Eng;
lastChange = "2016-08-19 11:56:26 +0000";
layers = (
{
background = {
paths = (
{
closed = 1;
nodes = (
"148 606 LINE",
"570 -3 LINE",
"570 -3 LINE",
"570 -106 OFFCURVE",
"548 -158 OFFCURVE",
"461 -158 CURVE SMOOTH",
"426 -158 OFFCURVE",
"380 -149 OFFCURVE",
"319 -133 CURVE SMOOTH",
"316 -132 OFFCURVE",
"313 -132 OFFCURVE",
"310 -132 CURVE SMOOTH",
"292 -132 OFFCURVE",
"280 -142 OFFCURVE",
"280 -156 CURVE SMOOTH",
"280 -168 OFFCURVE",
"289 -180 OFFCURVE",
"312 -185 CURVE SMOOTH",
"365 -198 OFFCURVE",
"417 -207 OFFCURVE",
"459 -207 CURVE SMOOTH",
"569 -207 OFFCURVE",
"626 -155 OFFCURVE",
"626 24 CURVE SMOOTH",
"626 664 LINE SMOOTH",
"626 683 OFFCURVE",
"613 693 OFFCURVE",
"598 693 CURVE SMOOTH",
"582 693 OFFCURVE",
"570 683 OFFCURVE",
"570 664 CURVE SMOOTH",
"570 85 LINE",
"182 653 LINE SMOOTH",
"164 680 OFFCURVE",
"146 693 OFFCURVE",
"130 693 CURVE SMOOTH",
"106 693 OFFCURVE",
"91 676 OFFCURVE",
"91 647 CURVE SMOOTH",
"91 29 LINE SMOOTH",
"91 9 OFFCURVE",
"104 0 OFFCURVE",
"120 0 CURVE SMOOTH",
"135 0 OFFCURVE",
"148 10 OFFCURVE",
"148 29 CURVE SMOOTH"
);
}
);
};
layerId = "9E718F8A-2CEA-4931-B05D-987794BD97DA";
paths = (
{
closed = 1;
nodes = (
"477 -183 LINE SMOOTH",
"582 -176 OFFCURVE",
"635 -122 OFFCURVE",
"635 0 CURVE SMOOTH",
"635 681 LINE SMOOTH",
"635 698 OFFCURVE",
"626 710 OFFCURVE",
"609 710 CURVE SMOOTH",
"593 710 OFFCURVE",
"582 698 OFFCURVE",
"582 681 CURVE SMOOTH",
"582 61 LINE",
"607 62 LINE",
"139 696 LINE SMOOTH",
"133 705 OFFCURVE",
"126 710 OFFCURVE",
"115 710 CURVE SMOOTH",
"97 710 OFFCURVE",
"87 698 OFFCURVE",
"87 681 CURVE SMOOTH",
"87 24 LINE SMOOTH",
"87 7 OFFCURVE",
"96 -5 OFFCURVE",
"114 -5 CURVE SMOOTH",
"130 -5 OFFCURVE",
"140 7 OFFCURVE",
"140 24 CURVE SMOOTH",
"140 644 LINE",
"115 643 LINE",
"609 -24 LINE",
"582 37 LINE",
"582 2 LINE SMOOTH",
"582 -97 OFFCURVE",
"543 -129 OFFCURVE",
"469 -134 CURVE SMOOTH",
"440 -136 LINE SMOOTH",
"421 -137 OFFCURVE",
"413 -148 OFFCURVE",
"413 -161 CURVE SMOOTH",
"413 -175 OFFCURVE",
"424 -187 OFFCURVE",
"447 -185 CURVE SMOOTH"
);
}
);
width = 722;
},
{
background = {
paths = (
{
closed = 1;
nodes = (
"183 -6 OFFCURVE",
"219 20 OFFCURVE",
"219 74 CURVE SMOOTH",
"219 495 LINE",
"191 482 LINE",
"547 21 LINE SMOOTH",
"563 2 OFFCURVE",
"583 -6 OFFCURVE",
"607 -6 CURVE SMOOTH",
"646 -6 OFFCURVE",
"683 20 OFFCURVE",
"683 74 CURVE SMOOTH",
"683 631 LINE SMOOTH",
"683 684 OFFCURVE",
"646 710 OFFCURVE",
"607 710 CURVE SMOOTH",
"568 710 OFFCURVE",
"531 684 OFFCURVE",
"531 631 CURVE SMOOTH",
"531 210 LINE",
"560 222 LINE",
"203 683 LINE SMOOTH",
"187 703 OFFCURVE",
"167 710 OFFCURVE",
"144 710 CURVE SMOOTH",
"104 710 OFFCURVE",
"68 684 OFFCURVE",
"68 631 CURVE SMOOTH",
"68 74 LINE SMOOTH",
"68 20 OFFCURVE",
"104 -6 OFFCURVE",
"143 -6 CURVE SMOOTH"
);
},
{
closed = 1;
nodes = (
"483 -182 LINE SMOOTH",
"619 -173 OFFCURVE",
"683 -98 OFFCURVE",
"683 30 CURVE SMOOTH",
"683 453 LINE SMOOTH",
"683 506 OFFCURVE",
"646 532 OFFCURVE",
"602 532 CURVE SMOOTH",
"558 532 OFFCURVE",
"521 506 OFFCURVE",
"521 453 CURVE SMOOTH",
"521 28 LINE SMOOTH",
"521 -25 OFFCURVE",
"496 -51 OFFCURVE",
"451 -54 CURVE SMOOTH",
"418 -56 LINE SMOOTH",
"374 -59 OFFCURVE",
"355 -79 OFFCURVE",
"355 -119 CURVE SMOOTH",
"355 -168 OFFCURVE",
"392 -188 OFFCURVE",
"451 -184 CURVE SMOOTH"
);
}
);
};
layerId = "E1B555A7-F4E1-459C-9C1A-AE952106EEF9";
paths = (
{
closed = 1;
nodes = (
"483 -182 LINE SMOOTH",
"619 -173 OFFCURVE",
"683 -98 OFFCURVE",
"683 30 CURVE SMOOTH",
"683 631 LINE SMOOTH",
"683 684 OFFCURVE",
"646 710 OFFCURVE",
"607 710 CURVE SMOOTH",
"568 710 OFFCURVE",
"531 684 OFFCURVE",
"531 631 CURVE SMOOTH",
"531 210 LINE",
"560 222 LINE",
"203 683 LINE SMOOTH",
"188 702 OFFCURVE",
"167 710 OFFCURVE",
"144 710 CURVE SMOOTH",
"104 710 OFFCURVE",
"68 684 OFFCURVE",
"68 631 CURVE SMOOTH",
"68 74 LINE SMOOTH",
"68 20 OFFCURVE",
"104 -6 OFFCURVE",
"143 -6 CURVE SMOOTH",
"183 -6 OFFCURVE",
"219 20 OFFCURVE",
"219 74 CURVE SMOOTH",
"219 495 LINE",
"191 482 LINE",
"556 7 LINE",
"531 89 LINE",
"531 20 LINE SMOOTH",
"531 -33 OFFCURVE",
"496 -59 OFFCURVE",
"451 -62 CURVE SMOOTH",
"418 -64 LINE SMOOTH",
"374 -67 OFFCURVE",
"355 -87 OFFCURVE",
"355 -123 CURVE SMOOTH",
"355 -168 OFFCURVE",
"392 -188 OFFCURVE",
"451 -184 CURVE SMOOTH"
);
}
);
width = 751;
}
);
leftMetricsKey = H;
rightMetricsKey = H;
unicode = 014A;
userData = {
com.typemytype.robofont.layerData = {
b = {
anchors = (
);
components = (
);
contours = (
);
lib = {
};
name = Eng;
unicodes = (
);
width = 1495;
};
};
};
},
{
glyphname = O;
lastChange = "2016-08-19 20:07:43 +0000";
layers = (
{
anchors = (
{
name = bottom;
position = "{371, 0}";
},
{
name = center;
position = "{372, 353}";
},
{
name = ogonek;
position = "{476, 10}";
},
{
name = top;
position = "{371, 705}";
},
{
name = topleft;
position = "{20, 705}";
},
{
name = topright;
position = "{401, 705}";
}
);
background = {
paths = (
{
closed = 1;
nodes = (
"558 -6 OFFCURVE",
"684 126 OFFCURVE",
"684 353 CURVE SMOOTH",
"684 581 OFFCURVE",
"558 711 OFFCURVE",
"371 711 CURVE SMOOTH",
"185 711 OFFCURVE",
"59 581 OFFCURVE",
"59 352 CURVE SMOOTH",
"59 126 OFFCURVE",
"185 -6 OFFCURVE",
"371 -6 CURVE SMOOTH"
);
},
{
closed = 1;
nodes = (
"208 44 OFFCURVE",
"115 161 OFFCURVE",
"115 353 CURVE SMOOTH",
"115 545 OFFCURVE",
"207 661 OFFCURVE",
"371 661 CURVE SMOOTH",
"538 661 OFFCURVE",
"628 545 OFFCURVE",
"628 353 CURVE SMOOTH",
"628 161 OFFCURVE",
"536 44 OFFCURVE",
"371 44 CURVE SMOOTH"
);
}
);
};
layerId = "9E718F8A-2CEA-4931-B05D-987794BD97DA";
paths = (
{
closed = 1;
nodes = (
"558 -6 OFFCURVE",
"684 126 OFFCURVE",
"684 353 CURVE SMOOTH",
"684 581 OFFCURVE",
"558 711 OFFCURVE",
"371 711 CURVE SMOOTH",
"185 711 OFFCURVE",
"59 581 OFFCURVE",
"59 352 CURVE SMOOTH",
"59 126 OFFCURVE",
"185 -6 OFFCURVE",
"371 -6 CURVE SMOOTH"
);
},
{
closed = 1;
nodes = (
"208 44 OFFCURVE",
"116 161 OFFCURVE",
"116 353 CURVE SMOOTH",
"116 545 OFFCURVE",
"207 661 OFFCURVE",
"371 661 CURVE SMOOTH",
"538 661 OFFCURVE",
"627 545 OFFCURVE",
"627 353 CURVE SMOOTH",
"627 161 OFFCURVE",
"536 44 OFFCURVE",
"371 44 CURVE SMOOTH"
);
}
);
width = 743;
},
{
anchors = (
{
name = bottom;
position = "{393, 0}";
},
{
name = center;
position = "{393, 353}";
},
{
name = ogonek;
position = "{511, 10}";
},
{
name = top;
position = "{393, 705}";
},
{
name = topleft;
position = "{20, 705}";
},
{
name = topright;
position = "{423, 705}";
}
);
layerId = "E1B555A7-F4E1-459C-9C1A-AE952106EEF9";
paths = (
{
closed = 1;
nodes = (
"602 -7 OFFCURVE",
"738 132 OFFCURVE",
"738 353 CURVE SMOOTH",
"738 573 OFFCURVE",
"602 712 OFFCURVE",
"393 712 CURVE SMOOTH",
"183 712 OFFCURVE",
"47 573 OFFCURVE",
"47 353 CURVE SMOOTH",
"47 132 OFFCURVE",
"183 -7 OFFCURVE",
"393 -7 CURVE SMOOTH"
);
},
{
closed = 1;
nodes = (
"272 118 OFFCURVE",
"208 197 OFFCURVE",
"208 353 CURVE SMOOTH",
"208 509 OFFCURVE",
"272 587 OFFCURVE",
"393 587 CURVE SMOOTH",
"513 587 OFFCURVE",
"578 509 OFFCURVE",
"578 353 CURVE SMOOTH",
"578 197 OFFCURVE",
"514 118 OFFCURVE",
"393 118 CURVE SMOOTH"
);
}
);
width = 785;
}
);
unicode = 004F;
userData = {
anchors = (
);
b = {
};
com.typemytype.robofont.guides = (
);
com.typemytype.robofont.layerData = {
b = {
anchors = (
);
components = (
);
contours = (
);
lib = {
};
name = O;
unicodes = (
);
width = 1597;
};
};
components = (
);
contours = (
);
lib = {
};
name = O;
unicodes = (
);
width = 1604;
};
},
{
color = 3;
glyphname = Oslash;
lastChange = "2016-08-19 20:02:55 +0000";
layers = (
{
anchors = (
{
name = bottom;
position = "{371, 0}";
},
{
name = top;
position = "{371, 705}";
}
);
background = {
paths = (
{
closed = 1;
nodes = (
"732 330 LINE SMOOTH",
"746 330 OFFCURVE",
"755 338 OFFCURVE",
"755 353 CURVE SMOOTH",
"755 368 OFFCURVE",
"746 376 OFFCURVE",
"732 376 CURVE SMOOTH",
"13 376 LINE SMOOTH",
"-1 376 OFFCURVE",
"-12 368 OFFCURVE",
"-12 353 CURVE SMOOTH",
"-12 338 OFFCURVE",
"-1 330 OFFCURVE",
"13 330 CURVE SMOOTH"
);
},
{
closed = 1;
nodes = (
"558 -6 OFFCURVE",
"684 126 OFFCURVE",
"684 353 CURVE SMOOTH",
"684 581 OFFCURVE",
"558 711 OFFCURVE",
"371 711 CURVE SMOOTH",
"185 711 OFFCURVE",
"59 581 OFFCURVE",
"59 352 CURVE SMOOTH",
"59 126 OFFCURVE",
"185 -6 OFFCURVE",
"371 -6 CURVE SMOOTH"
);
},
{
closed = 1;
nodes = (
"208 44 OFFCURVE",
"116 161 OFFCURVE",
"116 353 CURVE SMOOTH",
"116 545 OFFCURVE",
"207 661 OFFCURVE",
"371 661 CURVE SMOOTH",
"538 661 OFFCURVE",
"627 545 OFFCURVE",
"627 353 CURVE SMOOTH",
"627 161 OFFCURVE",
"536 44 OFFCURVE",
"371 44 CURVE SMOOTH"
);
},
{
closed = 1;
nodes = (
"572 654 LINE SMOOTH",
"587 681 OFFCURVE",
"547 704 OFFCURVE",
"532 677 CURVE SMOOTH",
"172 54 LINE SMOOTH",
"155 24 OFFCURVE",
"196 3 OFFCURVE",
"212 31 CURVE SMOOTH"
);
}
);
};
layerId = "9E718F8A-2CEA-4931-B05D-987794BD97DA";
paths = (
{
closed = 1;
nodes = (
"558 -6 OFFCURVE",
"684 126 OFFCURVE",
"684 353 CURVE SMOOTH",
"684 581 OFFCURVE",
"560 711 OFFCURVE",
"371 711 CURVE SMOOTH",
"185 711 OFFCURVE",
"59 581 OFFCURVE",
"59 352 CURVE SMOOTH",
"59 126 OFFCURVE",
"185 -6 OFFCURVE",
"371 -6 CURVE SMOOTH"
);
},
{
closed = 1;
nodes = (
"603 703 LINE SMOOTH",
"619 730 OFFCURVE",
"579 753 OFFCURVE",
"563 726 CURVE SMOOTH",
"141 3 LINE SMOOTH",
"124 -27 OFFCURVE",
"165 -48 OFFCURVE",
"181 -20 CURVE SMOOTH"
);
},
{
closed = 1;
nodes = (
"208 44 OFFCURVE",
"116 161 OFFCURVE",
"116 353 CURVE SMOOTH",
"116 545 OFFCURVE",
"207 661 OFFCURVE",
"371 661 CURVE SMOOTH",
"538 661 OFFCURVE",
"627 545 OFFCURVE",
"627 353 CURVE SMOOTH",
"627 161 OFFCURVE",
"536 44 OFFCURVE",
"371 44 CURVE SMOOTH"
);
}
);
width = 743;
},
{
anchors = (
{
name = bottom;
position = "{393, 0}";
},
{
name = top;
position = "{393, 705}";
}
);
background = {
paths = (
{
closed = 1;
nodes = (
"602 -7 OFFCURVE",
"738 132 OFFCURVE",
"738 353 CURVE SMOOTH",
"738 573 OFFCURVE",
"602 712 OFFCURVE",
"393 712 CURVE SMOOTH",
"183 712 OFFCURVE",
"47 573 OFFCURVE",
"47 353 CURVE SMOOTH",
"47 132 OFFCURVE",
"183 -7 OFFCURVE",
"393 -7 CURVE SMOOTH"
);
},
{
closed = 1;
nodes = (
"271 118 OFFCURVE",
"207 197 OFFCURVE",
"207 353 CURVE SMOOTH",
"207 509 OFFCURVE",
"271 587 OFFCURVE",
"392 587 CURVE SMOOTH",
"512 587 OFFCURVE",
"577 509 OFFCURVE",
"577 353 CURVE SMOOTH",
"577 197 OFFCURVE",
"513 118 OFFCURVE",
"392 118 CURVE SMOOTH"
);
},
{
closed = 1;
nodes = (
"737 294 LINE SMOOTH",
"785 294 OFFCURVE",
"809 318 OFFCURVE",
"809 353 CURVE SMOOTH",
"809 388 OFFCURVE",
"785 412 OFFCURVE",
"737 412 CURVE SMOOTH",
"47 412 LINE SMOOTH",
"-1 412 OFFCURVE",
"-25 388 OFFCURVE",
"-25 353 CURVE SMOOTH",
"-25 318 OFFCURVE",
"-1 294 OFFCURVE",
"47 294 CURVE SMOOTH"
);
},
{
closed = 1;
nodes = (
"616 622 LINE SMOOTH",
"665 707 OFFCURVE",
"562 765 OFFCURVE",
"513 681 CURVE SMOOTH",
"168 84 LINE SMOOTH",
"119 -1 OFFCURVE",
"222 -59 OFFCURVE",
"271 25 CURVE SMOOTH"
);
}
);
};
layerId = "E1B555A7-F4E1-459C-9C1A-AE952106EEF9";
paths = (
{
closed = 1;
nodes = (
"602 -7 OFFCURVE",
"738 132 OFFCURVE",
"738 353 CURVE SMOOTH",
"738 573 OFFCURVE",
"603 712 OFFCURVE",
"393 712 CURVE SMOOTH",
"183 712 OFFCURVE",
"47 573 OFFCURVE",
"47 353 CURVE SMOOTH",
"47 132 OFFCURVE",
"183 -7 OFFCURVE",
"393 -7 CURVE SMOOTH"
);
},
{
closed = 1;
nodes = (
"641 662 LINE SMOOTH",
"690 746 OFFCURVE",
"587 805 OFFCURVE",
"538 721 CURVE SMOOTH",
"144 43 LINE SMOOTH",
"95 -41 OFFCURVE",
"198 -100 OFFCURVE",
"247 -16 CURVE SMOOTH"
);
},
{
closed = 1;
nodes = (
"271 118 OFFCURVE",
"207 197 OFFCURVE",
"207 353 CURVE SMOOTH",
"207 509 OFFCURVE",
"271 587 OFFCURVE",
"392 587 CURVE SMOOTH",
"512 587 OFFCURVE",
"577 509 OFFCURVE",
"577 353 CURVE SMOOTH",
"577 197 OFFCURVE",
"513 118 OFFCURVE",
"392 118 CURVE SMOOTH"
);
}
);
width = 785;
}
);
leftMetricsKey = O;
rightMetricsKey = O;
unicode = 00D8;
userData = {
com.typemytype.robofont.layerData = {
b = {
anchors = (
);
components = (
);
contours = (
);
lib = {
};
name = Oslash;
unicodes = (
);
width = 1597;
};
};
};
},
{
glyphname = OE;
lastChange = "2016-08-19 20:03:02 +0000";
layers = (
{
anchors = (
{
name = bottom;
position = "{526, 0}";
},
{
name = top;
position = "{526, 705}";
}
);
layerId = "9E718F8A-2CEA-4931-B05D-987794BD97DA";
paths = (
{
closed = 1;
nodes = (
"967 0 LINE SMOOTH",
"981 0 OFFCURVE",
"991 10 OFFCURVE",
"991 25 CURVE SMOOTH",
"991 41 OFFCURVE",
"981 50 OFFCURVE",
"967 50 CURVE SMOOTH",
"608 50 LINE",
"608 333 LINE",
"947 333 LINE SMOOTH",
"961 333 OFFCURVE",
"971 343 OFFCURVE",
"971 358 CURVE SMOOTH",
"971 373 OFFCURVE",
"961 383 OFFCURVE",
"947 383 CURVE SMOOTH",
"608 383 LINE",
"608 655 LINE",
"967 655 LINE SMOOTH",
"981 655 OFFCURVE",
"991 664 OFFCURVE",
"991 680 CURVE SMOOTH",
"991 695 OFFCURVE",
"981 705 OFFCURVE",
"966 705 CURVE SMOOTH",
"406 705 LINE SMOOTH",
"185 705 OFFCURVE",
"59 581 OFFCURVE",
"59 353 CURVE SMOOTH",
"59 126 OFFCURVE",
"185 0 OFFCURVE",
"406 0 CURVE SMOOTH"
);
},
{
closed = 1;
nodes = (
"205 50 OFFCURVE",
"116 162 OFFCURVE",
"116 353 CURVE SMOOTH",
"116 545 OFFCURVE",
"205 655 OFFCURVE",
"409 655 CURVE SMOOTH",
"555 655 LINE",
"555 50 LINE",
"409 50 LINE SMOOTH"
);
}
);
width = 1051;
},
{
anchors = (
{
name = bottom;
position = "{527, 0}";
},
{
name = top;
position = "{527, 705}";
}
);
layerId = "E1B555A7-F4E1-459C-9C1A-AE952106EEF9";
paths = (
{
closed = 1;
nodes = (
"945 0 LINE SMOOTH",
"997 0 OFFCURVE",
"1021 23 OFFCURVE",
"1021 61 CURVE SMOOTH",
"1021 100 OFFCURVE",
"997 123 OFFCURVE",
"945 123 CURVE SMOOTH",
"673 123 LINE",
"673 295 LINE",
"925 295 LINE SMOOTH",
"977 295 OFFCURVE",
"1001 318 OFFCURVE",
"1001 356 CURVE SMOOTH",
"1001 395 OFFCURVE",
"977 418 OFFCURVE",
"925 418 CURVE SMOOTH",
"673 418 LINE",
"673 582 LINE",
"945 582 LINE SMOOTH",
"997 582 OFFCURVE",
"1021 605 OFFCURVE",
"1021 644 CURVE SMOOTH",
"1021 682 OFFCURVE",
"997 705 OFFCURVE",
"946 705 CURVE SMOOTH",
"418 705 LINE SMOOTH",
"183 705 OFFCURVE",
"47 573 OFFCURVE",
"47 353 CURVE SMOOTH",
"47 132 OFFCURVE",
"183 0 OFFCURVE",
"418 0 CURVE SMOOTH"
);
},
{
closed = 1;
nodes = (
"288 127 OFFCURVE",
"208 195 OFFCURVE",
"208 353 CURVE SMOOTH",
"208 510 OFFCURVE",
"288 578 OFFCURVE",
"429 578 CURVE SMOOTH",
"516 578 LINE",
"516 127 LINE",
"429 127 LINE SMOOTH"
);
}
);
width = 1054;
}
);
leftMetricsKey = O;
rightMetricsKey = E;
unicode = 0152;
},
{
glyphname = P;
lastChange = "2016-08-19 20:03:14 +0000";
layers = (
{
anchors = (
{
name = bottom;
position = "{312, 0}";
},
{
name = top;
position = "{312, 705}";
}
);
layerId = "9E718F8A-2CEA-4931-B05D-987794BD97DA";
paths = (
{
closed = 1;
nodes = (
"132 -5 OFFCURVE",
"141 7 OFFCURVE",
"141 24 CURVE SMOOTH",
"141 299 LINE",
"349 299 LINE SMOOTH",
"479 299 OFFCURVE",
"579 368 OFFCURVE",
"579 503 CURVE SMOOTH",
"579 639 OFFCURVE",
"485 705 OFFCURVE",
"349 705 CURVE SMOOTH",
"117 705 LINE SMOOTH",
"100 705 OFFCURVE",
"87 693 OFFCURVE",
"87 677 CURVE SMOOTH",
"87 24 LINE SMOOTH",
"87 7 OFFCURVE",
"97 -5 OFFCURVE",
"114 -5 CURVE SMOOTH"
);
},
{
closed = 1;
nodes = (
"142 655 LINE",
"346 655 LINE SMOOTH",
"454 655 OFFCURVE",
"523 613 OFFCURVE",
"523 503 CURVE SMOOTH",
"523 395 OFFCURVE",
"454 349 OFFCURVE",
"346 349 CURVE SMOOTH",
"142 349 LINE"
);
}
);
width = 624;
},
{
anchors = (
{
name = bottom;
position = "{337, 0}";
},
{
name = top;
position = "{337, 705}";
}
);
layerId = "E1B555A7-F4E1-459C-9C1A-AE952106EEF9";
paths = (
{
closed = 1;
nodes = (
"193 -6 OFFCURVE",
"229 20 OFFCURVE",
"229 74 CURVE SMOOTH",
"229 263 LINE",
"397 263 LINE SMOOTH",
"554 263 OFFCURVE",
"639 352 OFFCURVE",
"639 484 CURVE SMOOTH",
"639 617 OFFCURVE",
"555 705 OFFCURVE",
"397 705 CURVE SMOOTH",
"143 705 LINE SMOOTH",
"95 705 OFFCURVE",
"68 678 OFFCURVE",
"68 630 CURVE SMOOTH",
"68 74 LINE SMOOTH",
"68 20 OFFCURVE",
"104 -6 OFFCURVE",
"148 -6 CURVE SMOOTH"
);
},
{
closed = 1;
nodes = (
"227 582 LINE",
"369 582 LINE SMOOTH",
"445 582 OFFCURVE",
"486 553 OFFCURVE",
"486 483 CURVE SMOOTH",
"486 414 OFFCURVE",
"445 385 OFFCURVE",
"369 385 CURVE SMOOTH",
"227 385 LINE"
);
}
);
width = 673;
}
);
leftMetricsKey = H;
unicode = 0050;
userData = {
anchors = (
);
b = {
};
com.typemytype.robofont.layerData = {
b = {
anchors = (
);
components = (
);
contours = (
{
points = (
{
segmentType = curve;
smooth = 1;
x = 266;
y = 0;
},
{
segmentType = line;
smooth = 1;
x = 1035;
y = 0;
},
{
smooth = 0;
x = 1084;
y = 0;
},
{
smooth = 0;
x = 1108;
y = 34;
},
{
segmentType = curve;
smooth = 1;
x = 1108;
y = 71;
},
{
smooth = 0;
x = 1108;
y = 107;
},
{
smooth = 0;
x = 1084;
y = 141;
},
{
segmentType = curve;
smooth = 1;
x = 1035;
y = 141;
},
{
segmentType = line;
smooth = 0;
x = 356;
y = 141;
},
{
segmentType = line;
smooth = 0;
x = 356;
y = 665;
},
{
segmentType = line;
smooth = 1;
x = 975;
y = 665;
},
{
smooth = 0;
x = 1024;
y = 665;
},
{
smooth = 0;
x = 1049;
y = 698;
},
{
segmentType = curve;
smooth = 1;
x = 1049;
y = 734;
},
{
smooth = 0;
x = 1049;
y = 770;
},
{
smooth = 0;
x = 1026;
y = 803;
},
{
segmentType = curve;
smooth = 1;
x = 975;
y = 803;
},
{
segmentType = line;
smooth = 0;
x = 356;
y = 803;
},
{
segmentType = line;
smooth = 0;
x = 356;
y = 1285;
},
{
segmentType = line;
smooth = 1;
x = 1007;
y = 1285;
},
{
smooth = 0;
x = 1056;
y = 1285;
},
{
smooth = 0;
x = 1080;
y = 1319;
},
{
segmentType = curve;
smooth = 1;
x = 1080;
y = 1356;
},
{
smooth = 0;
x = 1080;
y = 1392;
},
{
smooth = 0;
x = 1056;
y = 1426;
},
{
segmentType = curve;
smooth = 1;
x = 1007;
y = 1426;
},
{
segmentType = line;
smooth = 1;
x = 261;
y = 1426;
},
{
smooth = 0;
x = 213;
y = 1426;
},
{
smooth = 0;
x = 178;
y = 1383;
},
{
segmentType = curve;
smooth = 1;
x = 178;
y = 1340;
},
{
segmentType = line;
smooth = 1;
x = 178;
y = 86;
},
{
smooth = 0;
x = 178;
y = 41;
},
{
smooth = 0;
x = 222;
y = 0;
}
);
}
);
lib = {
};
name = P;
unicodes = (
);
width = 1201;
};
};
components = (
);
contours = (
);
lib = {
};
name = P;
unicodes = (
);
width = 1319;
};
},
{
glyphname = Thorn;
lastChange = "2016-08-19 20:03:19 +0000";
layers = (
{
anchors = (
{
name = bottom;
position = "{312, 0}";
},
{
name = top;
position = "{312, 705}";
}
);
layerId = "9E718F8A-2CEA-4931-B05D-987794BD97DA";
paths = (
{
closed = 1;
nodes = (
"349 172 LINE SMOOTH",
"479 172 OFFCURVE",
"579 237 OFFCURVE",
"579 360 CURVE SMOOTH",
"579 483 OFFCURVE",
"485 545 OFFCURVE",
"349 545 CURVE SMOOTH",
"130 545 LINE",
"130 495 LINE",
"346 495 LINE SMOOTH",
"453 495 OFFCURVE",
"523 458 OFFCURVE",
"523 360 CURVE SMOOTH",
"523 263 OFFCURVE",
"453 222 OFFCURVE",
"346 222 CURVE SMOOTH",
"130 222 LINE",
"130 172 LINE"
);
},
{
closed = 1;
nodes = (
"131 -5 OFFCURVE",
"141 7 OFFCURVE",
"141 24 CURVE SMOOTH",
"141 681 LINE SMOOTH",
"141 698 OFFCURVE",
"131 710 OFFCURVE",
"114 710 CURVE SMOOTH",
"97 710 OFFCURVE",
"87 698 OFFCURVE",
"87 681 CURVE SMOOTH",
"87 24 LINE SMOOTH",
"87 7 OFFCURVE",
"97 -5 OFFCURVE",
"114 -5 CURVE SMOOTH"
);
}
);
width = 624;
},
{
anchors = (
{
name = bottom;
position = "{337, 0}";
},
{
name = top;
position = "{337, 705}";
}
);
layerId = "E1B555A7-F4E1-459C-9C1A-AE952106EEF9";
paths = (
{
closed = 1;
nodes = (
"396 152 LINE SMOOTH",
"555 152 OFFCURVE",
"639 236 OFFCURVE",
"639 358 CURVE SMOOTH",
"639 481 OFFCURVE",
"556 564 OFFCURVE",
"396 564 CURVE SMOOTH",
"206 564 LINE",
"206 441 LINE",
"369 441 LINE SMOOTH",
"450 441 OFFCURVE",
"486 417 OFFCURVE",
"486 358 CURVE SMOOTH",
"486 299 OFFCURVE",
"450 275 OFFCURVE",
"369 275 CURVE SMOOTH",
"206 275 LINE",
"206 152 LINE"
);
},
{
closed = 1;
nodes = (
"189 -6 OFFCURVE",
"226 20 OFFCURVE",
"226 74 CURVE SMOOTH",
"226 631 LINE SMOOTH",
"226 684 OFFCURVE",
"189 710 OFFCURVE",
"147 710 CURVE SMOOTH",
"104 710 OFFCURVE",
"68 684 OFFCURVE",
"68 631 CURVE SMOOTH",
"68 74 LINE SMOOTH",
"68 20 OFFCURVE",
"104 -6 OFFCURVE",
"147 -6 CURVE SMOOTH"
);
}
);
width = 673;
}
);
leftMetricsKey = H;
unicode = 00DE;
},
{
glyphname = Q;
lastChange = "2016-08-22 11:13:39 +0000";
layers = (
{
anchors = (
{
name = bottom;
position = "{371, 0}";
},
{
name = top;
position = "{371, 705}";
}
);
background = {
paths = (
{
closed = 1;
nodes = (
"573 -202 OFFCURVE",
"620 -181 OFFCURVE",
"601 -149 CURVE SMOOTH",
"549 -62 LINE SMOOTH",
"518 -11 OFFCURVE",
"493 17 OFFCURVE",
"420 17 CURVE",
"371 -6 LINE",
"441 -6 OFFCURVE",
"475 -40 OFFCURVE",
"493 -69 CURVE SMOOTH",
"550 -163 LINE SMOOTH"
);
},
{
closed = 1;
nodes = (
"558 -6 OFFCURVE",
"684 126 OFFCURVE",
"684 353 CURVE SMOOTH",
"684 581 OFFCURVE",
"558 711 OFFCURVE",
"371 711 CURVE SMOOTH",
"185 711 OFFCURVE",
"59 581 OFFCURVE",
"59 352 CURVE SMOOTH",
"59 126 OFFCURVE",
"185 -6 OFFCURVE",
"371 -6 CURVE SMOOTH"
);
},
{
closed = 1;
nodes = (
"208 44 OFFCURVE",
"116 161 OFFCURVE",
"116 353 CURVE SMOOTH",
"116 545 OFFCURVE",
"207 661 OFFCURVE",
"371 661 CURVE SMOOTH",
"538 661 OFFCURVE",
"627 545 OFFCURVE",
"627 353 CURVE SMOOTH",
"627 161 OFFCURVE",
"536 44 OFFCURVE",
"371 44 CURVE SMOOTH"
);
}
);
};
layerId = "9E718F8A-2CEA-4931-B05D-987794BD97DA";
paths = (
{
closed = 1;
nodes = (
"573 -202 OFFCURVE",
"620 -181 OFFCURVE",
"601 -149 CURVE SMOOTH",
"549 -62 LINE SMOOTH",
"518 -11 OFFCURVE",
"493 17 OFFCURVE",
"420 17 CURVE",
"448 2 LINE",
"590 33 OFFCURVE",
"684 158 OFFCURVE",
"684 353 CURVE SMOOTH",
"684 581 OFFCURVE",
"558 711 OFFCURVE",
"371 711 CURVE SMOOTH",
"185 711 OFFCURVE",
"59 581 OFFCURVE",
"59 352 CURVE SMOOTH",
"59 126 OFFCURVE",
"185 -6 OFFCURVE",
"371 -6 CURVE SMOOTH",
"441 -6 OFFCURVE",
"475 -40 OFFCURVE",
"493 -69 CURVE SMOOTH",
"550 -163 LINE SMOOTH"
);
},
{
closed = 1;
nodes = (
"208 44 OFFCURVE",
"116 161 OFFCURVE",
"116 353 CURVE SMOOTH",
"116 545 OFFCURVE",
"207 661 OFFCURVE",
"371 661 CURVE SMOOTH",
"538 661 OFFCURVE",
"627 545 OFFCURVE",
"627 353 CURVE SMOOTH",
"627 161 OFFCURVE",
"536 44 OFFCURVE",
"371 44 CURVE SMOOTH"
);
}
);
width = 743;
},
{
anchors = (
{
name = bottom;
position = "{393, 0}";
},
{
name = top;
position = "{393, 705}";
}
);
background = {
paths = (
{
closed = 1;
nodes = (
"586 -228 OFFCURVE",
"731 -173 OFFCURVE",
"671 -76 CURVE SMOOTH",
"644 -32 LINE SMOOTH",
"613 19 OFFCURVE",
"569 39 OFFCURVE",
"504 39 CURVE",
"393 -7 LINE",
"439 -7 OFFCURVE",
"462 -21 OFFCURVE",
"477 -46 CURVE SMOOTH",
"537 -146 LINE SMOOTH"
);
},
{
closed = 1;
nodes = (
"602 -7 OFFCURVE",
"738 132 OFFCURVE",
"738 353 CURVE SMOOTH",
"738 573 OFFCURVE",
"602 712 OFFCURVE",
"393 712 CURVE SMOOTH",
"183 712 OFFCURVE",
"47 573 OFFCURVE",
"47 353 CURVE SMOOTH",
"47 132 OFFCURVE",
"183 -7 OFFCURVE",
"393 -7 CURVE SMOOTH"
);
},
{
closed = 1;
nodes = (
"272 118 OFFCURVE",
"208 197 OFFCURVE",
"208 353 CURVE SMOOTH",
"208 509 OFFCURVE",
"272 587 OFFCURVE",
"393 587 CURVE SMOOTH",
"513 587 OFFCURVE",
"578 509 OFFCURVE",
"578 353 CURVE SMOOTH",
"578 197 OFFCURVE",
"514 118 OFFCURVE",
"393 118 CURVE SMOOTH"
);
}
);
};
layerId = "E1B555A7-F4E1-459C-9C1A-AE952106EEF9";
paths = (
{
closed = 1;
nodes = (
"586 -228 OFFCURVE",
"731 -173 OFFCURVE",
"671 -76 CURVE SMOOTH",
"644 -32 LINE SMOOTH",
"613 19 OFFCURVE",
"569 39 OFFCURVE",
"504 39 CURVE",
"530 16 LINE",
"663 67 OFFCURVE",
"738 188 OFFCURVE",
"738 353 CURVE SMOOTH",
"738 573 OFFCURVE",
"602 712 OFFCURVE",
"393 712 CURVE SMOOTH",
"183 712 OFFCURVE",
"47 573 OFFCURVE",
"47 353 CURVE SMOOTH",
"47 132 OFFCURVE",
"183 -7 OFFCURVE",
"393 -7 CURVE SMOOTH",
"439 -7 OFFCURVE",
"462 -21 OFFCURVE",
"477 -46 CURVE SMOOTH",
"537 -146 LINE SMOOTH"
);
},
{
closed = 1;
nodes = (
"272 118 OFFCURVE",
"208 197 OFFCURVE",
"208 353 CURVE SMOOTH",
"208 509 OFFCURVE",
"272 587 OFFCURVE",
"393 587 CURVE SMOOTH",
"513 587 OFFCURVE",
"578 509 OFFCURVE",
"578 353 CURVE SMOOTH",
"578 197 OFFCURVE",
"514 118 OFFCURVE",
"393 118 CURVE SMOOTH"
);
}
);
width = 785;
}
);
leftMetricsKey = O;
widthMetricsKey = O;
unicode = 0051;
userData = {
anchors = (
);
b = {
};
com.typemytype.robofont.layerData = {
b = {
anchors = (
);
components = (
);
contours = (
);
lib = {
};
name = Q;
unicodes = (
);
width = 1597;
};
};
components = (
);
contours = (
);
lib = {
};
name = Q;
unicodes = (
);
width = 1604;
};
},
{
glyphname = R;
lastChange = "2016-08-19 20:04:53 +0000";
layers = (
{
anchors = (
{
name = bottom;
position = "{330, 0}";
},
{
name = top;
position = "{330, 705}";
}
);
layerId = "9E718F8A-2CEA-4931-B05D-987794BD97DA";
paths = (
{
closed = 1;
nodes = (
"131 -5 OFFCURVE",
"141 7 OFFCURVE",
"141 24 CURVE SMOOTH",
"141 308 LINE",
"283 308 LINE SMOOTH",
"357 308 OFFCURVE",
"392 289 OFFCURVE",
"431 226 CURVE SMOOTH",
"562 15 LINE SMOOTH",
"586 -23 OFFCURVE",
"634 -3 OFFCURVE",
"614 29 CURVE SMOOTH",
"484 238 LINE SMOOTH",
"448 296 OFFCURVE",
"414 323 OFFCURVE",
"348 323 CURVE",
"365 313 LINE",
"496 313 OFFCURVE",
"595 372 OFFCURVE",
"595 508 CURVE SMOOTH",
"595 643 OFFCURVE",
"500 705 OFFCURVE",
"365 705 CURVE SMOOTH",
"117 705 LINE SMOOTH",
"100 705 OFFCURVE",
"87 693 OFFCURVE",
"87 677 CURVE SMOOTH",
"87 24 LINE SMOOTH",
"87 7 OFFCURVE",
"97 -5 OFFCURVE",
"114 -5 CURVE SMOOTH"
);
},
{
closed = 1;
nodes = (
"141 655 LINE",
"363 655 LINE SMOOTH",
"470 655 OFFCURVE",
"539 619 OFFCURVE",
"539 509 CURVE SMOOTH",
"539 398 OFFCURVE",
"470 358 OFFCURVE",
"363 358 CURVE SMOOTH",
"141 358 LINE"
);
}
);
width = 660;
},
{
anchors = (
{
name = bottom;
position = "{353, 0}";
},
{
name = top;
position = "{353, 705}";
}
);
layerId = "E1B555A7-F4E1-459C-9C1A-AE952106EEF9";
paths = (
{
closed = 1;
nodes = (
"192 -6 OFFCURVE",
"227 20 OFFCURVE",
"227 74 CURVE SMOOTH",
"227 271 LINE",
"303 271 LINE SMOOTH",
"342 271 OFFCURVE",
"364 256 OFFCURVE",
"384 225 CURVE SMOOTH",
"515 30 LINE SMOOTH",
"571 -54 OFFCURVE",
"710 13 OFFCURVE",
"649 102 CURVE SMOOTH",
"575 212 LINE SMOOTH",
"534 272 OFFCURVE",
"495 290 OFFCURVE",
"426 290 CURVE",
"407 278 LINE",
"553 278 OFFCURVE",
"646 360 OFFCURVE",
"646 492 CURVE SMOOTH",
"646 627 OFFCURVE",
"564 705 OFFCURVE",
"404 705 CURVE SMOOTH",
"143 705 LINE SMOOTH",
"95 705 OFFCURVE",
"68 678 OFFCURVE",
"68 630 CURVE SMOOTH",
"68 74 LINE SMOOTH",
"68 20 OFFCURVE",
"103 -6 OFFCURVE",
"148 -6 CURVE SMOOTH"
);
},
{
closed = 1;
nodes = (
"225 582 LINE",
"375 582 LINE SMOOTH",
"456 582 OFFCURVE",
"493 556 OFFCURVE",
"493 489 CURVE SMOOTH",
"493 422 OFFCURVE",
"456 395 OFFCURVE",
"375 395 CURVE SMOOTH",
"225 395 LINE"
);
}
);
width = 705;
}
);
leftMetricsKey = H;
unicode = 0052;
userData = {
anchors = (
);
b = {
};
com.typemytype.robofont.guides = (
);
com.typemytype.robofont.layerData = {
b = {
anchors = (
);
components = (
);
contours = (
{
points = (
{
segmentType = curve;
smooth = 1;
x = 267;
y = 0;
},
{
smooth = 0;
x = 311;
y = 0;
},
{
smooth = 0;
x = 356;
y = 27;
},
{
segmentType = curve;
smooth = 1;
x = 356;
y = 84;
},
{
segmentType = line;
smooth = 0;
x = 356;
y = 628;
},
{
segmentType = line;
smooth = 1;
x = 669;
y = 628;
},
{
smooth = 0;
x = 962;
y = 628;
},
{
smooth = 0;
x = 1182;
y = 722;
},
{
segmentType = curve;
smooth = 1;
x = 1182;
y = 1026;
},
{
smooth = 0;
x = 1182;
y = 1324;
},
{
smooth = 0;
x = 993;
y = 1426;
},
{
segmentType = curve;
smooth = 1;
x = 684;
y = 1426;
},
{
segmentType = line;
smooth = 1;
x = 268;
y = 1426;
},
{
smooth = 0;
x = 217;
y = 1426;
},
{
smooth = 0;
x = 178;
y = 1387;
},
{
segmentType = curve;
smooth = 1;
x = 178;
y = 1339;
},
{
segmentType = line;
smooth = 1;
x = 178;
y = 84;
},
{
smooth = 0;
x = 178;
y = 28;
},
{
smooth = 0;
x = 222;
y = 0;
}
);
},
{
points = (
{
segmentType = line;
smooth = 0;
x = 356;
y = 764;
},
{
segmentType = line;
smooth = 0;
x = 356;
y = 1285;
},
{
segmentType = line;
smooth = 1;
x = 684;
y = 1285;
},
{
smooth = 0;
x = 914;
y = 1285;
},
{
smooth = 0;
x = 1008;
y = 1210;
},
{
segmentType = curve;
smooth = 1;
x = 1008;
y = 1026;
},
{
smooth = 0;
x = 1008;
y = 838;
},
{
smooth = 0;
x = 901;
y = 764;
},
{
segmentType = curve;
smooth = 1;
x = 670;
y = 764;
}
);
}
);
lib = {
};
name = R;
unicodes = (
);
width = 1363;
};
};
components = (
);
contours = (
);
lib = {
};
name = R;
unicodes = (
);
width = 1408;
};
},
{
glyphname = S;
lastChange = "2016-08-19 20:05:20 +0000";
layers = (
{
anchors = (
{
name = bottom;
position = "{299, 0}";
},
{
name = top;
position = "{302, 705}";
}
);
layerId = "9E718F8A-2CEA-4931-B05D-987794BD97DA";
paths = (
{
closed = 1;
nodes = (
"456 -6 OFFCURVE",
"548 79 OFFCURVE",
"548 185 CURVE SMOOTH",
"548 430 OFFCURVE",
"110 307 OFFCURVE",
"110 515 CURVE SMOOTH",
"110 613 OFFCURVE",
"189 661 OFFCURVE",
"302 661 CURVE SMOOTH",
"392 661 OFFCURVE",
"442 633 OFFCURVE",
"505 583 CURVE SMOOTH",
"514 577 OFFCURVE",
"520 574 OFFCURVE",
"526 574 CURVE SMOOTH",
"536 574 OFFCURVE",
"545 585 OFFCURVE",
"545 598 CURVE SMOOTH",
"545 608 OFFCURVE",
"541 616 OFFCURVE",
"533 625 CURVE SMOOTH",
"476 683 OFFCURVE",
"388 711 OFFCURVE",
"302 711 CURVE SMOOTH",
"137 711 OFFCURVE",
"54 618 OFFCURVE",
"54 515 CURVE SMOOTH",
"54 257 OFFCURVE",
"492 373 OFFCURVE",
"492 186 CURVE SMOOTH",
"492 92 OFFCURVE",
"418 44 OFFCURVE",
"299 44 CURVE SMOOTH",
"211 44 OFFCURVE",
"139 72 OFFCURVE",
"77 122 CURVE SMOOTH",
"69 128 OFFCURVE",
"62 131 OFFCURVE",
"56 131 CURVE SMOOTH",
"45 131 OFFCURVE",
"38 120 OFFCURVE",
"38 107 CURVE SMOOTH",
"38 98 OFFCURVE",
"42 89 OFFCURVE",
"49 80 CURVE SMOOTH",
"107 22 OFFCURVE",
"214 -6 OFFCURVE",
"299 -6 CURVE SMOOTH"
);
}
);
width = 588;
},
{
anchors = (
{
name = bottom;
position = "{320, 0}";
},
{
name = top;
position = "{332, 705}";
}
);
layerId = "E1B555A7-F4E1-459C-9C1A-AE952106EEF9";
paths = (
{
closed = 1;
nodes = (
"483 -7 OFFCURVE",
"607 71 OFFCURVE",
"607 207 CURVE SMOOTH",
"607 462 OFFCURVE",
"208 369 OFFCURVE",
"208 503 CURVE SMOOTH",
"208 551 OFFCURVE",
"250 587 OFFCURVE",
"333 587 CURVE SMOOTH",
"413 587 OFFCURVE",
"455 561 OFFCURVE",
"494 537 CURVE SMOOTH",
"511 527 OFFCURVE",
"523 520 OFFCURVE",
"543 520 CURVE SMOOTH",
"576 520 OFFCURVE",
"595 556 OFFCURVE",
"595 585 CURVE SMOOTH",
"595 608 OFFCURVE",
"588 625 OFFCURVE",
"566 641 CURVE SMOOTH",
"509 685 OFFCURVE",
"436 712 OFFCURVE",
"332 712 CURVE SMOOTH",
"152 712 OFFCURVE",
"48 609 OFFCURVE",
"48 493 CURVE SMOOTH",
"48 241 OFFCURVE",
"447 323 OFFCURVE",
"447 200 CURVE SMOOTH",
"447 151 OFFCURVE",
"410 118 OFFCURVE",
"316 118 CURVE SMOOTH",
"231 118 OFFCURVE",
"179 140 OFFCURVE",
"134 168 CURVE SMOOTH",
"117 178 OFFCURVE",
"104 185 OFFCURVE",
"85 185 CURVE SMOOTH",
"52 185 OFFCURVE",
"33 149 OFFCURVE",
"33 120 CURVE SMOOTH",
"33 97 OFFCURVE",
"39 80 OFFCURVE",
"62 64 CURVE SMOOTH",
"113 24 OFFCURVE",
"203 -7 OFFCURVE",
"320 -7 CURVE SMOOTH"
);
}
);
width = 650;
}
);
unicode = 0053;
userData = {
anchors = (
);
b = {
};
com.typemytype.robofont.layerData = {
b = {
anchors = (
);
components = (
);
contours = (
);
lib = {
};
name = S;
unicodes = (
);
width = 1274;
};
};
components = (
);
contours = (
);
lib = {
};
name = S;
unicodes = (
);
width = 1317;
};
},
{
color = 3;
glyphname = Germandbls;
lastChange = "2016-08-19 11:56:26 +0000";
layers = (
{
background = {
paths = (
{
closed = 1;
nodes = (
"200 710 OFFCURVE",
"87 636 OFFCURVE",
"87 434 CURVE SMOOTH",
"87 23 LINE SMOOTH",
"87 6 OFFCURVE",
"97 -6 OFFCURVE",
"114 -6 CURVE SMOOTH",
"131 -6 OFFCURVE",
"141 6 OFFCURVE",
"141 23 CURVE SMOOTH",
"141 441 LINE SMOOTH",
"141 599 OFFCURVE",
"227 660 OFFCURVE",
"358 660 CURVE SMOOTH",
"488 660 OFFCURVE",
"575 599 OFFCURVE",
"575 441 CURVE SMOOTH",
"575 23 LINE SMOOTH",
"575 6 OFFCURVE",
"587 -6 OFFCURVE",
"602 -6 CURVE SMOOTH",
"619 -6 OFFCURVE",
"629 6 OFFCURVE",
"629 23 CURVE SMOOTH",
"629 434 LINE SMOOTH",
"629 636 OFFCURVE",
"515 710 OFFCURVE",
"358 710 CURVE SMOOTH"
);
}
);
};
layerId = "9E718F8A-2CEA-4931-B05D-987794BD97DA";
paths = (
{
closed = 1;
nodes = (
"131 -6 OFFCURVE",
"141 6 OFFCURVE",
"141 23 CURVE SMOOTH",
"141 455 LINE SMOOTH",
"141 605 OFFCURVE",
"213 660 OFFCURVE",
"340 660 CURVE SMOOTH",
"448 660 OFFCURVE",
"505 607 OFFCURVE",
"505 526 CURVE SMOOTH",
"505 426 OFFCURVE",
"433 383 OFFCURVE",
"337 383 CURVE SMOOTH",
"258 383 LINE SMOOTH",
"221 383 OFFCURVE",
"221 333 OFFCURVE",
"258 333 CURVE SMOOTH",
"372 333 LINE SMOOTH",
"479 333 OFFCURVE",
"551 293 OFFCURVE",
"551 193 CURVE SMOOTH",
"551 104 OFFCURVE",
"493 45 OFFCURVE",
"389 45 CURVE SMOOTH",
"289 45 OFFCURVE",
"250 103 OFFCURVE",
"227 103 CURVE SMOOTH",
"216 103 OFFCURVE",
"207 93 OFFCURVE",
"207 81 CURVE SMOOTH",
"207 66 OFFCURVE",
"215 57 OFFCURVE",
"241 38 CURVE SMOOTH",
"277 12 OFFCURVE",
"332 -5 OFFCURVE",
"392 -5 CURVE SMOOTH",
"522 -5 OFFCURVE",
"607 76 OFFCURVE",
"607 193 CURVE SMOOTH",
"607 291 OFFCURVE",
"547 354 OFFCURVE",
"444 370 CURVE",
"435 359 LINE",
"505 376 OFFCURVE",
"561 430 OFFCURVE",
"561 526 CURVE SMOOTH",
"561 636 OFFCURVE",
"480 710 OFFCURVE",
"340 710 CURVE SMOOTH",
"174 710 OFFCURVE",
"87 630 OFFCURVE",
"87 462 CURVE SMOOTH",
"87 23 LINE SMOOTH",
"87 6 OFFCURVE",
"97 -6 OFFCURVE",
"114 -6 CURVE SMOOTH"
);
}
);
width = 675;
},
{
background = {
paths = (
{
closed = 1;
nodes = (
"511 358 LINE",
"585 380 OFFCURVE",
"635 438 OFFCURVE",
"635 522 CURVE SMOOTH",
"635 627 OFFCURVE",
"540 710 OFFCURVE",
"373 710 CURVE SMOOTH",
"180 710 OFFCURVE",
"68 613 OFFCURVE",
"68 429 CURVE SMOOTH",
"68 72 LINE SMOOTH",
"68 24 OFFCURVE",
"99 -7 OFFCURVE",
"147 -7 CURVE SMOOTH",
"189 -7 OFFCURVE",
"226 19 OFFCURVE",
"226 72 CURVE SMOOTH",
"226 436 LINE SMOOTH",
"226 538 OFFCURVE",
"278 585 OFFCURVE",
"369 585 CURVE SMOOTH",
"439 585 OFFCURVE",
"482 556 OFFCURVE",
"482 500 CURVE SMOOTH",
"482 445 OFFCURVE",
"445 419 OFFCURVE",
"364 419 CURVE SMOOTH",
"337 419 LINE SMOOTH",
"259 419 OFFCURVE",
"259 294 OFFCURVE",
"337 294 CURVE SMOOTH",
"382 294 LINE SMOOTH",
"464 294 OFFCURVE",
"501 269 OFFCURVE",
"501 202 CURVE SMOOTH",
"501 157 OFFCURVE",
"481 113 OFFCURVE",
"425 113 CURVE SMOOTH",
"372 113 OFFCURVE",
"343 153 OFFCURVE",
"300 153 CURVE SMOOTH",
"269 153 OFFCURVE",
"254 123 OFFCURVE",
"254 92 CURVE SMOOTH",
"254 66 OFFCURVE",
"266 48 OFFCURVE",
"285 36 CURVE SMOOTH",
"330 7 OFFCURVE",
"380 -6 OFFCURVE",
"436 -6 CURVE SMOOTH",
"582 -6 OFFCURVE",
"653 100 OFFCURVE",
"653 197 CURVE SMOOTH",
"653 286 OFFCURVE",
"598 347 OFFCURVE",
"511 366 CURVE"
);
}
);
};
layerId = "E1B555A7-F4E1-459C-9C1A-AE952106EEF9";
paths = (
{
closed = 1;
nodes = (
"189 -7 OFFCURVE",
"226 19 OFFCURVE",
"226 72 CURVE SMOOTH",
"226 442 LINE SMOOTH",
"226 538 OFFCURVE",
"278 585 OFFCURVE",
"364 585 CURVE SMOOTH",
"424 585 OFFCURVE",
"472 556 OFFCURVE",
"472 500 CURVE SMOOTH",
"472 445 OFFCURVE",
"435 421 OFFCURVE",
"374 421 CURVE SMOOTH",
"341 421 LINE SMOOTH",
"256 421 OFFCURVE",
"256 292 OFFCURVE",
"341 292 CURVE SMOOTH",
"392 292 LINE SMOOTH",
"484 292 OFFCURVE",
"523 269 OFFCURVE",
"523 202 CURVE SMOOTH",
"523 157 OFFCURVE",
"501 113 OFFCURVE",
"440 113 CURVE SMOOTH",
"382 113 OFFCURVE",
"353 153 OFFCURVE",
"310 153 CURVE SMOOTH",
"279 153 OFFCURVE",
"264 123 OFFCURVE",
"264 92 CURVE SMOOTH",
"264 66 OFFCURVE",
"276 48 OFFCURVE",
"295 36 CURVE SMOOTH",
"340 7 OFFCURVE",
"390 -6 OFFCURVE",
"451 -6 CURVE SMOOTH",
"602 -6 OFFCURVE",
"675 100 OFFCURVE",
"675 197 CURVE SMOOTH",
"675 286 OFFCURVE",
"618 359 OFFCURVE",
"503 372 CURVE",
"503 358 LINE",
"575 380 OFFCURVE",
"622 438 OFFCURVE",
"622 513 CURVE SMOOTH",
"622 631 OFFCURVE",
"525 710 OFFCURVE",
"368 710 CURVE SMOOTH",
"183 710 OFFCURVE",
"68 615 OFFCURVE",
"68 439 CURVE SMOOTH",
"68 72 LINE SMOOTH",
"68 24 OFFCURVE",
"99 -7 OFFCURVE",
"147 -7 CURVE SMOOTH"
);
}
);
width = 718;
}
);
leftMetricsKey = B;
rightMetricsKey = B;
unicode = 1E9E;
},
{
color = 3;
glyphname = Schwa;
lastChange = "2016-08-19 20:05:30 +0000";
layers = (
{
anchors = (
{
name = bottom;
position = "{360, 0}";
},
{
name = top;
position = "{360, 705}";
}
);
background = {
paths = (
{
closed = 1;
nodes = (
"989 333 LINE",
"1516 333 LINE",
"1516 383 LINE",
"959 383 LINE",
"959 352 LINE"
);
},
{
closed = 1;
nodes = (
"1143 711 OFFCURVE",
"1058 679 OFFCURVE",
"998 625 CURVE SMOOTH",
"989 617 OFFCURVE",
"986 607 OFFCURVE",
"986 598 CURVE SMOOTH",
"986 585 OFFCURVE",
"994 574 OFFCURVE",
"1004 574 CURVE SMOOTH",
"1011 574 OFFCURVE",
"1017 577 OFFCURVE",
"1025 583 CURVE SMOOTH",
"1089 631 OFFCURVE",
"1139 662 OFFCURVE",
"1240 662 CURVE SMOOTH",
"1412 662 OFFCURVE",
"1505 544 OFFCURVE",
"1505 353 CURVE SMOOTH",
"1505 161 OFFCURVE",
"1408 44 OFFCURVE",
"1260 44 CURVE SMOOTH",
"1112 44 OFFCURVE",
"1015 161 OFFCURVE",
"1015 353 CURVE",
"959 352 LINE",
"959 126 OFFCURVE",
"1090 -6 OFFCURVE",
"1260 -6 CURVE SMOOTH",
"1430 -6 OFFCURVE",
"1561 126 OFFCURVE",
"1561 353 CURVE SMOOTH",
"1561 579 OFFCURVE",
"1435 711 OFFCURVE",
"1239 711 CURVE SMOOTH"
);
},
{
closed = 1;
nodes = (
"540 -6 OFFCURVE",
"661 126 OFFCURVE",
"661 353 CURVE SMOOTH",
"661 581 OFFCURVE",
"540 711 OFFCURVE",
"360 711 CURVE SMOOTH",
"180 711 OFFCURVE",
"59 581 OFFCURVE",
"59 352 CURVE SMOOTH",
"59 126 OFFCURVE",
"180 -6 OFFCURVE",
"360 -6 CURVE SMOOTH"
);
},
{
closed = 1;
nodes = (
"204 44 OFFCURVE",
"115 161 OFFCURVE",
"115 353 CURVE SMOOTH",
"115 545 OFFCURVE",
"203 661 OFFCURVE",
"360 661 CURVE SMOOTH",
"519 661 OFFCURVE",
"605 545 OFFCURVE",
"605 353 CURVE SMOOTH",
"605 161 OFFCURVE",
"517 44 OFFCURVE",
"360 44 CURVE SMOOTH"
);
}
);
};
layerId = "9E718F8A-2CEA-4931-B05D-987794BD97DA";
paths = (
{
closed = 1;
nodes = (
"540 -6 OFFCURVE",
"661 126 OFFCURVE",
"661 353 CURVE SMOOTH",
"661 579 OFFCURVE",
"535 711 OFFCURVE",
"339 711 CURVE SMOOTH",
"243 711 OFFCURVE",
"158 679 OFFCURVE",
"98 625 CURVE SMOOTH",
"89 617 OFFCURVE",
"86 607 OFFCURVE",
"86 598 CURVE SMOOTH",
"86 585 OFFCURVE",
"94 574 OFFCURVE",
"104 574 CURVE SMOOTH",
"111 574 OFFCURVE",
"117 577 OFFCURVE",
"125 583 CURVE SMOOTH",
"189 631 OFFCURVE",
"239 662 OFFCURVE",
"340 662 CURVE SMOOTH",
"512 662 OFFCURVE",
"605 544 OFFCURVE",
"605 353 CURVE SMOOTH",
"605 161 OFFCURVE",
"517 44 OFFCURVE",
"360 44 CURVE SMOOTH",
"204 44 OFFCURVE",
"115 161 OFFCURVE",
"115 353 CURVE",
"100 333 LINE",
"636 333 LINE",
"636 383 LINE",
"97 383 LINE SMOOTH",
"73 383 OFFCURVE",
"59 370 OFFCURVE",
"59 345 CURVE SMOOTH",
"59 126 OFFCURVE",
"180 -6 OFFCURVE",
"360 -6 CURVE SMOOTH"
);
}
);
width = 720;
},
{
anchors = (
{
name = bottom;
position = "{383, 0}";
},
{
name = top;
position = "{383, 705}";
}
);
background = {
paths = (
{
closed = 1;
nodes = (
"586 -7 OFFCURVE",
"718 132 OFFCURVE",
"718 353 CURVE SMOOTH",
"718 573 OFFCURVE",
"586 712 OFFCURVE",
"383 712 CURVE SMOOTH",
"179 712 OFFCURVE",
"47 573 OFFCURVE",
"47 353 CURVE SMOOTH",
"47 132 OFFCURVE",
"179 -7 OFFCURVE",
"383 -7 CURVE SMOOTH"
);
},
{
closed = 1;
nodes = (
"269 118 OFFCURVE",
"208 197 OFFCURVE",
"208 353 CURVE SMOOTH",
"208 509 OFFCURVE",
"269 587 OFFCURVE",
"383 587 CURVE SMOOTH",
"497 587 OFFCURVE",
"558 509 OFFCURVE",
"558 353 CURVE SMOOTH",
"558 197 OFFCURVE",
"497 118 OFFCURVE",
"383 118 CURVE SMOOTH"
);
}
);
};
layerId = "E1B555A7-F4E1-459C-9C1A-AE952106EEF9";
paths = (
{
closed = 1;
nodes = (
"586 -7 OFFCURVE",
"718 132 OFFCURVE",
"718 353 CURVE SMOOTH",
"718 573 OFFCURVE",
"577 712 OFFCURVE",
"359 712 CURVE SMOOTH",
"263 712 OFFCURVE",
"175 686 OFFCURVE",
"117 641 CURVE SMOOTH",
"95 624 OFFCURVE",
"89 608 OFFCURVE",
"89 585 CURVE SMOOTH",
"89 556 OFFCURVE",
"107 520 OFFCURVE",
"141 520 CURVE SMOOTH",
"160 520 OFFCURVE",
"172 527 OFFCURVE",
"190 537 CURVE SMOOTH",
"229 559 OFFCURVE",
"285 584 OFFCURVE",
"349 584 CURVE SMOOTH",
"483 584 OFFCURVE",
"558 508 OFFCURVE",
"558 353 CURVE SMOOTH",
"558 197 OFFCURVE",
"497 118 OFFCURVE",
"383 118 CURVE SMOOTH",
"269 118 OFFCURVE",
"208 197 OFFCURVE",
"208 353 CURVE",
"167 295 LINE",
"619 295 LINE",
"619 418 LINE",
"111 418 LINE SMOOTH",
"70 418 OFFCURVE",
"47 392 OFFCURVE",
"47 350 CURVE SMOOTH",
"47 132 OFFCURVE",
"179 -7 OFFCURVE",
"383 -7 CURVE SMOOTH"
);
}
);
width = 765;
}
);
leftMetricsKey = O;
rightMetricsKey = O;
unicode = 018F;
},
{
glyphname = T;
lastChange = "2016-08-19 20:05:40 +0000";
layers = (
{
anchors = (
{
name = bottom;
position = "{291, 0}";
},
{
name = center;
position = "{291, 353}";
},
{
name = top;
position = "{291, 705}";
}
);
layerId = "9E718F8A-2CEA-4931-B05D-987794BD97DA";
paths = (
{
closed = 1;
nodes = (
"308 -5 OFFCURVE",
"318 7 OFFCURVE",
"318 24 CURVE SMOOTH",
"318 655 LINE",
"553 655 LINE SMOOTH",
"567 655 OFFCURVE",
"578 665 OFFCURVE",
"578 680 CURVE SMOOTH",
"578 695 OFFCURVE",
"567 705 OFFCURVE",
"553 705 CURVE SMOOTH",
"28 705 LINE SMOOTH",
"14 705 OFFCURVE",
"4 695 OFFCURVE",
"4 680 CURVE SMOOTH",
"4 665 OFFCURVE",
"14 655 OFFCURVE",
"28 655 CURVE SMOOTH",
"264 655 LINE",
"264 24 LINE SMOOTH",
"264 7 OFFCURVE",
"274 -5 OFFCURVE",
"291 -5 CURVE SMOOTH"
);
}
);
width = 582;
},
{
anchors = (
{
name = bottom;
position = "{315, 0}";
},
{
name = center;
position = "{315, 353}";
},
{
name = top;
position = "{315, 705}";
}
);
layerId = "E1B555A7-F4E1-459C-9C1A-AE952106EEF9";
paths = (
{
closed = 1;
nodes = (
"359 -5 OFFCURVE",
"396 21 OFFCURVE",
"396 74 CURVE SMOOTH",
"396 572 LINE",
"554 572 LINE SMOOTH",
"607 572 OFFCURVE",
"630 596 OFFCURVE",
"630 639 CURVE SMOOTH",
"630 681 OFFCURVE",
"607 705 OFFCURVE",
"554 705 CURVE SMOOTH",
"76 705 LINE SMOOTH",
"23 705 OFFCURVE",
"0 681 OFFCURVE",
"0 639 CURVE SMOOTH",
"0 596 OFFCURVE",
"23 572 OFFCURVE",
"76 572 CURVE SMOOTH",
"234 572 LINE",
"234 74 LINE SMOOTH",
"234 21 OFFCURVE",
"271 -5 OFFCURVE",
"315 -5 CURVE SMOOTH"
);
}
);
width = 630;
}
);
unicode = 0054;
userData = {
anchors = (
);
b = {
};
com.typemytype.robofont.layerData = {
b = {
anchors = (
);
components = (
);
contours = (
{
points = (
{
segmentType = curve;
smooth = 1;
x = 581;
y = 0;
},
{
segmentType = line;
smooth = 1;
x = 1350;
y = 0;
},
{
smooth = 0;
x = 1399;
y = 0;
},
{
smooth = 0;
x = 1423;
y = 34;
},
{
segmentType = curve;
smooth = 1;
x = 1423;
y = 71;
},
{
smooth = 0;
x = 1423;
y = 107;
},
{
smooth = 0;
x = 1399;
y = 141;
},
{
segmentType = curve;
smooth = 1;
x = 1350;
y = 141;
},
{
segmentType = line;
smooth = 0;
x = 671;
y = 141;
},
{
segmentType = line;
smooth = 0;
x = 671;
y = 665;
},
{
segmentType = line;
smooth = 1;
x = 1290;
y = 665;
},
{
smooth = 0;
x = 1339;
y = 665;
},
{
smooth = 0;
x = 1364;
y = 698;
},
{
segmentType = curve;
smooth = 1;
x = 1364;
y = 734;
},
{
smooth = 0;
x = 1364;
y = 770;
},
{
smooth = 0;
x = 1341;
y = 803;
},
{
segmentType = curve;
smooth = 1;
x = 1290;
y = 803;
},
{
segmentType = line;
smooth = 0;
x = 671;
y = 803;
},
{
segmentType = line;
smooth = 0;
x = 671;
y = 1285;
},
{
segmentType = line;
smooth = 1;
x = 1322;
y = 1285;
},
{
smooth = 0;
x = 1371;
y = 1285;
},
{
smooth = 0;
x = 1395;
y = 1319;
},
{
segmentType = curve;
smooth = 1;
x = 1395;
y = 1356;
},
{
smooth = 0;
x = 1395;
y = 1392;
},
{
smooth = 0;
x = 1371;
y = 1426;
},
{
segmentType = curve;
smooth = 1;
x = 1322;
y = 1426;
},
{
segmentType = line;
smooth = 1;
x = 576;
y = 1426;
},
{
smooth = 0;
x = 528;
y = 1426;
},
{
smooth = 0;
x = 493;
y = 1383;
},
{
segmentType = curve;
smooth = 1;
x = 493;
y = 1340;
},
{
segmentType = line;
smooth = 1;
x = 493;
y = 86;
},
{
smooth = 0;
x = 493;
y = 41;
},
{
smooth = 0;
x = 537;
y = 0;
}
);
}
);
lib = {
};
name = T;
unicodes = (
);
width = 1158;
};
};
components = (
);
contours = (
);
lib = {
};
name = T;
unicodes = (
);
width = 1199;
};
},
{
color = 3;
glyphname = Tbar;
lastChange = "2016-08-19 08:52:46 +0000";
layers = (
{
background = {
components = (
{
name = T;
},
{
name = macron;
transform = "{1, 0, 0, 1, 141, -251}";
}
);
};
layerId = "9E718F8A-2CEA-4931-B05D-987794BD97DA";
paths = (
{
closed = 1;
nodes = (
"308 -5 OFFCURVE",
"318 7 OFFCURVE",
"318 24 CURVE SMOOTH",
"318 655 LINE",
"553 655 LINE SMOOTH",
"567 655 OFFCURVE",
"578 665 OFFCURVE",
"578 680 CURVE SMOOTH",
"578 695 OFFCURVE",
"567 705 OFFCURVE",
"553 705 CURVE SMOOTH",
"28 705 LINE SMOOTH",
"14 705 OFFCURVE",
"4 695 OFFCURVE",
"4 680 CURVE SMOOTH",
"4 665 OFFCURVE",
"14 655 OFFCURVE",
"28 655 CURVE SMOOTH",
"264 655 LINE",
"264 24 LINE SMOOTH",
"264 7 OFFCURVE",
"274 -5 OFFCURVE",
"291 -5 CURVE SMOOTH"
);
},
{
closed = 1;
nodes = (
"445 335 LINE SMOOTH",
"459 335 OFFCURVE",
"468 343 OFFCURVE",
"468 358 CURVE SMOOTH",
"468 373 OFFCURVE",
"459 381 OFFCURVE",
"445 381 CURVE SMOOTH",
"139 381 LINE SMOOTH",
"125 381 OFFCURVE",
"114 373 OFFCURVE",
"114 358 CURVE SMOOTH",
"114 343 OFFCURVE",
"125 335 OFFCURVE",
"139 335 CURVE SMOOTH"
);
}
);
width = 582;
},
{
background = {
components = (
{
name = T;
},
{
name = macron;
transform = "{1, 0, 0, 1, 158, -275}";
}
);
};
layerId = "E1B555A7-F4E1-459C-9C1A-AE952106EEF9";
paths = (
{
closed = 1;
nodes = (
"359 -5 OFFCURVE",
"396 21 OFFCURVE",
"396 74 CURVE SMOOTH",
"396 572 LINE",
"554 572 LINE SMOOTH",
"607 572 OFFCURVE",
"630 596 OFFCURVE",
"630 639 CURVE SMOOTH",
"630 681 OFFCURVE",
"607 705 OFFCURVE",
"554 705 CURVE SMOOTH",
"76 705 LINE SMOOTH",
"23 705 OFFCURVE",
"0 681 OFFCURVE",
"0 639 CURVE SMOOTH",
"0 596 OFFCURVE",
"23 572 OFFCURVE",
"76 572 CURVE SMOOTH",
"234 572 LINE",
"234 74 LINE SMOOTH",
"234 21 OFFCURVE",
"271 -5 OFFCURVE",
"315 -5 CURVE SMOOTH"
);
},
{
closed = 1;
nodes = (
"474 295 LINE SMOOTH",
"522 295 OFFCURVE",
"546 319 OFFCURVE",
"546 356 CURVE SMOOTH",
"546 393 OFFCURVE",
"522 417 OFFCURVE",
"474 417 CURVE SMOOTH",
"156 417 LINE SMOOTH",
"108 417 OFFCURVE",
"84 393 OFFCURVE",
"84 356 CURVE SMOOTH",
"84 319 OFFCURVE",
"108 295 OFFCURVE",
"156 295 CURVE SMOOTH"
);
}
);
width = 630;
}
);
leftMetricsKey = T;
rightMetricsKey = T;
unicode = 0166;
userData = {
com.typemytype.robofont.layerData = {
b = {
anchors = (
);
components = (
);
contours = (
);
lib = {
};
name = Tbar;
unicodes = (
);
width = 1158;
};
};
};
},
{
glyphname = U;
lastChange = "2016-08-19 20:07:26 +0000";
layers = (
{
anchors = (
{
name = bottom;
position = "{353, 0}";
},
{
name = ogonek;
position = "{465, 10}";
},
{
name = top;
position = "{353, 705}";
},
{
name = topright;
position = "{597, 705}";
}
);
layerId = "9E718F8A-2CEA-4931-B05D-987794BD97DA";
paths = (
{
closed = 1;
nodes = (
"510 -6 OFFCURVE",
"624 68 OFFCURVE",
"624 270 CURVE SMOOTH",
"624 681 LINE SMOOTH",
"624 698 OFFCURVE",
"614 710 OFFCURVE",
"597 710 CURVE SMOOTH",
"582 710 OFFCURVE",
"570 698 OFFCURVE",
"570 681 CURVE SMOOTH",
"570 263 LINE SMOOTH",
"570 105 OFFCURVE",
"483 44 OFFCURVE",
"353 44 CURVE SMOOTH",
"222 44 OFFCURVE",
"136 105 OFFCURVE",
"136 263 CURVE SMOOTH",
"136 681 LINE SMOOTH",
"136 698 OFFCURVE",
"126 710 OFFCURVE",
"109 710 CURVE SMOOTH",
"92 710 OFFCURVE",
"82 698 OFFCURVE",
"82 681 CURVE SMOOTH",
"82 270 LINE SMOOTH",
"82 68 OFFCURVE",
"195 -6 OFFCURVE",
"353 -6 CURVE SMOOTH"
);
}
);
width = 706;
},
{
anchors = (
{
name = bottom;
position = "{370, 0}";
},
{
name = ogonek;
position = "{492, 10}";
},
{
name = top;
position = "{370, 705}";
},
{
name = topright;
position = "{596, 705}";
}
);
layerId = "E1B555A7-F4E1-459C-9C1A-AE952106EEF9";
paths = (
{
closed = 1;
nodes = (
"562 -7 OFFCURVE",
"675 93 OFFCURVE",
"675 294 CURVE SMOOTH",
"675 631 LINE SMOOTH",
"675 684 OFFCURVE",
"638 710 OFFCURVE",
"596 710 CURVE SMOOTH",
"553 710 OFFCURVE",
"517 684 OFFCURVE",
"517 631 CURVE SMOOTH",
"517 287 LINE SMOOTH",
"517 165 OFFCURVE",
"454 118 OFFCURVE",
"370 118 CURVE SMOOTH",
"285 118 OFFCURVE",
"223 165 OFFCURVE",
"223 287 CURVE SMOOTH",
"223 631 LINE SMOOTH",
"223 684 OFFCURVE",
"186 710 OFFCURVE",
"144 710 CURVE SMOOTH",
"101 710 OFFCURVE",
"65 684 OFFCURVE",
"65 631 CURVE SMOOTH",
"65 294 LINE SMOOTH",
"65 90 OFFCURVE",
"177 -7 OFFCURVE",
"370 -7 CURVE SMOOTH"
);
}
);
width = 740;
}
);
unicode = 0055;
userData = {
anchors = (
);
b = {
};
com.typemytype.robofont.layerData = {
b = {
anchors = (
);
components = (
);
contours = (
);
lib = {
};
name = U;
unicodes = (
);
width = 1490;
};
};
components = (
);
contours = (
);
lib = {
};
name = U;
unicodes = (
);
width = 1513;
};
},
{
glyphname = V;
lastChange = "2016-08-19 20:07:54 +0000";
layers = (
{
anchors = (
{
name = bottom;
position = "{341, 0}";
},
{
name = top;
position = "{341, 705}";
}
);
layerId = "9E718F8A-2CEA-4931-B05D-987794BD97DA";
paths = (
{
closed = 1;
nodes = (
"322 -12 OFFCURVE",
"360 -10 OFFCURVE",
"370 15 CURVE SMOOTH",
"663 678 LINE SMOOTH",
"676 708 OFFCURVE",
"627 726 OFFCURVE",
"613 694 CURVE SMOOTH",
"326 40 LINE",
"355 40 LINE",
"68 694 LINE SMOOTH",
"54 726 OFFCURVE",
"5 708 OFFCURVE",
"18 678 CURVE SMOOTH",
"310 15 LINE SMOOTH"
);
}
);
width = 681;
},
{
anchors = (
{
name = bottom;
position = "{366, 0}";
},
{
name = top;
position = "{366, 705}";
}
);
layerId = "E1B555A7-F4E1-459C-9C1A-AE952106EEF9";
paths = (
{
closed = 1;
nodes = (
"314 -21 OFFCURVE",
"418 -19 OFFCURVE",
"449 46 CURVE SMOOTH",
"718 609 LINE SMOOTH",
"760 696 OFFCURVE",
"621 755 OFFCURVE",
"581 668 CURVE SMOOTH",
"345 154 LINE",
"390 154 LINE",
"154 668 LINE SMOOTH",
"113 755 OFFCURVE",
"-29 696 OFFCURVE",
"13 609 CURVE SMOOTH",
"282 46 LINE SMOOTH"
);
}
);
width = 731;
}
);
unicode = 0056;
userData = {
anchors = (
);
b = {
};
com.typemytype.robofont.guides = (
);
com.typemytype.robofont.layerData = {
b = {
anchors = (
);
components = (
);
contours = (
{
points = (
{
segmentType = curve;
smooth = 1;
x = 644;
y = "-5";
},
{
smooth = 0;
x = 712;
y = "-5";
},
{
smooth = 0;
x = 764;
y = 38;
},
{
segmentType = curve;
smooth = 1;
x = 793;
y = 117;
},
{
segmentType = line;
smooth = 1;
x = 1243;
y = 1324;
},
{
smooth = 0;
x = 1247;
y = 1335;
},
{
smooth = 0;
x = 1248;
y = 1342;
},
{
segmentType = curve;
smooth = 1;
x = 1248;
y = 1351;
},
{
smooth = 0;
x = 1248;
y = 1395;
},
{
smooth = 0;
x = 1203;
y = 1427;
},
{
segmentType = curve;
smooth = 1;
x = 1160;
y = 1427;
},
{
smooth = 0;
x = 1125;
y = 1427;
},
{
smooth = 0;
x = 1090;
y = 1408;
},
{
segmentType = curve;
smooth = 1;
x = 1076;
y = 1369;
},
{
segmentType = line;
smooth = 0;
x = 651;
y = 192;
},
{
segmentType = line;
smooth = 0;
x = 650;
y = 190;
},
{
segmentType = line;
smooth = 1;
x = 214;
y = 1370;
},
{
smooth = 0;
x = 200;
y = 1407;
},
{
smooth = 0;
x = 170;
y = 1427;
},
{
segmentType = curve;
smooth = 1;
x = 135;
y = 1427;
},
{
smooth = 0;
x = 90;
y = 1427;
},
{
smooth = 0;
x = 43;
y = 1392;
},
{
segmentType = curve;
smooth = 1;
x = 43;
y = 1344;
},
{
smooth = 0;
x = 43;
y = 1336;
},
{
smooth = 0;
x = 44;
y = 1326;
},
{
segmentType = curve;
smooth = 0;
x = 48;
y = 1318;
},
{
segmentType = line;
smooth = 1;
x = 501;
y = 117;
},
{
smooth = 0;
x = 532;
y = 35;
},
{
smooth = 0;
x = 581;
y = "-5";
}
);
}
);
lib = {
};
name = V;
unicodes = (
);
width = 1289;
};
};
components = (
);
contours = (
);
lib = {
};
name = V;
unicodes = (
);
width = 1365;
};
},
{
glyphname = W;
lastChange = "2016-08-19 20:07:59 +0000";
layers = (
{
anchors = (
{
name = bottom;
position = "{554, 0}";
},
{
name = top;
position = "{554, 705}";
}
);
layerId = "9E718F8A-2CEA-4931-B05D-987794BD97DA";
paths = (
{
closed = 1;
nodes = (
"291 -13 OFFCURVE",
"330 -11 OFFCURVE",
"339 15 CURVE SMOOTH",
"565 649 LINE",
"543 649 LINE",
"768 15 LINE SMOOTH",
"778 -13 OFFCURVE",
"817 -11 OFFCURVE",
"826 15 CURVE SMOOTH",
"1060 678 LINE SMOOTH",
"1071 708 OFFCURVE",
"1021 725 OFFCURVE",
"1010 694 CURVE SMOOTH",
"781 38 LINE",
"811 38 LINE",
"583 685 LINE SMOOTH",
"571 715 OFFCURVE",
"535 715 OFFCURVE",
"525 686 CURVE SMOOTH",
"296 38 LINE",
"325 38 LINE",
"96 694 LINE SMOOTH",
"86 725 OFFCURVE",
"36 708 OFFCURVE",
"47 678 CURVE SMOOTH",
"281 15 LINE SMOOTH"
);
}
);
width = 1107;
},
{
anchors = (
{
name = bottom;
position = "{559, 0}";
},
{
name = top;
position = "{559, 705}";
}
);
layerId = "E1B555A7-F4E1-459C-9C1A-AE952106EEF9";
paths = (
{
closed = 1;
nodes = (
"271 -24 OFFCURVE",
"386 -23 OFFCURVE",
"411 46 CURVE SMOOTH",
"572 487 LINE",
"550 487 LINE",
"706 46 LINE SMOOTH",
"731 -24 OFFCURVE",
"846 -23 OFFCURVE",
"872 46 CURVE SMOOTH",
"1079 609 LINE SMOOTH",
"1119 716 OFFCURVE",
"975 750 OFFCURVE",
"943 661 CURVE SMOOTH",
"771 175 LINE",
"801 175 LINE",
"635 659 LINE SMOOTH",
"612 729 OFFCURVE",
"519 729 OFFCURVE",
"493 660 CURVE SMOOTH",
"316 175 LINE",
"353 175 LINE",
"183 661 LINE SMOOTH",
"151 750 OFFCURVE",
"0 716 OFFCURVE",
"39 609 CURVE SMOOTH",
"246 46 LINE SMOOTH"
);
}
);
width = 1118;
}
);
unicode = 0057;
userData = {
anchors = (
);
b = {
};
com.typemytype.robofont.layerData = {
b = {
anchors = (
);
components = (
);
contours = (
);
lib = {
};
name = W;
unicodes = (
);
width = 2126;
};
};
components = (
);
contours = (
);
lib = {
};
name = W;
unicodes = (
);
width = 2070;
};
},
{
glyphname = X;
lastChange = "2016-08-19 20:08:05 +0000";
layers = (
{
anchors = (
{
name = bottom;
position = "{321, 0}";
},
{
name = top;
position = "{321, 705}";
}
);
layerId = "9E718F8A-2CEA-4931-B05D-987794BD97DA";
paths = (
{
closed = 1;
nodes = (
"321 321 LINE",
"353 361 LINE",
"592 667 LINE SMOOTH",
"614 694 OFFCURVE",
"574 727 OFFCURVE",
"552 698 CURVE SMOOTH",
"321 401 LINE",
"290 361 LINE",
"37 38 LINE SMOOTH",
"15 11 OFFCURVE",
"55 -21 OFFCURVE",
"77 7 CURVE SMOOTH"
);
},
{
closed = 1;
nodes = (
"588 -21 OFFCURVE",
"627 11 OFFCURVE",
"605 38 CURVE SMOOTH",
"353 361 LINE",
"321 401 LINE",
"90 698 LINE SMOOTH",
"68 727 OFFCURVE",
"29 694 OFFCURVE",
"51 667 CURVE SMOOTH",
"290 361 LINE",
"321 321 LINE",
"565 7 LINE SMOOTH"
);
}
);
width = 642;
},
{
anchors = (
{
name = bottom;
position = "{340, 0}";
},
{
name = top;
position = "{340, 705}";
}
);
layerId = "E1B555A7-F4E1-459C-9C1A-AE952106EEF9";
paths = (
{
closed = 1;
nodes = (
"340 245 LINE",
"433 356 LINE",
"629 589 LINE SMOOTH",
"693 663 OFFCURVE",
"579 758 OFFCURVE",
"519 684 CURVE SMOOTH",
"340 467 LINE",
"246 356 LINE",
"43 116 LINE SMOOTH",
"-21 41 OFFCURVE",
"92 -52 OFFCURVE",
"153 20 CURVE SMOOTH"
);
},
{
closed = 1;
nodes = (
"586 -53 OFFCURVE",
"700 41 OFFCURVE",
"635 116 CURVE SMOOTH",
"433 356 LINE",
"340 467 LINE",
"160 684 LINE SMOOTH",
"98 757 OFFCURVE",
"-14 663 OFFCURVE",
"50 589 CURVE SMOOTH",
"246 356 LINE",
"340 245 LINE",
"525 20 LINE SMOOTH"
);
}
);
width = 679;
}
);
unicode = 0058;
userData = {
anchors = (
);
b = {
};
com.typemytype.robofont.layerData = {
b = {
anchors = (
);
components = (
);
contours = (
{
points = (
{
segmentType = curve;
smooth = 1;
x = 151;
y = 0;
},
{
smooth = 0;
x = 176;
y = 0;
},
{
smooth = 0;
x = 201;
y = 12;
},
{
segmentType = curve;
smooth = 1;
x = 222;
y = 41;
},
{
segmentType = line;
smooth = 0;
x = 641;
y = 616;
},
{
segmentType = line;
smooth = 0;
x = 746;
y = 734;
},
{
segmentType = line;
smooth = 1;
x = 1175;
y = 1310;
},
{
smooth = 0;
x = 1186;
y = 1325;
},
{
smooth = 0;
x = 1190;
y = 1338;
},
{
segmentType = curve;
smooth = 1;
x = 1190;
y = 1353;
},
{
smooth = 0;
x = 1190;
y = 1393;
},
{
smooth = 0;
x = 1153;
y = 1426;
},
{
segmentType = curve;
smooth = 1;
x = 1110;
y = 1426;
},
{
smooth = 0;
x = 1083;
y = 1426;
},
{
smooth = 0;
x = 1058;
y = 1414;
},
{
segmentType = curve;
smooth = 1;
x = 1037;
y = 1385;
},
{
segmentType = line;
smooth = 0;
x = 648;
y = 844;
},
{
segmentType = line;
smooth = 0;
x = 542;
y = 732;
},
{
segmentType = line;
smooth = 1;
x = 84;
y = 121;
},
{
smooth = 0;
x = 73;
y = 106;
},
{
smooth = 0;
x = 68;
y = 91;
},
{
segmentType = curve;
smooth = 1;
x = 68;
y = 76;
},
{
smooth = 0;
x = 68;
y = 35;
},
{
smooth = 0;
x = 108;
y = 0;
}
);
},
{
points = (
{
segmentType = curve;
smooth = 1;
x = 1104;
y = 0;
},
{
smooth = 0;
x = 1151;
y = 0;
},
{
smooth = 0;
x = 1200;
y = 40;
},
{
segmentType = curve;
smooth = 1;
x = 1200;
y = 85;
},
{
smooth = 0;
x = 1200;
y = 98;
},
{
smooth = 0;
x = 1195;
y = 113;
},
{
segmentType = curve;
smooth = 0;
x = 1186;
y = 126;
},
{
segmentType = line;
smooth = 0;
x = 272;
y = 1385;
},
{
smooth = 0;
x = 252;
y = 1414;
},
{
smooth = 0;
x = 225;
y = 1426;
},
{
segmentType = curve;
smooth = 1;
x = 197;
y = 1426;
},
{
smooth = 0;
x = 149;
y = 1426;
},
{
smooth = 0;
x = 100;
y = 1388;
},
{
segmentType = curve;
smooth = 1;
x = 100;
y = 1343;
},
{
smooth = 0;
x = 100;
y = 1328;
},
{
smooth = 0;
x = 105;
y = 1315;
},
{
segmentType = curve;
smooth = 0;
x = 114;
y = 1303;
},
{
segmentType = line;
smooth = 0;
x = 1033;
y = 40;
},
{
smooth = 0;
x = 1052;
y = 13;
},
{
smooth = 0;
x = 1076;
y = 0;
}
);
}
);
lib = {
};
name = X;
unicodes = (
);
width = 1274;
};
};
components = (
);
contours = (
);
lib = {
};
name = X;
unicodes = (
);
width = 1322;
};
},
{
glyphname = Y;
lastChange = "2016-08-19 20:08:10 +0000";
layers = (
{
anchors = (
{
name = bottom;
position = "{294, 0}";
},
{
name = top;
position = "{294, 705}";
},
{
name = topleft;
position = "{20, 705}";
}
);
layerId = "9E718F8A-2CEA-4931-B05D-987794BD97DA";
paths = (
{
closed = 1;
nodes = (
"311 -5 OFFCURVE",
"321 7 OFFCURVE",
"321 24 CURVE SMOOTH",
"321 370 LINE",
"309 325 LINE",
"573 667 LINE SMOOTH",
"594 694 OFFCURVE",
"555 727 OFFCURVE",
"533 698 CURVE SMOOTH",
"286 377 LINE",
"303 377 LINE",
"55 698 LINE SMOOTH",
"33 727 OFFCURVE",
"-5 694 OFFCURVE",
"15 667 CURVE SMOOTH",
"280 325 LINE",
"267 370 LINE",
"267 24 LINE SMOOTH",
"267 7 OFFCURVE",
"277 -5 OFFCURVE",
"294 -5 CURVE SMOOTH"
);
}
);
width = 588;
},
{
anchors = (
{
name = bottom;
position = "{321, 0}";
},
{
name = top;
position = "{321, 705}";
},
{
name = topleft;
position = "{20, 705}";
}
);
layerId = "E1B555A7-F4E1-459C-9C1A-AE952106EEF9";
paths = (
{
closed = 1;
nodes = (
"365 -6 OFFCURVE",
"401 20 OFFCURVE",
"401 74 CURVE SMOOTH",
"401 382 LINE",
"368 293 LINE",
"618 589 LINE SMOOTH",
"682 663 OFFCURVE",
"571 758 OFFCURVE",
"509 684 CURVE SMOOTH",
"304 435 LINE",
"337 435 LINE",
"132 684 LINE SMOOTH",
"70 758 OFFCURVE",
"-41 663 OFFCURVE",
"24 589 CURVE SMOOTH",
"273 293 LINE",
"240 382 LINE",
"240 74 LINE SMOOTH",
"240 20 OFFCURVE",
"276 -6 OFFCURVE",
"321 -6 CURVE SMOOTH"
);
}
);
width = 641;
}
);
unicode = 0059;
userData = {
anchors = (
);
b = {
};
com.typemytype.robofont.guides = (
);
com.typemytype.robofont.layerData = {
b = {
anchors = (
);
components = (
);
contours = (
{
points = (
{
segmentType = curve;
smooth = 1;
x = 641;
y = 0;
},
{
smooth = 0;
x = 685;
y = 0;
},
{
smooth = 0;
x = 730;
y = 29;
},
{
segmentType = curve;
smooth = 1;
x = 730;
y = 85;
},
{
segmentType = line;
smooth = 0;
x = 730;
y = 1285;
},
{
segmentType = line;
smooth = 1;
x = 1115;
y = 1285;
},
{
smooth = 0;
x = 1164;
y = 1285;
},
{
smooth = 0;
x = 1190;
y = 1319;
},
{
segmentType = curve;
smooth = 1;
x = 1190;
y = 1355;
},
{
smooth = 0;
x = 1190;
y = 1392;
},
{
smooth = 0;
x = 1166;
y = 1426;
},
{
segmentType = curve;
smooth = 1;
x = 1115;
y = 1426;
},
{
segmentType = line;
smooth = 1;
x = 160;
y = 1426;
},
{
smooth = 0;
x = 111;
y = 1426;
},
{
smooth = 0;
x = 86;
y = 1392;
},
{
segmentType = curve;
smooth = 1;
x = 86;
y = 1355;
},
{
smooth = 0;
x = 86;
y = 1319;
},
{
smooth = 0;
x = 111;
y = 1285;
},
{
segmentType = curve;
smooth = 1;
x = 160;
y = 1285;
},
{
segmentType = line;
smooth = 0;
x = 552;
y = 1285;
},
{
segmentType = line;
smooth = 1;
x = 552;
y = 85;
},
{
smooth = 0;
x = 552;
y = 29;
},
{
smooth = 0;
x = 596;
y = 0;
}
);
}
);
lib = {
};
name = Y;
unicodes = (
);
width = 1278;
};
};
components = (
);
contours = (
);
lib = {
};
name = Y;
unicodes = (
);
width = 1321;
};
},
{
glyphname = Z;
lastChange = "2016-08-19 20:08:43 +0000";
layers = (
{
anchors = (
{
name = bottom;
position = "{295, 0}";
},
{
name = top;
position = "{273, 705}";
}
);
layerId = "9E718F8A-2CEA-4931-B05D-987794BD97DA";
paths = (
{
closed = 1;
nodes = (
"522 0 LINE SMOOTH",
"537 0 OFFCURVE",
"547 10 OFFCURVE",
"547 25 CURVE SMOOTH",
"547 40 OFFCURVE",
"537 50 OFFCURVE",
"522 50 CURVE SMOOTH",
"78 50 LINE",
"78 7 LINE",
"530 661 LINE SMOOTH",
"545 682 OFFCURVE",
"536 705 OFFCURVE",
"510 705 CURVE SMOOTH",
"60 705 LINE SMOOTH",
"46 705 OFFCURVE",
"36 695 OFFCURVE",
"36 680 CURVE SMOOTH",
"36 665 OFFCURVE",
"46 655 OFFCURVE",
"60 655 CURVE SMOOTH",
"494 655 LINE",
"494 698 LINE",
"43 45 LINE SMOOTH",
"27 23 OFFCURVE",
"36 0 OFFCURVE",
"62 0 CURVE SMOOTH"
);
}
);
width = 574;
},
{
anchors = (
{
name = bottom;
position = "{301, 0}";
},
{
name = top;
position = "{316, 705}";
}
);
layerId = "E1B555A7-F4E1-459C-9C1A-AE952106EEF9";
paths = (
{
closed = 1;
nodes = (
"514 0 LINE SMOOTH",
"567 0 OFFCURVE",
"590 23 OFFCURVE",
"590 65 CURVE SMOOTH",
"590 106 OFFCURVE",
"567 129 OFFCURVE",
"514 129 CURVE SMOOTH",
"197 129 LINE",
"197 83 LINE",
"556 580 LINE SMOOTH",
"598 637 OFFCURVE",
"573 705 OFFCURVE",
"506 705 CURVE SMOOTH",
"110 705 LINE SMOOTH",
"57 705 OFFCURVE",
"34 682 OFFCURVE",
"34 640 CURVE SMOOTH",
"34 599 OFFCURVE",
"57 576 OFFCURVE",
"110 576 CURVE SMOOTH",
"412 576 LINE",
"412 622 LINE",
"53 125 LINE SMOOTH",
"12 69 OFFCURVE",
"36 0 OFFCURVE",
"103 0 CURVE SMOOTH"
);
}
);
width = 610;
}
);
unicode = 005A;
userData = {
anchors = (
);
b = {
};
com.typemytype.robofont.layerData = {
b = {
anchors = (
);
components = (
);
contours = (
{
points = (
{
segmentType = curve;
smooth = 1;
x = 266;
y = 0;
},
{
segmentType = line;
smooth = 1;
x = 1035;
y = 0;
},
{
smooth = 0;
x = 1084;
y = 0;
},
{
smooth = 0;
x = 1108;
y = 34;
},
{
segmentType = curve;
smooth = 1;
x = 1108;
y = 71;
},
{
smooth = 0;
x = 1108;
y = 107;
},
{
smooth = 0;
x = 1084;
y = 141;
},
{
segmentType = curve;
smooth = 1;
x = 1035;
y = 141;
},
{
segmentType = line;
smooth = 0;
x = 356;
y = 141;
},
{
segmentType = line;
smooth = 0;
x = 356;
y = 665;
},
{
segmentType = line;
smooth = 1;
x = 975;
y = 665;
},
{
smooth = 0;
x = 1024;
y = 665;
},
{
smooth = 0;
x = 1049;
y = 698;
},
{
segmentType = curve;
smooth = 1;
x = 1049;
y = 734;
},
{
smooth = 0;
x = 1049;
y = 770;
},
{
smooth = 0;
x = 1026;
y = 803;
},
{
segmentType = curve;
smooth = 1;
x = 975;
y = 803;
},
{
segmentType = line;
smooth = 0;
x = 356;
y = 803;
},
{
segmentType = line;
smooth = 0;
x = 356;
y = 1285;
},
{
segmentType = line;
smooth = 1;
x = 1007;
y = 1285;
},
{
smooth = 0;
x = 1056;
y = 1285;
},
{
smooth = 0;
x = 1080;
y = 1319;
},
{
segmentType = curve;
smooth = 1;
x = 1080;
y = 1356;
},
{
smooth = 0;
x = 1080;
y = 1392;
},
{
smooth = 0;
x = 1056;
y = 1426;
},
{
segmentType = curve;
smooth = 1;
x = 1007;
y = 1426;
},
{
segmentType = line;
smooth = 1;
x = 261;
y = 1426;
},
{
smooth = 0;
x = 213;
y = 1426;
},
{
smooth = 0;
x = 178;
y = 1383;
},
{
segmentType = curve;
smooth = 1;
x = 178;
y = 1340;
},
{
segmentType = line;
smooth = 1;
x = 178;
y = 86;
},
{
smooth = 0;
x = 178;
y = 41;
},
{
smooth = 0;
x = 222;
y = 0;
}
);
}
);
lib = {
};
name = Z;
unicodes = (
);
width = 1165;
};
};
components = (
);
contours = (
);
lib = {
};
name = Z;
unicodes = (
);
width = 1222;
};
},
{
glyphname = a;
lastChange = "2016-08-19 20:12:47 +0000";
layers = (
{
anchors = (
{
name = bottom;
position = "{255, 0}";
},
{
name = ogonek;
position = "{426, 10}";
},
{
name = top;
position = "{258, 490}";
}
);
background = {
paths = (
{
closed = 1;
nodes = (
"376 204 LINE SMOOTH",
"376 105 OFFCURVE",
"307 44 OFFCURVE",
"224 44 CURVE SMOOTH",
"155 44 OFFCURVE",
"110 89 OFFCURVE",
"110 142 CURVE SMOOTH",
"110 208 OFFCURVE",
"144 236 OFFCURVE",
"357 236 CURVE SMOOTH",
"387 236 LINE",
"387 279 LINE",
"355 279 LINE SMOOTH",
"127 279 OFFCURVE",
"51 246 OFFCURVE",
"52 137 CURVE SMOOTH",
"53 60 OFFCURVE",
"124 -5 OFFCURVE",
"221 -5 CURVE SMOOTH",
"301 -5 OFFCURVE",
"366 42 OFFCURVE",
"388 111 CURVE",
"377 129 LINE",
"377 24 LINE SMOOTH",
"377 6 OFFCURVE",
"389 -4 OFFCURVE",
"404 -4 CURVE SMOOTH",
"420 -4 OFFCURVE",
"431 6 OFFCURVE",
"431 24 CURVE SMOOTH",
"431 317 LINE SMOOTH",
"431 443 OFFCURVE",
"363 495 OFFCURVE",
"258 495 CURVE SMOOTH",
"203 495 OFFCURVE",
"143 480 OFFCURVE",
"96 452 CURVE SMOOTH",
"69 436 OFFCURVE",
"61 424 OFFCURVE",
"61 410 CURVE SMOOTH",
"61 397 OFFCURVE",
"71 387 OFFCURVE",
"82 387 CURVE SMOOTH",
"109 387 OFFCURVE",
"142 446 OFFCURVE",
"262 446 CURVE SMOOTH",
"335 446 OFFCURVE",
"376 414 OFFCURVE",
"376 312 CURVE SMOOTH"
);
}
);
};
layerId = "9E718F8A-2CEA-4931-B05D-987794BD97DA";
paths = (
{
closed = 1;
nodes = (
"301 -5 OFFCURVE",
"366 42 OFFCURVE",
"388 111 CURVE",
"376 129 LINE",
"376 24 LINE SMOOTH",
"376 6 OFFCURVE",
"388 -4 OFFCURVE",
"403 -4 CURVE SMOOTH",
"419 -4 OFFCURVE",
"430 6 OFFCURVE",
"430 24 CURVE SMOOTH",
"430 312 LINE SMOOTH",
"430 445 OFFCURVE",
"363 495 OFFCURVE",
"258 495 CURVE SMOOTH",
"203 495 OFFCURVE",
"143 480 OFFCURVE",
"96 452 CURVE SMOOTH",
"69 436 OFFCURVE",
"61 424 OFFCURVE",
"61 410 CURVE SMOOTH",
"61 397 OFFCURVE",
"71 387 OFFCURVE",
"82 387 CURVE SMOOTH",
"92 387 OFFCURVE",
"103 395 OFFCURVE",
"119 406 CURVE SMOOTH",
"146 423 OFFCURVE",
"195 446 OFFCURVE",
"262 446 CURVE SMOOTH",
"335 446 OFFCURVE",
"376 413 OFFCURVE",
"376 316 CURVE SMOOTH",
"376 204 LINE SMOOTH",
"376 105 OFFCURVE",
"307 44 OFFCURVE",
"224 44 CURVE SMOOTH",
"155 44 OFFCURVE",
"110 89 OFFCURVE",
"110 142 CURVE SMOOTH",
"110 208 OFFCURVE",
"144 236 OFFCURVE",
"357 236 CURVE SMOOTH",
"387 236 LINE",
"387 279 LINE",
"355 279 LINE SMOOTH",
"127 279 OFFCURVE",
"51 246 OFFCURVE",
"52 137 CURVE SMOOTH",
"53 60 OFFCURVE",
"124 -5 OFFCURVE",
"221 -5 CURVE SMOOTH"
);
}
);
width = 509;
},
{
anchors = (
{
name = bottom;
position = "{275, 0}";
},
{
name = ogonek;
position = "{469, 10}";
},
{
name = top;
position = "{279, 495}";
}
);
background = {
paths = (
{
closed = 1;
nodes = (
"285 -6 OFFCURVE",
"341 31 OFFCURVE",
"354 100 CURVE",
"346 103 LINE",
"346 68 LINE SMOOTH",
"346 16 OFFCURVE",
"385 -4 OFFCURVE",
"419 -4 CURVE SMOOTH",
"460 -4 OFFCURVE",
"493 17 OFFCURVE",
"493 68 CURVE SMOOTH",
"493 289 LINE SMOOTH",
"493 439 OFFCURVE",
"419 501 OFFCURVE",
"279 501 CURVE SMOOTH",
"208 501 OFFCURVE",
"136 482 OFFCURVE",
"93 460 CURVE SMOOTH",
"65 446 OFFCURVE",
"55 429 OFFCURVE",
"55 403 CURVE SMOOTH",
"55 373 OFFCURVE",
"71 345 OFFCURVE",
"104 345 CURVE SMOOTH",
"115 345 OFFCURVE",
"128 349 OFFCURVE",
"143 355 CURVE SMOOTH",
"175 367 OFFCURVE",
"223 385 OFFCURVE",
"267 385 CURVE SMOOTH",
"320 385 OFFCURVE",
"345 367 OFFCURVE",
"345 310 CURVE SMOOTH",
"345 202 LINE SMOOTH",
"345 137 OFFCURVE",
"300 101 OFFCURVE",
"250 101 CURVE SMOOTH",
"214 101 OFFCURVE",
"187 126 OFFCURVE",
"187 161 CURVE SMOOTH",
"187 199 OFFCURVE",
"214 218 OFFCURVE",
"328 218 CURVE SMOOTH",
"361 218 LINE",
"361 293 LINE",
"319 293 LINE SMOOTH",
"107 293 OFFCURVE",
"37 252 OFFCURVE",
"37 150 CURVE SMOOTH",
"37 67 OFFCURVE",
"106 -6 OFFCURVE",
"217 -6 CURVE SMOOTH"
);
}
);
};
layerId = "E1B555A7-F4E1-459C-9C1A-AE952106EEF9";
paths = (
{
closed = 1;
nodes = (
"285 -6 OFFCURVE",
"341 31 OFFCURVE",
"354 100 CURVE",
"346 103 LINE",
"346 66 LINE SMOOTH",
"346 14 OFFCURVE",
"385 -6 OFFCURVE",
"419 -6 CURVE SMOOTH",
"460 -6 OFFCURVE",
"493 15 OFFCURVE",
"493 66 CURVE SMOOTH",
"493 289 LINE SMOOTH",
"493 439 OFFCURVE",
"419 501 OFFCURVE",
"279 501 CURVE SMOOTH",
"208 501 OFFCURVE",
"136 482 OFFCURVE",
"93 460 CURVE SMOOTH",
"65 446 OFFCURVE",
"55 429 OFFCURVE",
"55 403 CURVE SMOOTH",
"55 373 OFFCURVE",
"71 345 OFFCURVE",
"104 345 CURVE SMOOTH",
"115 345 OFFCURVE",
"128 349 OFFCURVE",
"143 355 CURVE SMOOTH",
"175 367 OFFCURVE",
"223 385 OFFCURVE",
"267 385 CURVE SMOOTH",
"320 385 OFFCURVE",
"345 367 OFFCURVE",
"345 310 CURVE SMOOTH",
"345 202 LINE SMOOTH",
"345 137 OFFCURVE",
"300 101 OFFCURVE",
"250 101 CURVE SMOOTH",
"214 101 OFFCURVE",
"187 126 OFFCURVE",
"187 161 CURVE SMOOTH",
"187 199 OFFCURVE",
"214 218 OFFCURVE",
"328 218 CURVE SMOOTH",
"361 218 LINE",
"361 293 LINE",
"319 293 LINE SMOOTH",
"107 293 OFFCURVE",
"37 252 OFFCURVE",
"37 150 CURVE SMOOTH",
"37 67 OFFCURVE",
"106 -6 OFFCURVE",
"217 -6 CURVE SMOOTH"
);
}
);
width = 549;
}
);
rightMetricsKey = n;
unicode = 0061;
userData = {
anchors = (
);
b = {
};
com.typemytype.robofont.layerData = {
b = {
anchors = (
);
components = (
);
contours = (
);
lib = {
};
name = a;
unicodes = (
);
width = 1040;
};
};
components = (
);
contours = (
);
lib = {
};
name = a;
unicodes = (
);
width = 1101;
};
},
{
glyphname = ae;
lastChange = "2016-08-19 20:13:21 +0000";
layers = (
{
anchors = (
{
name = bottom;
position = "{408, 0}";
},
{
name = top;
position = "{408, 490}";
}
);
background = {
paths = (
{
closed = 1;
nodes = (
"656 -5 OFFCURVE",
"709 8 OFFCURVE",
"759 38 CURVE SMOOTH",
"784 53 OFFCURVE",
"793 66 OFFCURVE",
"793 80 CURVE SMOOTH",
"793 93 OFFCURVE",
"784 103 OFFCURVE",
"773 103 CURVE SMOOTH",
"750 103 OFFCURVE",
"708 44 OFFCURVE",
"611 44 CURVE SMOOTH",
"507 44 OFFCURVE",
"435 106 OFFCURVE",
"435 246 CURVE SMOOTH",
"435 381 OFFCURVE",
"506 449 OFFCURVE",
"600 449 CURVE SMOOTH",
"688 449 OFFCURVE",
"751 390 OFFCURVE",
"747 256 CURVE",
"767 279 LINE",
"415 279 LINE",
"416 236 LINE",
"764 236 LINE SMOOTH",
"788 236 OFFCURVE",
"797 247 OFFCURVE",
"797 271 CURVE SMOOTH",
"797 396 OFFCURVE",
"731 495 OFFCURVE",
"600 495 CURVE SMOOTH",
"475 495 OFFCURVE",
"381 396 OFFCURVE",
"386 241 CURVE SMOOTH",
"391 82 OFFCURVE",
"478 -5 OFFCURVE",
"612 -5 CURVE SMOOTH"
);
},
{
closed = 1;
nodes = (
"305 -5 OFFCURVE",
"402 42 OFFCURVE",
"424 171 CURVE",
"433 171 LINE",
"433 317 LINE",
"433 443 OFFCURVE",
"367 495 OFFCURVE",
"260 495 CURVE SMOOTH",
"196 495 OFFCURVE",
"143 480 OFFCURVE",
"96 452 CURVE SMOOTH",
"71 437 OFFCURVE",
"61 424 OFFCURVE",
"61 410 CURVE SMOOTH",
"61 397 OFFCURVE",
"70 387 OFFCURVE",
"81 387 CURVE SMOOTH",
"104 387 OFFCURVE",
"146 446 OFFCURVE",
"265 446 CURVE SMOOTH",
"339 446 OFFCURVE",
"380 414 OFFCURVE",
"380 312 CURVE SMOOTH",
"380 204 LINE SMOOTH",
"380 105 OFFCURVE",
"311 44 OFFCURVE",
"229 44 CURVE SMOOTH",
"155 44 OFFCURVE",
"110 89 OFFCURVE",
"110 142 CURVE SMOOTH",
"110 208 OFFCURVE",
"144 236 OFFCURVE",
"361 236 CURVE SMOOTH",
"391 236 LINE",
"391 279 LINE",
"359 279 LINE SMOOTH",
"127 279 OFFCURVE",
"51 246 OFFCURVE",
"52 137 CURVE SMOOTH",
"53 60 OFFCURVE",
"123 -5 OFFCURVE",
"226 -5 CURVE SMOOTH"
);
}
);
};
layerId = "9E718F8A-2CEA-4931-B05D-987794BD97DA";
paths = (
{
closed = 1;
nodes = (
"656 -5 OFFCURVE",
"709 8 OFFCURVE",
"759 38 CURVE SMOOTH",
"784 53 OFFCURVE",
"793 66 OFFCURVE",
"793 80 CURVE SMOOTH",
"793 93 OFFCURVE",
"784 103 OFFCURVE",
"773 103 CURVE SMOOTH",
"750 103 OFFCURVE",
"708 44 OFFCURVE",
"611 44 CURVE SMOOTH",
"507 44 OFFCURVE",
"435 106 OFFCURVE",
"435 246 CURVE SMOOTH",
"435 381 OFFCURVE",
"506 449 OFFCURVE",
"600 449 CURVE SMOOTH",
"688 449 OFFCURVE",
"751 390 OFFCURVE",
"747 256 CURVE",
"767 279 LINE",
"415 279 LINE",
"416 236 LINE",
"764 236 LINE SMOOTH",
"788 236 OFFCURVE",
"797 247 OFFCURVE",
"797 271 CURVE SMOOTH",
"797 396 OFFCURVE",
"731 495 OFFCURVE",
"600 495 CURVE SMOOTH",
"475 495 OFFCURVE",
"381 396 OFFCURVE",
"386 241 CURVE SMOOTH",
"391 82 OFFCURVE",
"478 -5 OFFCURVE",
"612 -5 CURVE SMOOTH"
);
},
{
closed = 1;
nodes = (
"305 -5 OFFCURVE",
"402 40 OFFCURVE",
"422 171 CURVE",
"433 171 LINE",
"433 317 LINE",
"433 443 OFFCURVE",
"367 495 OFFCURVE",
"260 495 CURVE SMOOTH",
"196 495 OFFCURVE",
"143 480 OFFCURVE",
"96 452 CURVE SMOOTH",
"71 437 OFFCURVE",
"61 424 OFFCURVE",
"61 410 CURVE SMOOTH",
"61 397 OFFCURVE",
"70 387 OFFCURVE",
"81 387 CURVE SMOOTH",
"104 387 OFFCURVE",
"146 446 OFFCURVE",
"265 446 CURVE SMOOTH",
"339 446 OFFCURVE",
"380 414 OFFCURVE",
"380 312 CURVE SMOOTH",
"380 208 LINE SMOOTH",
"380 105 OFFCURVE",
"311 44 OFFCURVE",
"229 44 CURVE SMOOTH",
"155 44 OFFCURVE",
"110 89 OFFCURVE",
"110 142 CURVE SMOOTH",
"110 208 OFFCURVE",
"144 236 OFFCURVE",
"361 236 CURVE SMOOTH",
"391 236 LINE",
"391 279 LINE",
"359 279 LINE SMOOTH",
"127 279 OFFCURVE",
"51 246 OFFCURVE",
"52 137 CURVE SMOOTH",
"53 60 OFFCURVE",
"123 -5 OFFCURVE",
"226 -5 CURVE SMOOTH"
);
}
);
width = 841;
},
{
anchors = (
{
name = bottom;
position = "{417, 0}";
},
{
name = top;
position = "{417, 495}";
}
);
background = {
paths = (
{
closed = 1;
nodes = (
"658 -6 OFFCURVE",
"723 13 OFFCURVE",
"763 35 CURVE SMOOTH",
"785 47 OFFCURVE",
"801 66 OFFCURVE",
"801 92 CURVE SMOOTH",
"801 122 OFFCURVE",
"786 150 OFFCURVE",
"755 150 CURVE SMOOTH",
"718 150 OFFCURVE",
"675 110 OFFCURVE",
"606 110 CURVE SMOOTH",
"529 110 OFFCURVE",
"491 150 OFFCURVE",
"491 263 CURVE SMOOTH",
"491 353 OFFCURVE",
"530 394 OFFCURVE",
"589 394 CURVE SMOOTH",
"642 394 OFFCURVE",
"673 353 OFFCURVE",
"673 278 CURVE",
"711 293 LINE",
"481 293 LINE",
"480 216 LINE",
"764 216 LINE SMOOTH",
"791 216 OFFCURVE",
"804 234 OFFCURVE",
"804 262 CURVE SMOOTH",
"804 399 OFFCURVE",
"723 501 OFFCURVE",
"592 501 CURVE SMOOTH",
"454 501 OFFCURVE",
"363 399 OFFCURVE",
"363 247 CURVE SMOOTH",
"363 92 OFFCURVE",
"448 -6 OFFCURVE",
"603 -6 CURVE SMOOTH"
);
},
{
closed = 1;
nodes = (
"367 -6 OFFCURVE",
"444 74 OFFCURVE",
"444 193 CURVE",
"475 202 LINE",
"475 289 LINE SMOOTH",
"475 439 OFFCURVE",
"409 501 OFFCURVE",
"275 501 CURVE SMOOTH",
"198 501 OFFCURVE",
"133 482 OFFCURVE",
"93 460 CURVE SMOOTH",
"71 448 OFFCURVE",
"55 429 OFFCURVE",
"55 403 CURVE SMOOTH",
"55 373 OFFCURVE",
"70 345 OFFCURVE",
"101 345 CURVE SMOOTH",
"140 345 OFFCURVE",
"177 385 OFFCURVE",
"266 385 CURVE SMOOTH",
"317 385 OFFCURVE",
"343 365 OFFCURVE",
"343 310 CURVE SMOOTH",
"343 202 LINE SMOOTH",
"343 136 OFFCURVE",
"298 101 OFFCURVE",
"255 101 CURVE SMOOTH",
"214 101 OFFCURVE",
"187 126 OFFCURVE",
"187 161 CURVE SMOOTH",
"187 199 OFFCURVE",
"214 218 OFFCURVE",
"326 218 CURVE SMOOTH",
"349 218 LINE",
"349 293 LINE",
"317 293 LINE SMOOTH",
"107 293 OFFCURVE",
"37 252 OFFCURVE",
"37 150 CURVE SMOOTH",
"37 67 OFFCURVE",
"110 -6 OFFCURVE",
"236 -6 CURVE SMOOTH"
);
}
);
};
layerId = "E1B555A7-F4E1-459C-9C1A-AE952106EEF9";
paths = (
{
closed = 1;
nodes = (
"658 -6 OFFCURVE",
"723 13 OFFCURVE",
"763 35 CURVE SMOOTH",
"785 47 OFFCURVE",
"801 66 OFFCURVE",
"801 92 CURVE SMOOTH",
"801 122 OFFCURVE",
"786 150 OFFCURVE",
"755 150 CURVE SMOOTH",
"718 150 OFFCURVE",
"675 110 OFFCURVE",
"606 110 CURVE SMOOTH",
"529 110 OFFCURVE",
"491 150 OFFCURVE",
"491 263 CURVE SMOOTH",
"491 353 OFFCURVE",
"530 394 OFFCURVE",
"589 394 CURVE SMOOTH",
"642 394 OFFCURVE",
"673 353 OFFCURVE",
"673 278 CURVE",
"711 293 LINE",
"481 293 LINE",
"480 216 LINE",
"764 216 LINE SMOOTH",
"791 216 OFFCURVE",
"804 234 OFFCURVE",
"804 262 CURVE SMOOTH",
"804 399 OFFCURVE",
"723 501 OFFCURVE",
"592 501 CURVE SMOOTH",
"456 501 OFFCURVE",
"363 399 OFFCURVE",
"363 247 CURVE SMOOTH",
"363 92 OFFCURVE",
"445 -6 OFFCURVE",
"603 -6 CURVE SMOOTH"
);
},
{
closed = 1;
nodes = (
"367 -6 OFFCURVE",
"434 77 OFFCURVE",
"444 193 CURVE",
"475 202 LINE",
"475 289 LINE SMOOTH",
"475 439 OFFCURVE",
"407 501 OFFCURVE",
"275 501 CURVE SMOOTH",
"198 501 OFFCURVE",
"133 482 OFFCURVE",
"93 460 CURVE SMOOTH",
"71 448 OFFCURVE",
"55 429 OFFCURVE",
"55 403 CURVE SMOOTH",
"55 373 OFFCURVE",
"70 345 OFFCURVE",
"101 345 CURVE SMOOTH",
"140 345 OFFCURVE",
"177 385 OFFCURVE",
"266 385 CURVE SMOOTH",
"317 385 OFFCURVE",
"343 365 OFFCURVE",
"343 310 CURVE SMOOTH",
"343 202 LINE SMOOTH",
"343 136 OFFCURVE",
"298 101 OFFCURVE",
"255 101 CURVE SMOOTH",
"214 101 OFFCURVE",
"187 126 OFFCURVE",
"187 161 CURVE SMOOTH",
"187 199 OFFCURVE",
"214 218 OFFCURVE",
"326 218 CURVE SMOOTH",
"349 218 LINE",
"349 293 LINE",
"317 293 LINE SMOOTH",
"107 293 OFFCURVE",
"37 252 OFFCURVE",
"37 150 CURVE SMOOTH",
"37 67 OFFCURVE",
"110 -6 OFFCURVE",
"236 -6 CURVE SMOOTH"
);
}
);
width = 836;
}
);
leftMetricsKey = a;
rightMetricsKey = e;
unicode = 00E6;
userData = {
com.typemytype.robofont.layerData = {
b = {
anchors = (
);
components = (
);
contours = (
);
lib = {
};
name = ae;
unicodes = (
);
width = 1734;
};
};
};
},
{
glyphname = b;
lastChange = "2016-08-22 11:13:37 +0000";
layers = (
{
anchors = (
{
name = bottom;
position = "{300, 0}";
},
{
name = top;
position = "{303, 490}";
}
);
background = {
paths = (
{
closed = 1;
nodes = (
"460 -12 OFFCURVE",
"523 107 OFFCURVE",
"523 244 CURVE SMOOTH",
"523 369 OFFCURVE",
"452 495 OFFCURVE",
"307 495 CURVE SMOOTH",
"235 495 OFFCURVE",
"166 454 OFFCURVE",
"140 385 CURVE",
"140 667 LINE SMOOTH",
"140 683 OFFCURVE",
"126 692 OFFCURVE",
"112 692 CURVE SMOOTH",
"98 692 OFFCURVE",
"83 683 OFFCURVE",
"83 667 CURVE SMOOTH",
"83 26 LINE SMOOTH",
"83 9 OFFCURVE",
"96 2 OFFCURVE",
"110 2 CURVE SMOOTH",
"138 2 OFFCURVE",
"140 21 OFFCURVE",
"140 26 CURVE SMOOTH",
"140 97 LINE",
"171 25 OFFCURVE",
"241 -12 OFFCURVE",
"315 -12 CURVE SMOOTH"
);
},
{
closed = 1;
nodes = (
"181 27 OFFCURVE",
"141 137 OFFCURVE",
"141 244 CURVE SMOOTH",
"141 349 OFFCURVE",
"188 455 OFFCURVE",
"306 455 CURVE SMOOTH",
"425 455 OFFCURVE",
"467 339 OFFCURVE",
"467 239 CURVE SMOOTH",
"467 143 OFFCURVE",
"432 30 OFFCURVE",
"315 27 CURVE SMOOTH"
);
}
);
};
layerId = "9E718F8A-2CEA-4931-B05D-987794BD97DA";
paths = (
{
closed = 1;
nodes = (
"427 -5 OFFCURVE",
"519 90 OFFCURVE",
"519 247 CURVE SMOOTH",
"519 404 OFFCURVE",
"427 495 OFFCURVE",
"303 495 CURVE SMOOTH",
"213 495 OFFCURVE",
"147 450 OFFCURVE",
"124 373 CURVE",
"135 355 LINE",
"135 682 LINE SMOOTH",
"135 700 OFFCURVE",
"124 710 OFFCURVE",
"108 710 CURVE SMOOTH",
"92 710 OFFCURVE",
"81 700 OFFCURVE",
"81 682 CURVE SMOOTH",
"81 24 LINE SMOOTH",
"81 6 OFFCURVE",
"92 -4 OFFCURVE",
"108 -4 CURVE SMOOTH",
"124 -4 OFFCURVE",
"135 6 OFFCURVE",
"135 24 CURVE SMOOTH",
"135 135 LINE",
"124 117 LINE",
"147 40 OFFCURVE",
"213 -5 OFFCURVE",
"303 -5 CURVE SMOOTH"
);
},
{
closed = 1;
nodes = (
"188 44 OFFCURVE",
"135 122 OFFCURVE",
"135 245 CURVE SMOOTH",
"135 368 OFFCURVE",
"188 446 OFFCURVE",
"297 446 CURVE SMOOTH",
"404 446 OFFCURVE",
"462 370 OFFCURVE",
"462 247 CURVE SMOOTH",
"462 124 OFFCURVE",
"404 44 OFFCURVE",
"298 44 CURVE SMOOTH"
);
}
);
width = 565;
},
{
anchors = (
{
name = bottom;
position = "{308, 0}";
},
{
name = top;
position = "{365, 495}";
}
);
background = {
paths = (
{
closed = 1;
nodes = (
"236 607 LINE SMOOTH",
"236 674 OFFCURVE",
"212 711 OFFCURVE",
"155 711 CURVE SMOOTH",
"101 711 OFFCURVE",
"81 674 OFFCURVE",
"81 607 CURVE SMOOTH",
"81 110 LINE SMOOTH",
"81 43 OFFCURVE",
"106 0 OFFCURVE",
"160 0 CURVE SMOOTH",
"210 0 OFFCURVE",
"235 33 OFFCURVE",
"235 76 CURVE SMOOTH",
"235 82 LINE",
"266 17 OFFCURVE",
"327 -9 OFFCURVE",
"398 -9 CURVE SMOOTH",
"517 -9 OFFCURVE",
"609 75 OFFCURVE",
"609 247 CURVE SMOOTH",
"609 417 OFFCURVE",
"509 497 OFFCURVE",
"391 497 CURVE SMOOTH",
"318 497 OFFCURVE",
"261 466 OFFCURVE",
"236 413 CURVE"
);
},
{
closed = 1;
nodes = (
"425 396 OFFCURVE",
"461 333 OFFCURVE",
"461 241 CURVE SMOOTH",
"461 170 OFFCURVE",
"434 86 OFFCURVE",
"352 86 CURVE SMOOTH",
"269 86 OFFCURVE",
"236 149 OFFCURVE",
"236 243 CURVE SMOOTH",
"236 347 OFFCURVE",
"279 396 OFFCURVE",
"349 396 CURVE SMOOTH"
);
}
);
};
layerId = "E1B555A7-F4E1-459C-9C1A-AE952106EEF9";
paths = (
{
closed = 1;
nodes = (
"174 -6 OFFCURVE",
"211 16 OFFCURVE",
"211 67 CURVE SMOOTH",
"211 118 LINE",
"200 96 LINE",
"224 29 OFFCURVE",
"294 -6 OFFCURVE",
"365 -6 CURVE SMOOTH",
"459 -6 OFFCURVE",
"582 62 OFFCURVE",
"582 250 CURVE SMOOTH",
"582 438 OFFCURVE",
"459 501 OFFCURVE",
"365 501 CURVE SMOOTH",
"294 501 OFFCURVE",
"224 466 OFFCURVE",
"200 399 CURVE",
"213 380 LINE",
"213 642 LINE SMOOTH",
"213 687 OFFCURVE",
"178 710 OFFCURVE",
"137 710 CURVE SMOOTH",
"96 710 OFFCURVE",
"57 687 OFFCURVE",
"57 639 CURVE SMOOTH",
"57 67 LINE SMOOTH",
"57 16 OFFCURVE",
"94 -6 OFFCURVE",
"134 -6 CURVE SMOOTH"
);
},
{
closed = 1;
nodes = (
"257 112 OFFCURVE",
"211 152 OFFCURVE",
"211 248 CURVE SMOOTH",
"211 343 OFFCURVE",
"257 383 OFFCURVE",
"319 383 CURVE SMOOTH",
"389 383 OFFCURVE",
"427 334 OFFCURVE",
"427 250 CURVE SMOOTH",
"427 166 OFFCURVE",
"389 112 OFFCURVE",
"319 112 CURVE SMOOTH"
);
}
);
width = 615;
}
);
leftMetricsKey = n;
rightMetricsKey = o;
unicode = 0062;
userData = {
anchors = (
);
b = {
};
com.typemytype.robofont.layerData = {
b = {
anchors = (
);
components = (
);
contours = (
{
points = (
{
segmentType = curve;
smooth = 1;
x = 238;
y = 1425;
},
{
smooth = 0;
x = 198;
y = 1425;
},
{
smooth = 0;
x = 158;
y = 1400;
},
{
segmentType = curve;
smooth = 1;
x = 158;
y = 1351;
},
{
segmentType = line;
smooth = 1;
x = 158;
y = 76;
},
{
smooth = 0;
x = 158;
y = 27;
},
{
smooth = 0;
x = 197;
y = 3;
},
{
segmentType = curve;
smooth = 1;
x = 237;
y = 3;
},
{
smooth = 0;
x = 297;
y = 3;
},
{
smooth = 0;
x = 318;
y = 38;
},
{
segmentType = curve;
smooth = 1;
x = 318;
y = 76;
},
{
segmentType = line;
smooth = 0;
x = 318;
y = 183;
},
{
smooth = 0;
x = 384;
y = 46;
},
{
smooth = 0;
x = 516;
y = "-20";
},
{
segmentType = curve;
smooth = 1;
x = 666;
y = "-20";
},
{
smooth = 0;
x = 957;
y = "-20";
},
{
smooth = 0;
x = 1095;
y = 225;
},
{
segmentType = curve;
smooth = 1;
x = 1095;
y = 502;
},
{
smooth = 0;
x = 1095;
y = 777;
},
{
smooth = 0;
x = 939;
y = 1013;
},
{
segmentType = curve;
smooth = 1;
x = 650;
y = 1013;
},
{
smooth = 0;
x = 503;
y = 1013;
},
{
smooth = 0;
x = 376;
y = 942;
},
{
segmentType = curve;
smooth = 0;
x = 318;
y = 814;
},
{
segmentType = line;
smooth = 1;
x = 318;
y = 1351;
},
{
smooth = 0;
x = 318;
y = 1400;
},
{
smooth = 0;
x = 278;
y = 1425;
}
);
},
{
points = (
{
segmentType = curve;
smooth = 1;
x = 632;
y = 903;
},
{
smooth = 0;
x = 859;
y = 903;
},
{
smooth = 0;
x = 935;
y = 685;
},
{
segmentType = curve;
smooth = 1;
x = 935;
y = 496;
},
{
smooth = 0;
x = 935;
y = 316;
},
{
smooth = 0;
x = 869;
y = 93;
},
{
segmentType = curve;
smooth = 0;
x = 645;
y = 90;
},
{
smooth = 0;
x = 395;
y = 90;
},
{
smooth = 0;
x = 319;
y = 279;
},
{
segmentType = curve;
smooth = 1;
x = 319;
y = 501;
},
{
smooth = 0;
x = 319;
y = 701;
},
{
smooth = 0;
x = 407;
y = 903;
}
);
}
);
lib = {
};
name = b;
unicodes = (
);
width = 1181;
};
};
components = (
);
contours = (
);
lib = {
};
name = b;
unicodes = (
);
width = 1203;
};
},
{
glyphname = c;
lastChange = "2016-08-19 20:14:44 +0000";
layers = (
{
anchors = (
{
name = bottom;
position = "{269, 0}";
},
{
name = top;
position = "{271, 490}";
}
);
background = {
paths = (
{
closed = 1;
nodes = (
"919 -5 OFFCURVE",
"974 12 OFFCURVE",
"1010 38 CURVE SMOOTH",
"1036 57 OFFCURVE",
"1044 66 OFFCURVE",
"1044 81 CURVE SMOOTH",
"1044 93 OFFCURVE",
"1035 103 OFFCURVE",
"1024 103 CURVE SMOOTH",
"1001 103 OFFCURVE",
"962 44 OFFCURVE",
"872 44 CURVE SMOOTH",
"776 44 OFFCURVE",
"703 111 OFFCURVE",
"703 243 CURVE SMOOTH",
"703 382 OFFCURVE",
"783 446 OFFCURVE",
"873 446 CURVE SMOOTH",
"963 446 OFFCURVE",
"997 387 OFFCURVE",
"1021 387 CURVE SMOOTH",
"1032 387 OFFCURVE",
"1041 397 OFFCURVE",
"1041 409 CURVE SMOOTH",
"1041 424 OFFCURVE",
"1033 436 OFFCURVE",
"1007 455 CURVE SMOOTH",
"970 482 OFFCURVE",
"919 495 OFFCURVE",
"871 495 CURVE SMOOTH",
"748 495 OFFCURVE",
"646 407 OFFCURVE",
"646 243 CURVE SMOOTH",
"646 98 OFFCURVE",
"724 -5 OFFCURVE",
"869 -5 CURVE SMOOTH"
);
},
{
closed = 1;
nodes = (
"395 -5 OFFCURVE",
"488 88 OFFCURVE",
"488 245 CURVE SMOOTH",
"488 402 OFFCURVE",
"395 495 OFFCURVE",
"267 495 CURVE SMOOTH",
"139 495 OFFCURVE",
"46 402 OFFCURVE",
"46 245 CURVE SMOOTH",
"46 88 OFFCURVE",
"139 -5 OFFCURVE",
"267 -5 CURVE SMOOTH"
);
},
{
closed = 1;
nodes = (
"161 44 OFFCURVE",
"103 117 OFFCURVE",
"103 245 CURVE SMOOTH",
"103 368 OFFCURVE",
"161 446 OFFCURVE",
"267 446 CURVE SMOOTH",
"373 446 OFFCURVE",
"431 368 OFFCURVE",
"431 245 CURVE SMOOTH",
"431 117 OFFCURVE",
"373 44 OFFCURVE",
"266 44 CURVE SMOOTH"
);
}
);
};
layerId = "9E718F8A-2CEA-4931-B05D-987794BD97DA";
paths = (
{
closed = 1;
nodes = (
"319 -5 OFFCURVE",
"374 12 OFFCURVE",
"410 38 CURVE SMOOTH",
"436 57 OFFCURVE",
"444 66 OFFCURVE",
"444 81 CURVE SMOOTH",
"444 93 OFFCURVE",
"435 103 OFFCURVE",
"424 103 CURVE SMOOTH",
"401 103 OFFCURVE",
"362 44 OFFCURVE",
"272 44 CURVE SMOOTH",
"178 44 OFFCURVE",
"103 104 OFFCURVE",
"103 243 CURVE SMOOTH",
"103 382 OFFCURVE",
"178 446 OFFCURVE",
"273 446 CURVE SMOOTH",
"363 446 OFFCURVE",
"397 387 OFFCURVE",
"421 387 CURVE SMOOTH",
"432 387 OFFCURVE",
"441 397 OFFCURVE",
"441 409 CURVE SMOOTH",
"441 424 OFFCURVE",
"433 436 OFFCURVE",
"407 455 CURVE SMOOTH",
"370 482 OFFCURVE",
"319 495 OFFCURVE",
"271 495 CURVE SMOOTH",
"150 495 OFFCURVE",
"46 407 OFFCURVE",
"46 243 CURVE SMOOTH",
"46 79 OFFCURVE",
"150 -5 OFFCURVE",
"269 -5 CURVE SMOOTH"
);
}
);
width = 462;
},
{
anchors = (
{
name = bottom;
position = "{286, 0}";
},
{
name = top;
position = "{295, 495}";
}
);
background = {
paths = (
{
closed = 1;
nodes = (
"946 -6 OFFCURVE",
"1004 8 OFFCURVE",
"1049 36 CURVE SMOOTH",
"1068 48 OFFCURVE",
"1080 66 OFFCURVE",
"1080 92 CURVE SMOOTH",
"1080 123 OFFCURVE",
"1065 153 OFFCURVE",
"1034 153 CURVE SMOOTH",
"991 153 OFFCURVE",
"965 115 OFFCURVE",
"895 115 CURVE SMOOTH",
"827 115 OFFCURVE",
"793 160 OFFCURVE",
"793 248 CURVE SMOOTH",
"793 336 OFFCURVE",
"829 380 OFFCURVE",
"897 380 CURVE SMOOTH",
"965 380 OFFCURVE",
"991 342 OFFCURVE",
"1034 342 CURVE SMOOTH",
"1065 342 OFFCURVE",
"1080 372 OFFCURVE",
"1080 403 CURVE SMOOTH",
"1080 429 OFFCURVE",
"1068 447 OFFCURVE",
"1049 459 CURVE SMOOTH",
"1004 487 OFFCURVE",
"946 501 OFFCURVE",
"895 501 CURVE SMOOTH",
"734 501 OFFCURVE",
"633 393 OFFCURVE",
"633 245 CURVE SMOOTH",
"633 100 OFFCURVE",
"723 -6 OFFCURVE",
"886 -6 CURVE SMOOTH"
);
},
{
closed = 1;
nodes = (
"466 -6 OFFCURVE",
"557 104 OFFCURVE",
"557 248 CURVE SMOOTH",
"557 392 OFFCURVE",
"466 501 OFFCURVE",
"295 501 CURVE SMOOTH",
"124 501 OFFCURVE",
"33 392 OFFCURVE",
"33 248 CURVE SMOOTH",
"33 104 OFFCURVE",
"124 -6 OFFCURVE",
"295 -6 CURVE SMOOTH"
);
},
{
closed = 1;
nodes = (
"218 112 OFFCURVE",
"188 161 OFFCURVE",
"188 248 CURVE SMOOTH",
"188 335 OFFCURVE",
"218 384 OFFCURVE",
"295 384 CURVE SMOOTH",
"372 384 OFFCURVE",
"402 335 OFFCURVE",
"402 248 CURVE SMOOTH",
"402 161 OFFCURVE",
"372 112 OFFCURVE",
"295 112 CURVE SMOOTH"
);
}
);
};
layerId = "E1B555A7-F4E1-459C-9C1A-AE952106EEF9";
paths = (
{
closed = 1;
nodes = (
"346 -6 OFFCURVE",
"404 8 OFFCURVE",
"449 36 CURVE SMOOTH",
"468 48 OFFCURVE",
"480 66 OFFCURVE",
"480 92 CURVE SMOOTH",
"480 123 OFFCURVE",
"465 153 OFFCURVE",
"434 153 CURVE SMOOTH",
"391 153 OFFCURVE",
"362 113 OFFCURVE",
"305 113 CURVE SMOOTH",
"232 113 OFFCURVE",
"193 162 OFFCURVE",
"193 248 CURVE SMOOTH",
"193 334 OFFCURVE",
"232 382 OFFCURVE",
"305 382 CURVE SMOOTH",
"362 382 OFFCURVE",
"391 342 OFFCURVE",
"434 342 CURVE SMOOTH",
"465 342 OFFCURVE",
"480 372 OFFCURVE",
"480 403 CURVE SMOOTH",
"480 429 OFFCURVE",
"468 447 OFFCURVE",
"449 459 CURVE SMOOTH",
"404 487 OFFCURVE",
"346 501 OFFCURVE",
"295 501 CURVE SMOOTH",
"134 501 OFFCURVE",
"33 393 OFFCURVE",
"33 245 CURVE SMOOTH",
"33 100 OFFCURVE",
"123 -6 OFFCURVE",
"286 -6 CURVE SMOOTH"
);
}
);
width = 498;
}
);
leftMetricsKey = o;
unicode = 0063;
userData = {
anchors = (
);
b = {
};
com.typemytype.robofont.layerData = {
b = {
anchors = (
);
components = (
);
contours = (
);
lib = {
};
name = c;
unicodes = (
);
width = 956.1410;
};
};
components = (
);
contours = (
);
lib = {
};
name = c;
unicodes = (
);
width = 992;
};
},
{
glyphname = d;
lastChange = "2016-08-19 20:15:11 +0000";
layers = (
{
anchors = (
{
name = bottom;
position = "{283, 0}";
},
{
name = center;
position = "{283, 245}";
},
{
name = top;
position = "{283, 490}";
},
{
name = topright;
position = "{584, 705}";
}
);
background = {
paths = (
{
closed = 1;
nodes = (
"352 -5 OFFCURVE",
"418 40 OFFCURVE",
"441 117 CURVE",
"430 135 LINE",
"430 24 LINE SMOOTH",
"430 6 OFFCURVE",
"442 -4 OFFCURVE",
"458 -4 CURVE SMOOTH",
"474 -4 OFFCURVE",
"486 6 OFFCURVE",
"486 24 CURVE SMOOTH",
"486 682 LINE SMOOTH",
"486 700 OFFCURVE",
"474 710 OFFCURVE",
"458 710 CURVE SMOOTH",
"442 710 OFFCURVE",
"430 700 OFFCURVE",
"430 682 CURVE SMOOTH",
"430 355 LINE",
"441 373 LINE",
"418 450 OFFCURVE",
"352 495 OFFCURVE",
"262 495 CURVE SMOOTH",
"138 495 OFFCURVE",
"46 404 OFFCURVE",
"46 247 CURVE SMOOTH",
"46 90 OFFCURVE",
"138 -5 OFFCURVE",
"262 -5 CURVE SMOOTH"
);
},
{
closed = 1;
nodes = (
"161 44 OFFCURVE",
"103 124 OFFCURVE",
"103 247 CURVE SMOOTH",
"103 370 OFFCURVE",
"161 446 OFFCURVE",
"268 446 CURVE SMOOTH",
"377 446 OFFCURVE",
"430 368 OFFCURVE",
"430 245 CURVE SMOOTH",
"430 122 OFFCURVE",
"377 44 OFFCURVE",
"267 44 CURVE SMOOTH"
);
}
);
};
layerId = "9E718F8A-2CEA-4931-B05D-987794BD97DA";
paths = (
{
closed = 1;
nodes = (
"352 -5 OFFCURVE",
"418 40 OFFCURVE",
"441 117 CURVE",
"430 135 LINE",
"430 24 LINE SMOOTH",
"430 6 OFFCURVE",
"441 -4 OFFCURVE",
"457 -4 CURVE SMOOTH",
"473 -4 OFFCURVE",
"484 6 OFFCURVE",
"484 24 CURVE SMOOTH",
"484 682 LINE SMOOTH",
"484 700 OFFCURVE",
"473 710 OFFCURVE",
"457 710 CURVE SMOOTH",
"441 710 OFFCURVE",
"430 700 OFFCURVE",
"430 682 CURVE SMOOTH",
"430 355 LINE",
"441 373 LINE",
"418 450 OFFCURVE",
"352 495 OFFCURVE",
"262 495 CURVE SMOOTH",
"138 495 OFFCURVE",
"46 404 OFFCURVE",
"46 247 CURVE SMOOTH",
"46 90 OFFCURVE",
"138 -5 OFFCURVE",
"262 -5 CURVE SMOOTH"
);
},
{
closed = 1;
nodes = (
"161 44 OFFCURVE",
"103 124 OFFCURVE",
"103 247 CURVE SMOOTH",
"103 370 OFFCURVE",
"161 446 OFFCURVE",
"268 446 CURVE SMOOTH",
"377 446 OFFCURVE",
"430 368 OFFCURVE",
"430 245 CURVE SMOOTH",
"430 122 OFFCURVE",
"377 44 OFFCURVE",
"267 44 CURVE SMOOTH"
);
}
);
width = 565;
},
{
anchors = (
{
name = bottom;
position = "{308, 0}";
},
{
name = center;
position = "{308, 248}";
},
{
name = top;
position = "{308, 495}";
},
{
name = topright;
position = "{658, 705}";
}
);
background = {
paths = (
{
closed = 1;
nodes = (
"321 -6 OFFCURVE",
"391 29 OFFCURVE",
"415 96 CURVE",
"404 118 LINE",
"404 68 LINE SMOOTH",
"404 17 OFFCURVE",
"441 -5 OFFCURVE",
"481 -5 CURVE SMOOTH",
"521 -5 OFFCURVE",
"558 17 OFFCURVE",
"558 68 CURVE SMOOTH",
"558 639 LINE SMOOTH",
"558 687 OFFCURVE",
"519 710 OFFCURVE",
"478 710 CURVE SMOOTH",
"437 710 OFFCURVE",
"402 687 OFFCURVE",
"402 642 CURVE SMOOTH",
"402 380 LINE",
"415 399 LINE",
"391 466 OFFCURVE",
"321 501 OFFCURVE",
"250 501 CURVE SMOOTH",
"156 501 OFFCURVE",
"33 438 OFFCURVE",
"33 250 CURVE SMOOTH",
"33 62 OFFCURVE",
"156 -6 OFFCURVE",
"250 -6 CURVE SMOOTH"
);
},
{
closed = 1;
nodes = (
"226 112 OFFCURVE",
"188 166 OFFCURVE",
"188 250 CURVE SMOOTH",
"188 334 OFFCURVE",
"226 383 OFFCURVE",
"296 383 CURVE SMOOTH",
"358 383 OFFCURVE",
"404 343 OFFCURVE",
"404 248 CURVE SMOOTH",
"404 152 OFFCURVE",
"358 112 OFFCURVE",
"296 112 CURVE SMOOTH"
);
}
);
};
layerId = "E1B555A7-F4E1-459C-9C1A-AE952106EEF9";
paths = (
{
closed = 1;
nodes = (
"321 -6 OFFCURVE",
"391 29 OFFCURVE",
"415 96 CURVE",
"404 118 LINE",
"404 67 LINE SMOOTH",
"404 16 OFFCURVE",
"441 -6 OFFCURVE",
"481 -6 CURVE SMOOTH",
"521 -6 OFFCURVE",
"558 16 OFFCURVE",
"558 67 CURVE SMOOTH",
"558 639 LINE SMOOTH",
"558 687 OFFCURVE",
"519 710 OFFCURVE",
"478 710 CURVE SMOOTH",
"437 710 OFFCURVE",
"402 687 OFFCURVE",
"402 642 CURVE SMOOTH",
"402 380 LINE",
"415 399 LINE",
"391 466 OFFCURVE",
"321 501 OFFCURVE",
"250 501 CURVE SMOOTH",
"156 501 OFFCURVE",
"33 438 OFFCURVE",
"33 250 CURVE SMOOTH",
"33 62 OFFCURVE",
"156 -6 OFFCURVE",
"250 -6 CURVE SMOOTH"
);
},
{
closed = 1;
nodes = (
"226 112 OFFCURVE",
"188 166 OFFCURVE",
"188 250 CURVE SMOOTH",
"188 334 OFFCURVE",
"226 383 OFFCURVE",
"296 383 CURVE SMOOTH",
"358 383 OFFCURVE",
"404 343 OFFCURVE",
"404 248 CURVE SMOOTH",
"404 152 OFFCURVE",
"358 112 OFFCURVE",
"296 112 CURVE SMOOTH"
);
}
);
width = 615;
}
);
leftMetricsKey = o;
rightMetricsKey = "=|n";
unicode = 0064;
userData = {
anchors = (
);
b = {
};
com.typemytype.robofont.layerData = {
b = {
anchors = (
);
components = (
);
contours = (
);
lib = {
};
name = d;
unicodes = (
);
width = 1181;
};
};
components = (
);
contours = (
);
lib = {
};
name = d;
unicodes = (
);
width = 1207;
};
},
{
glyphname = eth;
lastChange = "2016-08-18 08:57:36 +0000";
layers = (
{
background = {
paths = (
{
closed = 1;
nodes = (
"1157 -16 OFFCURVE",
"1210 139 OFFCURVE",
"1210 297 CURVE SMOOTH",
"1210 362 OFFCURVE",
"1205 438 OFFCURVE",
"1188 512 CURVE",
"1255 512 LINE SMOOTH",
"1273 512 OFFCURVE",
"1284 527 OFFCURVE",
"1284 541 CURVE SMOOTH",
"1284 555 OFFCURVE",
"1275 569 OFFCURVE",
"1255 569 CURVE SMOOTH",
"1172 569 LINE",
"1155 619 OFFCURVE",
"1101 737 OFFCURVE",
"1053 737 CURVE SMOOTH",
"1036 737 OFFCURVE",
"1021 724 OFFCURVE",
"1021 709 CURVE SMOOTH",
"1021 702 OFFCURVE",
"1024 694 OFFCURVE",
"1032 688 CURVE",
"1065 650 OFFCURVE",
"1085 611 OFFCURVE",
"1102 569 CURVE",
"1018 569 LINE SMOOTH",
"998 569 OFFCURVE",
"989 554 OFFCURVE",
"989 540 CURVE SMOOTH",
"989 526 OFFCURVE",
"998 512 OFFCURVE",
"1018 512 CURVE SMOOTH",
"1121 512 LINE",
"1137 436 OFFCURVE",
"1141 384 OFFCURVE",
"1141 328 CURVE",
"1141 320 LINE",
"1112 393 OFFCURVE",
"1040 430 OFFCURVE",
"959 430 CURVE SMOOTH",
"822 430 OFFCURVE",
"747 335 OFFCURVE",
"747 210 CURVE SMOOTH",
"747 83 OFFCURVE",
"828 -16 OFFCURVE",
"964 -16 CURVE SMOOTH"
);
},
{
closed = 1;
nodes = (
"870 40 OFFCURVE",
"814 111 OFFCURVE",
"814 205 CURVE SMOOTH",
"814 294 OFFCURVE",
"856 379 OFFCURVE",
"961 379 CURVE SMOOTH",
"1072 379 OFFCURVE",
"1131 301 OFFCURVE",
"1131 201 CURVE SMOOTH",
"1131 117 OFFCURVE",
"1065 40 OFFCURVE",
"973 40 CURVE SMOOTH"
);
},
{
closed = 1;
nodes = (
"435 -6 OFFCURVE",
"544 91 OFFCURVE",
"544 290 CURVE SMOOTH",
"544 473 OFFCURVE",
"392 645 OFFCURVE",
"225 706 CURVE SMOOTH",
"138 738 OFFCURVE",
"89 637 OFFCURVE",
"167 602 CURVE SMOOTH",
"256 562 OFFCURVE",
"398 470 OFFCURVE",
"398 326 CURVE",
"439 321 LINE",
"409 429 OFFCURVE",
"333 455 OFFCURVE",
"254 455 CURVE SMOOTH",
"111 455 OFFCURVE",
"13 358 OFFCURVE",
"13 226 CURVE SMOOTH",
"13 94 OFFCURVE",
"110 -6 OFFCURVE",
"269 -6 CURVE SMOOTH"
);
},
{
closed = 1;
nodes = (
"203 112 OFFCURVE",
"168 153 OFFCURVE",
"168 226 CURVE SMOOTH",
"168 299 OFFCURVE",
"203 340 OFFCURVE",
"275 340 CURVE SMOOTH",
"347 340 OFFCURVE",
"382 299 OFFCURVE",
"382 226 CURVE SMOOTH",
"382 153 OFFCURVE",
"347 112 OFFCURVE",
"275 112 CURVE SMOOTH"
);
},
{
closed = 1;
nodes = (
"493 553 LINE SMOOTH",
"553 569 OFFCURVE",
"531 654 OFFCURVE",
"472 638 CURVE SMOOTH",
"163 556 LINE SMOOTH",
"104 540 OFFCURVE",
"126 455 OFFCURVE",
"185 471 CURVE SMOOTH"
);
}
);
};
guideLines = (
{
angle = 90;
position = "{163, 496}";
},
{
angle = 90;
position = "{491, 496}";
}
);
layerId = "9E718F8A-2CEA-4931-B05D-987794BD97DA";
paths = (
{
closed = 1;
nodes = (
"409 -5 OFFCURVE",
"491 88 OFFCURVE",
"491 279 CURVE SMOOTH",
"491 516 OFFCURVE",
"352 645 OFFCURVE",
"209 704 CURVE SMOOTH",
"163 723 OFFCURVE",
"143 676 OFFCURVE",
"187 658 CURVE SMOOTH",
"324 602 OFFCURVE",
"438 482 OFFCURVE",
"438 291 CURVE",
"464 289 LINE",
"445 383 OFFCURVE",
"388 455 OFFCURVE",
"267 455 CURVE SMOOTH",
"139 455 OFFCURVE",
"46 369 OFFCURVE",
"46 225 CURVE SMOOTH",
"46 79 OFFCURVE",
"139 -5 OFFCURVE",
"266 -5 CURVE SMOOTH"
);
},
{
closed = 1;
nodes = (
"161 44 OFFCURVE",
"103 110 OFFCURVE",
"103 225 CURVE SMOOTH",
"103 336 OFFCURVE",
"161 406 OFFCURVE",
"267 406 CURVE SMOOTH",
"373 406 OFFCURVE",
"431 336 OFFCURVE",
"431 225 CURVE SMOOTH",
"431 110 OFFCURVE",
"368 44 OFFCURVE",
"266 44 CURVE SMOOTH"
);
},
{
closed = 1;
nodes = (
"473 625 LINE SMOOTH",
"502 637 OFFCURVE",
"485 676 OFFCURVE",
"457 665 CURVE SMOOTH",
"178 554 LINE SMOOTH",
"150 543 OFFCURVE",
"167 502 OFFCURVE",
"194 513 CURVE SMOOTH"
);
}
);
width = 537;
},
{
background = {
paths = (
{
closed = 1;
nodes = (
"455 -6 OFFCURVE",
"564 94 OFFCURVE",
"564 290 CURVE SMOOTH",
"564 473 OFFCURVE",
"412 644 OFFCURVE",
"245 706 CURVE SMOOTH",
"158 738 OFFCURVE",
"109 637 OFFCURVE",
"187 602 CURVE SMOOTH",
"276 561 OFFCURVE",
"418 470 OFFCURVE",
"418 326 CURVE",
"459 321 LINE",
"429 429 OFFCURVE",
"353 455 OFFCURVE",
"274 455 CURVE SMOOTH",
"131 455 OFFCURVE",
"33 358 OFFCURVE",
"33 226 CURVE SMOOTH",
"33 94 OFFCURVE",
"130 -6 OFFCURVE",
"289 -6 CURVE SMOOTH"
);
},
{
closed = 1;
nodes = (
"223 112 OFFCURVE",
"188 153 OFFCURVE",
"188 226 CURVE SMOOTH",
"188 299 OFFCURVE",
"223 340 OFFCURVE",
"295 340 CURVE SMOOTH",
"367 340 OFFCURVE",
"402 299 OFFCURVE",
"402 226 CURVE SMOOTH",
"402 156 OFFCURVE",
"367 112 OFFCURVE",
"295 112 CURVE SMOOTH"
);
},
{
closed = 1;
nodes = (
"513 553 LINE SMOOTH",
"573 569 OFFCURVE",
"551 654 OFFCURVE",
"492 638 CURVE SMOOTH",
"183 556 LINE SMOOTH",
"124 540 OFFCURVE",
"146 455 OFFCURVE",
"205 471 CURVE SMOOTH"
);
}
);
};
guideLines = (
{
angle = 90;
position = "{148, 292}";
},
{
angle = 90;
position = "{563, 292}";
}
);
layerId = "E1B555A7-F4E1-459C-9C1A-AE952106EEF9";
paths = (
{
closed = 1;
nodes = (
"455 -6 OFFCURVE",
"564 94 OFFCURVE",
"564 290 CURVE SMOOTH",
"564 473 OFFCURVE",
"412 644 OFFCURVE",
"245 706 CURVE SMOOTH",
"158 738 OFFCURVE",
"109 637 OFFCURVE",
"187 602 CURVE SMOOTH",
"276 561 OFFCURVE",
"418 470 OFFCURVE",
"418 326 CURVE",
"459 321 LINE",
"429 429 OFFCURVE",
"353 455 OFFCURVE",
"274 455 CURVE SMOOTH",
"131 455 OFFCURVE",
"33 358 OFFCURVE",
"33 226 CURVE SMOOTH",
"33 94 OFFCURVE",
"130 -6 OFFCURVE",
"289 -6 CURVE SMOOTH"
);
},
{
closed = 1;
nodes = (
"223 112 OFFCURVE",
"188 153 OFFCURVE",
"188 226 CURVE SMOOTH",
"188 299 OFFCURVE",
"223 340 OFFCURVE",
"295 340 CURVE SMOOTH",
"367 340 OFFCURVE",
"402 299 OFFCURVE",
"402 226 CURVE SMOOTH",
"402 156 OFFCURVE",
"367 112 OFFCURVE",
"295 112 CURVE SMOOTH"
);
},
{
closed = 1;
nodes = (
"522 561 LINE SMOOTH",
"582 577 OFFCURVE",
"562 656 OFFCURVE",
"503 640 CURVE SMOOTH",
"183 555 LINE SMOOTH",
"124 539 OFFCURVE",
"144 460 OFFCURVE",
"203 476 CURVE SMOOTH"
);
}
);
width = 597;
}
);
leftMetricsKey = o;
rightMetricsKey = o;
unicode = 00F0;
userData = {
com.typemytype.robofont.layerData = {
b = {
anchors = (
);
components = (
);
contours = (
);
lib = {
};
name = eth;
unicodes = (
);
width = 1230;
};
};
};
},
{
color = 3;
glyphname = dcroat;
lastChange = "2016-08-19 14:24:03 +0000";
layers = (
{
background = {
components = (
{
name = d;
},
{
name = macron;
transform = "{1, 0, 0, 1, 287, -35}";
}
);
};
layerId = "9E718F8A-2CEA-4931-B05D-987794BD97DA";
paths = (
{
closed = 1;
nodes = (
"352 -5 OFFCURVE",
"418 40 OFFCURVE",
"441 117 CURVE",
"430 135 LINE",
"430 24 LINE SMOOTH",
"430 6 OFFCURVE",
"441 -4 OFFCURVE",
"457 -4 CURVE SMOOTH",
"473 -4 OFFCURVE",
"484 6 OFFCURVE",
"484 24 CURVE SMOOTH",
"484 682 LINE SMOOTH",
"484 700 OFFCURVE",
"473 710 OFFCURVE",
"457 710 CURVE SMOOTH",
"441 710 OFFCURVE",
"430 700 OFFCURVE",
"430 682 CURVE SMOOTH",
"430 355 LINE",
"441 373 LINE",
"418 450 OFFCURVE",
"352 495 OFFCURVE",
"262 495 CURVE SMOOTH",
"138 495 OFFCURVE",
"46 404 OFFCURVE",
"46 247 CURVE SMOOTH",
"46 90 OFFCURVE",
"138 -5 OFFCURVE",
"262 -5 CURVE SMOOTH"
);
},
{
closed = 1;
nodes = (
"161 44 OFFCURVE",
"103 124 OFFCURVE",
"103 247 CURVE SMOOTH",
"103 370 OFFCURVE",
"161 446 OFFCURVE",
"268 446 CURVE SMOOTH",
"377 446 OFFCURVE",
"430 368 OFFCURVE",
"430 245 CURVE SMOOTH",
"430 122 OFFCURVE",
"377 44 OFFCURVE",
"267 44 CURVE SMOOTH"
);
},
{
closed = 1;
nodes = (
"561 563 LINE SMOOTH",
"575 563 OFFCURVE",
"584 572 OFFCURVE",
"584 585 CURVE SMOOTH",
"584 598 OFFCURVE",
"575 608 OFFCURVE",
"561 608 CURVE SMOOTH",
"253 608 LINE SMOOTH",
"239 608 OFFCURVE",
"230 598 OFFCURVE",
"230 585 CURVE SMOOTH",
"230 572 OFFCURVE",
"239 563 OFFCURVE",
"253 563 CURVE SMOOTH"
);
}
);
width = 565;
},
{
background = {
paths = (
{
closed = 1;
nodes = (
"593 526 LINE SMOOTH",
"636 526 OFFCURVE",
"658 547 OFFCURVE",
"658 580 CURVE SMOOTH",
"658 613 OFFCURVE",
"636 634 OFFCURVE",
"593 634 CURVE SMOOTH",
"362 634 LINE SMOOTH",
"319 634 OFFCURVE",
"297 613 OFFCURVE",
"297 580 CURVE SMOOTH",
"297 547 OFFCURVE",
"319 526 OFFCURVE",
"362 526 CURVE SMOOTH"
);
},
{
closed = 1;
nodes = (
"321 -6 OFFCURVE",
"391 29 OFFCURVE",
"415 96 CURVE",
"404 118 LINE",
"404 67 LINE SMOOTH",
"404 16 OFFCURVE",
"441 -6 OFFCURVE",
"481 -6 CURVE SMOOTH",
"521 -6 OFFCURVE",
"558 16 OFFCURVE",
"558 67 CURVE SMOOTH",
"558 639 LINE SMOOTH",
"558 687 OFFCURVE",
"519 710 OFFCURVE",
"478 710 CURVE SMOOTH",
"437 710 OFFCURVE",
"402 687 OFFCURVE",
"402 642 CURVE SMOOTH",
"402 380 LINE",
"415 399 LINE",
"391 466 OFFCURVE",
"321 501 OFFCURVE",
"250 501 CURVE SMOOTH",
"156 501 OFFCURVE",
"33 438 OFFCURVE",
"33 250 CURVE SMOOTH",
"33 62 OFFCURVE",
"156 -6 OFFCURVE",
"250 -6 CURVE SMOOTH"
);
},
{
closed = 1;
nodes = (
"226 112 OFFCURVE",
"188 166 OFFCURVE",
"188 250 CURVE SMOOTH",
"188 334 OFFCURVE",
"226 383 OFFCURVE",
"296 383 CURVE SMOOTH",
"358 383 OFFCURVE",
"404 343 OFFCURVE",
"404 248 CURVE SMOOTH",
"404 152 OFFCURVE",
"358 112 OFFCURVE",
"296 112 CURVE SMOOTH"
);
}
);
};
layerId = "E1B555A7-F4E1-459C-9C1A-AE952106EEF9";
paths = (
{
closed = 1;
nodes = (
"321 -6 OFFCURVE",
"391 29 OFFCURVE",
"415 96 CURVE",
"404 118 LINE",
"404 67 LINE SMOOTH",
"404 16 OFFCURVE",
"441 -6 OFFCURVE",
"481 -6 CURVE SMOOTH",
"521 -6 OFFCURVE",
"558 16 OFFCURVE",
"558 67 CURVE SMOOTH",
"558 648 LINE SMOOTH",
"558 687 OFFCURVE",
"519 710 OFFCURVE",
"478 710 CURVE SMOOTH",
"437 710 OFFCURVE",
"402 687 OFFCURVE",
"402 648 CURVE SMOOTH",
"402 380 LINE",
"415 399 LINE",
"391 466 OFFCURVE",
"321 501 OFFCURVE",
"250 501 CURVE SMOOTH",
"156 501 OFFCURVE",
"33 438 OFFCURVE",
"33 250 CURVE SMOOTH",
"33 62 OFFCURVE",
"156 -6 OFFCURVE",
"250 -6 CURVE SMOOTH"
);
},
{
closed = 1;
nodes = (
"226 112 OFFCURVE",
"188 166 OFFCURVE",
"188 250 CURVE SMOOTH",
"188 334 OFFCURVE",
"226 383 OFFCURVE",
"296 383 CURVE SMOOTH",
"358 383 OFFCURVE",
"404 343 OFFCURVE",
"404 248 CURVE SMOOTH",
"404 152 OFFCURVE",
"358 112 OFFCURVE",
"296 112 CURVE SMOOTH"
);
},
{
closed = 1;
nodes = (
"593 531 LINE SMOOTH",
"636 531 OFFCURVE",
"658 552 OFFCURVE",
"658 585 CURVE SMOOTH",
"658 618 OFFCURVE",
"636 639 OFFCURVE",
"593 639 CURVE SMOOTH",
"267 639 LINE SMOOTH",
"224 639 OFFCURVE",
"202 618 OFFCURVE",
"202 585 CURVE SMOOTH",
"202 552 OFFCURVE",
"224 531 OFFCURVE",
"267 531 CURVE SMOOTH"
);
}
);
width = 615;
}
);
leftMetricsKey = d;
widthMetricsKey = d;
unicode = 0111;
userData = {
com.typemytype.robofont.layerData = {
b = {
anchors = (
);
components = (
);
contours = (
);
lib = {
};
name = dcroat;
unicodes = (
);
width = 1181;
};
};
};
},
{
glyphname = e;
lastChange = "2016-08-19 20:15:53 +0000";
layers = (
{
anchors = (
{
name = bottom;
position = "{283, 0}";
},
{
name = ogonek;
position = "{373, 10}";
},
{
name = top;
position = "{272, 490}";
}
);
background = {
paths = (
{
closed = 1;
nodes = (
"332 -5 OFFCURVE",
"385 8 OFFCURVE",
"435 38 CURVE SMOOTH",
"460 53 OFFCURVE",
"469 66 OFFCURVE",
"469 80 CURVE SMOOTH",
"469 93 OFFCURVE",
"460 103 OFFCURVE",
"449 103 CURVE SMOOTH",
"426 103 OFFCURVE",
"384 44 OFFCURVE",
"283 44 CURVE SMOOTH",
"175 44 OFFCURVE",
"103 106 OFFCURVE",
"103 246 CURVE SMOOTH",
"103 381 OFFCURVE",
"174 449 OFFCURVE",
"272 449 CURVE SMOOTH",
"364 449 OFFCURVE",
"427 390 OFFCURVE",
"423 256 CURVE",
"443 279 LINE",
"93 279 LINE",
"94 236 LINE",
"440 236 LINE SMOOTH",
"464 236 OFFCURVE",
"473 247 OFFCURVE",
"473 271 CURVE SMOOTH",
"473 396 OFFCURVE",
"407 495 OFFCURVE",
"272 495 CURVE SMOOTH",
"140 495 OFFCURVE",
"46 396 OFFCURVE",
"46 244 CURVE SMOOTH",
"46 82 OFFCURVE",
"143 -5 OFFCURVE",
"284 -5 CURVE SMOOTH"
);
}
);
};
guideLines = (
{
angle = 90;
position = "{473, 186}";
}
);
layerId = "9E718F8A-2CEA-4931-B05D-987794BD97DA";
paths = (
{
closed = 1;
nodes = (
"331 -5 OFFCURVE",
"384 8 OFFCURVE",
"434 38 CURVE SMOOTH",
"459 53 OFFCURVE",
"468 66 OFFCURVE",
"468 80 CURVE SMOOTH",
"468 93 OFFCURVE",
"459 103 OFFCURVE",
"448 103 CURVE SMOOTH",
"425 103 OFFCURVE",
"383 44 OFFCURVE",
"282 44 CURVE SMOOTH",
"175 44 OFFCURVE",
"103 106 OFFCURVE",
"103 246 CURVE SMOOTH",
"103 381 OFFCURVE",
"174 449 OFFCURVE",
"272 449 CURVE SMOOTH",
"364 449 OFFCURVE",
"427 390 OFFCURVE",
"423 256 CURVE",
"443 279 LINE",
"93 279 LINE",
"94 236 LINE",
"440 236 LINE SMOOTH",
"464 236 OFFCURVE",
"473 247 OFFCURVE",
"473 271 CURVE SMOOTH",
"473 396 OFFCURVE",
"407 495 OFFCURVE",
"272 495 CURVE SMOOTH",
"140 495 OFFCURVE",
"46 396 OFFCURVE",
"46 244 CURVE SMOOTH",
"46 82 OFFCURVE",
"143 -5 OFFCURVE",
"283 -5 CURVE SMOOTH"
);
}
);
width = 517;
},
{
anchors = (
{
name = bottom;
position = "{297, 0}";
},
{
name = ogonek;
position = "{398, 10}";
},
{
name = top;
position = "{276, 495}";
}
);
background = {
paths = (
{
closed = 1;
nodes = (
"361 -6 OFFCURVE",
"426 13 OFFCURVE",
"466 35 CURVE SMOOTH",
"488 47 OFFCURVE",
"504 66 OFFCURVE",
"504 92 CURVE SMOOTH",
"504 122 OFFCURVE",
"489 150 OFFCURVE",
"458 150 CURVE SMOOTH",
"419 150 OFFCURVE",
"378 110 OFFCURVE",
"303 110 CURVE SMOOTH",
"220 110 OFFCURVE",
"182 150 OFFCURVE",
"182 263 CURVE SMOOTH",
"182 353 OFFCURVE",
"221 394 OFFCURVE",
"280 394 CURVE SMOOTH",
"339 394 OFFCURVE",
"370 353 OFFCURVE",
"370 278 CURVE",
"408 293 LINE",
"172 293 LINE",
"171 216 LINE",
"461 216 LINE SMOOTH",
"488 216 OFFCURVE",
"501 234 OFFCURVE",
"501 262 CURVE SMOOTH",
"501 399 OFFCURVE",
"420 501 OFFCURVE",
"276 501 CURVE SMOOTH",
"137 501 OFFCURVE",
"33 399 OFFCURVE",
"33 247 CURVE SMOOTH",
"33 92 OFFCURVE",
"135 -6 OFFCURVE",
"300 -6 CURVE SMOOTH"
);
}
);
};
guideLines = (
{
angle = 90;
position = "{501, 186}";
}
);
layerId = "E1B555A7-F4E1-459C-9C1A-AE952106EEF9";
paths = (
{
closed = 1;
nodes = (
"355 -6 OFFCURVE",
"420 13 OFFCURVE",
"460 35 CURVE SMOOTH",
"482 47 OFFCURVE",
"498 66 OFFCURVE",
"498 92 CURVE SMOOTH",
"498 122 OFFCURVE",
"483 150 OFFCURVE",
"452 150 CURVE SMOOTH",
"415 150 OFFCURVE",
"372 110 OFFCURVE",
"300 110 CURVE SMOOTH",
"220 110 OFFCURVE",
"182 150 OFFCURVE",
"182 263 CURVE SMOOTH",
"182 353 OFFCURVE",
"221 394 OFFCURVE",
"280 394 CURVE SMOOTH",
"339 394 OFFCURVE",
"370 353 OFFCURVE",
"370 278 CURVE",
"408 293 LINE",
"172 293 LINE",
"171 216 LINE",
"461 216 LINE SMOOTH",
"488 216 OFFCURVE",
"501 234 OFFCURVE",
"501 262 CURVE SMOOTH",
"501 399 OFFCURVE",
"420 501 OFFCURVE",
"276 501 CURVE SMOOTH",
"137 501 OFFCURVE",
"33 399 OFFCURVE",
"33 247 CURVE SMOOTH",
"33 92 OFFCURVE",
"135 -6 OFFCURVE",
"297 -6 CURVE SMOOTH"
);
}
);
width = 533;
}
);
leftMetricsKey = o;
unicode = 0065;
userData = {
anchors = (
);
b = {
};
com.typemytype.robofont.layerData = {
b = {
anchors = (
);
components = (
);
contours = (
);
lib = {
};
name = e;
unicodes = (
);
width = 1132;
};
};
components = (
);
contours = (
);
lib = {
};
name = e;
unicodes = (
);
width = 1132;
};
},
{
glyphname = schwa;
lastChange = "2016-08-18 08:57:36 +0000";
layers = (
{
background = {
paths = (
{
closed = 1;
nodes = (
"186 495 OFFCURVE",
"133 482 OFFCURVE",
"83 452 CURVE SMOOTH",
"58 437 OFFCURVE",
"49 424 OFFCURVE",
"49 410 CURVE SMOOTH",
"49 397 OFFCURVE",
"58 387 OFFCURVE",
"69 387 CURVE SMOOTH",
"92 387 OFFCURVE",
"134 446 OFFCURVE",
"235 446 CURVE SMOOTH",
"342 446 OFFCURVE",
"414 384 OFFCURVE",
"414 244 CURVE SMOOTH",
"414 109 OFFCURVE",
"343 41 OFFCURVE",
"245 41 CURVE SMOOTH",
"153 41 OFFCURVE",
"90 100 OFFCURVE",
"94 234 CURVE",
"74 211 LINE",
"424 211 LINE",
"423 254 LINE",
"77 254 LINE SMOOTH",
"53 254 OFFCURVE",
"44 243 OFFCURVE",
"44 219 CURVE SMOOTH",
"44 94 OFFCURVE",
"110 -5 OFFCURVE",
"245 -5 CURVE SMOOTH",
"377 -5 OFFCURVE",
"471 94 OFFCURVE",
"471 246 CURVE SMOOTH",
"471 408 OFFCURVE",
"374 495 OFFCURVE",
"234 495 CURVE SMOOTH"
);
}
);
};
layerId = "9E718F8A-2CEA-4931-B05D-987794BD97DA";
paths = (
{
closed = 1;
nodes = (
"380 -5 OFFCURVE",
"471 91 OFFCURVE",
"471 246 CURVE SMOOTH",
"471 408 OFFCURVE",
"374 495 OFFCURVE",
"238 495 CURVE SMOOTH",
"189 495 OFFCURVE",
"137 482 OFFCURVE",
"87 452 CURVE SMOOTH",
"62 437 OFFCURVE",
"53 424 OFFCURVE",
"53 410 CURVE SMOOTH",
"53 397 OFFCURVE",
"62 387 OFFCURVE",
"73 387 CURVE SMOOTH",
"96 387 OFFCURVE",
"136 446 OFFCURVE",
"239 446 CURVE SMOOTH",
"342 446 OFFCURVE",
"415 384 OFFCURVE",
"415 244 CURVE SMOOTH",
"415 106 OFFCURVE",
"347 41 OFFCURVE",
"249 41 CURVE SMOOTH",
"157 41 OFFCURVE",
"93 97 OFFCURVE",
"97 234 CURVE",
"74 211 LINE",
"424 211 LINE",
"423 254 LINE",
"77 254 LINE SMOOTH",
"53 254 OFFCURVE",
"44 243 OFFCURVE",
"44 219 CURVE SMOOTH",
"44 91 OFFCURVE",
"113 -5 OFFCURVE",
"248 -5 CURVE SMOOTH"
);
}
);
width = 517;
},
{
layerId = "E1B555A7-F4E1-459C-9C1A-AE952106EEF9";
paths = (
{
closed = 1;
nodes = (
"396 -6 OFFCURVE",
"500 96 OFFCURVE",
"500 248 CURVE SMOOTH",
"500 403 OFFCURVE",
"398 501 OFFCURVE",
"242 501 CURVE SMOOTH",
"180 501 OFFCURVE",
"117 482 OFFCURVE",
"77 460 CURVE SMOOTH",
"55 448 OFFCURVE",
"39 429 OFFCURVE",
"39 403 CURVE SMOOTH",
"39 373 OFFCURVE",
"54 345 OFFCURVE",
"85 345 CURVE SMOOTH",
"122 345 OFFCURVE",
"165 385 OFFCURVE",
"235 385 CURVE SMOOTH",
"313 385 OFFCURVE",
"354 345 OFFCURVE",
"354 232 CURVE SMOOTH",
"354 142 OFFCURVE",
"315 101 OFFCURVE",
"258 101 CURVE SMOOTH",
"197 101 OFFCURVE",
"167 142 OFFCURVE",
"167 217 CURVE",
"125 202 LINE",
"361 202 LINE",
"362 279 LINE",
"72 279 LINE SMOOTH",
"45 279 OFFCURVE",
"32 261 OFFCURVE",
"32 233 CURVE SMOOTH",
"32 91 OFFCURVE",
"113 -6 OFFCURVE",
"265 -6 CURVE SMOOTH"
);
}
);
width = 533;
}
);
leftMetricsKey = "=|e";
rightMetricsKey = o;
unicode = 0259;
},
{
glyphname = f;
lastChange = "2016-08-19 20:16:57 +0000";
layers = (
{
anchors = (
{
name = bottom;
position = "{132, 0}";
},
{
name = top;
position = "{132, 490}";
}
);
background = {
paths = (
{
closed = 1;
nodes = (
"147 -5 OFFCURVE",
"159 5 OFFCURVE",
"159 23 CURVE SMOOTH",
"159 520 LINE SMOOTH",
"159 611 OFFCURVE",
"202 650 OFFCURVE",
"277 656 CURVE SMOOTH",
"303 658 LINE SMOOTH",
"324 660 OFFCURVE",
"330 670 OFFCURVE",
"330 683 CURVE SMOOTH",
"330 700 OFFCURVE",
"318 707 OFFCURVE",
"295 705 CURVE SMOOTH",
"269 703 LINE SMOOTH",
"161 695 OFFCURVE",
"105 625 OFFCURVE",
"105 510 CURVE SMOOTH",
"105 23 LINE SMOOTH",
"105 5 OFFCURVE",
"116 -5 OFFCURVE",
"132 -5 CURVE SMOOTH"
);
},
{
closed = 1;
nodes = (
"285 445 LINE SMOOTH",
"299 445 OFFCURVE",
"308 454 OFFCURVE",
"308 467 CURVE SMOOTH",
"308 480 OFFCURVE",
"299 490 OFFCURVE",
"285 490 CURVE SMOOTH",
"27 490 LINE SMOOTH",
"13 490 OFFCURVE",
"4 480 OFFCURVE",
"4 467 CURVE SMOOTH",
"4 454 OFFCURVE",
"13 445 OFFCURVE",
"27 445 CURVE SMOOTH"
);
}
);
};
layerId = "9E718F8A-2CEA-4931-B05D-987794BD97DA";
paths = (
{
closed = 1;
nodes = (
"147 -5 OFFCURVE",
"159 5 OFFCURVE",
"159 23 CURVE SMOOTH",
"159 521 LINE SMOOTH",
"159 612 OFFCURVE",
"202 651 OFFCURVE",
"277 657 CURVE SMOOTH",
"303 659 LINE SMOOTH",
"324 661 OFFCURVE",
"330 671 OFFCURVE",
"330 684 CURVE SMOOTH",
"330 701 OFFCURVE",
"318 708 OFFCURVE",
"295 706 CURVE SMOOTH",
"269 704 LINE SMOOTH",
"161 696 OFFCURVE",
"105 626 OFFCURVE",
"105 511 CURVE SMOOTH",
"105 23 LINE SMOOTH",
"105 5 OFFCURVE",
"116 -5 OFFCURVE",
"132 -5 CURVE SMOOTH"
);
},
{
closed = 1;
nodes = (
"285 445 LINE SMOOTH",
"299 445 OFFCURVE",
"308 454 OFFCURVE",
"308 467 CURVE SMOOTH",
"308 480 OFFCURVE",
"299 490 OFFCURVE",
"285 490 CURVE SMOOTH",
"27 490 LINE SMOOTH",
"13 490 OFFCURVE",
"4 480 OFFCURVE",
"4 467 CURVE SMOOTH",
"4 454 OFFCURVE",
"13 445 OFFCURVE",
"27 445 CURVE SMOOTH"
);
}
);
width = 315;
},
{
anchors = (
{
name = bottom;
position = "{175, 0}";
},
{
name = top;
position = "{175, 495}";
}
);
background = {
paths = (
{
closed = 1;
nodes = (
"216 -5 OFFCURVE",
"253 17 OFFCURVE",
"253 68 CURVE",
"253 528 LINE SMOOTH",
"253 569 OFFCURVE",
"274 588 OFFCURVE",
"317 588 CURVE SMOOTH",
"343 588 LINE SMOOTH",
"391 588 OFFCURVE",
"413 610 OFFCURVE",
"413 647 CURVE SMOOTH",
"413 684 OFFCURVE",
"391 705 OFFCURVE",
"343 705 CURVE SMOOTH",
"288 705 LINE SMOOTH",
"165 705 OFFCURVE",
"97 637 OFFCURVE",
"97 536 CURVE SMOOTH",
"97 68 LINE SMOOTH",
"97 17 OFFCURVE",
"134 -5 OFFCURVE",
"175 -5 CURVE SMOOTH"
);
},
{
closed = 1;
nodes = (
"160 374 LINE",
"160 490 LINE",
"49 490 LINE SMOOTH",
"1 490 OFFCURVE",
"-21 469 OFFCURVE",
"-21 432 CURVE SMOOTH",
"-21 395 OFFCURVE",
"1 374 OFFCURVE",
"49 374 CURVE SMOOTH"
);
},
{
closed = 1;
nodes = (
"335 374 LINE SMOOTH",
"383 374 OFFCURVE",
"405 395 OFFCURVE",
"405 432 CURVE SMOOTH",
"405 469 OFFCURVE",
"383 490 OFFCURVE",
"335 490 CURVE SMOOTH",
"228 490 LINE",
"228 374 LINE"
);
}
);
};
layerId = "E1B555A7-F4E1-459C-9C1A-AE952106EEF9";
paths = (
{
closed = 1;
nodes = (
"216 -5 OFFCURVE",
"253 17 OFFCURVE",
"253 68 CURVE SMOOTH",
"253 507 LINE SMOOTH",
"253 556 OFFCURVE",
"272 588 OFFCURVE",
"327 592 CURVE SMOOTH",
"353 594 LINE SMOOTH",
"390 597 OFFCURVE",
"413 615 OFFCURVE",
"413 652 CURVE SMOOTH",
"413 689 OFFCURVE",
"391 711 OFFCURVE",
"323 706 CURVE SMOOTH",
"297 704 LINE SMOOTH",
"175 695 OFFCURVE",
"97 621 OFFCURVE",
"97 490 CURVE SMOOTH",
"97 68 LINE SMOOTH",
"97 17 OFFCURVE",
"134 -5 OFFCURVE",
"175 -5 CURVE SMOOTH"
);
},
{
closed = 1;
nodes = (
"320 379 LINE SMOOTH",
"368 379 OFFCURVE",
"390 400 OFFCURVE",
"390 437 CURVE SMOOTH",
"390 474 OFFCURVE",
"368 495 OFFCURVE",
"320 495 CURVE SMOOTH",
"59 495 LINE SMOOTH",
"11 495 OFFCURVE",
"-11 474 OFFCURVE",
"-11 437 CURVE SMOOTH",
"-11 400 OFFCURVE",
"11 379 OFFCURVE",
"59 379 CURVE SMOOTH"
);
}
);
width = 387;
}
);
unicode = 0066;
userData = {
anchors = (
);
b = {
};
com.typemytype.robofont.layerData = {
b = {
anchors = (
);
components = (
);
contours = (
);
lib = {
};
name = f;
unicodes = (
);
width = 696;
};
};
components = (
);
contours = (
);
lib = {
};
name = f;
unicodes = (
);
width = 723;
};
},
{
glyphname = g;
lastChange = "2016-08-19 20:17:18 +0000";
layers = (
{
anchors = (
{
name = bottom;
position = "{285, 0}";
},
{
name = top;
position = "{285, 490}";
}
);
background = {
paths = (
{
closed = 1;
nodes = (
"413 -185 OFFCURVE",
"490 -119 OFFCURVE",
"490 28 CURVE SMOOTH",
"490 467 LINE SMOOTH",
"490 485 OFFCURVE",
"478 495 OFFCURVE",
"462 495 CURVE SMOOTH",
"446 495 OFFCURVE",
"434 485 OFFCURVE",
"434 467 CURVE SMOOTH",
"434 380 LINE",
"445 373 LINE",
"422 450 OFFCURVE",
"356 495 OFFCURVE",
"264 495 CURVE SMOOTH",
"139 495 OFFCURVE",
"46 404 OFFCURVE",
"46 255 CURVE SMOOTH",
"46 106 OFFCURVE",
"139 15 OFFCURVE",
"264 15 CURVE SMOOTH",
"356 15 OFFCURVE",
"422 60 OFFCURVE",
"445 137 CURVE",
"435 130 LINE",
"435 22 LINE SMOOTH",
"435 -82 OFFCURVE",
"383 -136 OFFCURVE",
"286 -136 CURVE SMOOTH",
"166 -136 OFFCURVE",
"118 -77 OFFCURVE",
"95 -77 CURVE SMOOTH",
"83 -77 OFFCURVE",
"74 -87 OFFCURVE",
"74 -100 CURVE SMOOTH",
"74 -114 OFFCURVE",
"85 -127 OFFCURVE",
"110 -142 CURVE SMOOTH",
"159 -171 OFFCURVE",
"212 -185 OFFCURVE",
"285 -185 CURVE SMOOTH"
);
},
{
closed = 1;
nodes = (
"162 64 OFFCURVE",
"103 146 OFFCURVE",
"103 255 CURVE SMOOTH",
"103 369 OFFCURVE",
"162 446 OFFCURVE",
"269 446 CURVE SMOOTH",
"381 446 OFFCURVE",
"434 365 OFFCURVE",
"434 255 CURVE SMOOTH",
"434 142 OFFCURVE",
"381 64 OFFCURVE",
"269 64 CURVE SMOOTH"
);
}
);
};
layerId = "9E718F8A-2CEA-4931-B05D-987794BD97DA";
paths = (
{
closed = 1;
nodes = (
"413 -185 OFFCURVE",
"488 -119 OFFCURVE",
"488 28 CURVE SMOOTH",
"488 467 LINE SMOOTH",
"488 485 OFFCURVE",
"476 495 OFFCURVE",
"461 495 CURVE SMOOTH",
"445 495 OFFCURVE",
"434 485 OFFCURVE",
"434 467 CURVE SMOOTH",
"434 380 LINE",
"445 373 LINE",
"422 450 OFFCURVE",
"356 495 OFFCURVE",
"264 495 CURVE SMOOTH",
"139 495 OFFCURVE",
"46 404 OFFCURVE",
"46 255 CURVE SMOOTH",
"46 106 OFFCURVE",
"139 15 OFFCURVE",
"264 15 CURVE SMOOTH",
"356 15 OFFCURVE",
"422 60 OFFCURVE",
"445 137 CURVE",
"435 130 LINE",
"435 22 LINE SMOOTH",
"435 -82 OFFCURVE",
"383 -136 OFFCURVE",
"286 -136 CURVE SMOOTH",
"166 -136 OFFCURVE",
"118 -77 OFFCURVE",
"95 -77 CURVE SMOOTH",
"83 -77 OFFCURVE",
"74 -87 OFFCURVE",
"74 -100 CURVE SMOOTH",
"74 -114 OFFCURVE",
"85 -127 OFFCURVE",
"110 -142 CURVE SMOOTH",
"159 -171 OFFCURVE",
"212 -185 OFFCURVE",
"285 -185 CURVE SMOOTH"
);
},
{
closed = 1;
nodes = (
"162 64 OFFCURVE",
"103 146 OFFCURVE",
"103 255 CURVE SMOOTH",
"103 369 OFFCURVE",
"162 446 OFFCURVE",
"269 446 CURVE SMOOTH",
"381 446 OFFCURVE",
"434 365 OFFCURVE",
"434 255 CURVE SMOOTH",
"434 142 OFFCURVE",
"381 64 OFFCURVE",
"269 64 CURVE SMOOTH"
);
}
);
width = 569;
},
{
anchors = (
{
name = bottom;
position = "{310, 0}";
},
{
name = top;
position = "{310, 495}";
}
);
background = {
paths = (
{
closed = 1;
nodes = (
"473 -186 OFFCURVE",
"562 -99 OFFCURVE",
"562 56 CURVE SMOOTH",
"562 423 LINE SMOOTH",
"562 474 OFFCURVE",
"525 496 OFFCURVE",
"485 496 CURVE SMOOTH",
"445 496 OFFCURVE",
"408 474 OFFCURVE",
"408 425 CURVE SMOOTH",
"408 387 LINE",
"419 399 LINE",
"395 466 OFFCURVE",
"325 501 OFFCURVE",
"252 501 CURVE SMOOTH",
"158 501 OFFCURVE",
"33 438 OFFCURVE",
"33 257 CURVE SMOOTH",
"33 77 OFFCURVE",
"158 14 OFFCURVE",
"252 14 CURVE SMOOTH",
"325 14 OFFCURVE",
"395 49 OFFCURVE",
"419 116 CURVE",
"408 125 LINE",
"408 45 LINE SMOOTH",
"408 -32 OFFCURVE",
"369 -70 OFFCURVE",
"284 -70 CURVE SMOOTH",
"207 -70 OFFCURVE",
"150 -30 OFFCURVE",
"111 -30 CURVE SMOOTH",
"80 -30 OFFCURVE",
"65 -58 OFFCURVE",
"65 -88 CURVE SMOOTH",
"65 -114 OFFCURVE",
"81 -134 OFFCURVE",
"103 -146 CURVE SMOOTH",
"143 -168 OFFCURVE",
"205 -186 OFFCURVE",
"288 -186 CURVE SMOOTH"
);
},
{
closed = 1;
nodes = (
"228 132 OFFCURVE",
"188 181 OFFCURVE",
"188 257 CURVE SMOOTH",
"188 334 OFFCURVE",
"228 383 OFFCURVE",
"298 383 CURVE SMOOTH",
"362 383 OFFCURVE",
"408 343 OFFCURVE",
"408 257 CURVE SMOOTH",
"408 172 OFFCURVE",
"362 132 OFFCURVE",
"298 132 CURVE SMOOTH"
);
}
);
};
layerId = "E1B555A7-F4E1-459C-9C1A-AE952106EEF9";
paths = (
{
closed = 1;
nodes = (
"473 -186 OFFCURVE",
"562 -99 OFFCURVE",
"562 56 CURVE SMOOTH",
"562 428 LINE SMOOTH",
"562 479 OFFCURVE",
"525 501 OFFCURVE",
"485 501 CURVE SMOOTH",
"445 501 OFFCURVE",
"408 479 OFFCURVE",
"408 430 CURVE SMOOTH",
"408 387 LINE",
"419 399 LINE",
"395 466 OFFCURVE",
"325 501 OFFCURVE",
"252 501 CURVE SMOOTH",
"158 501 OFFCURVE",
"33 438 OFFCURVE",
"33 257 CURVE SMOOTH",
"33 77 OFFCURVE",
"158 14 OFFCURVE",
"252 14 CURVE SMOOTH",
"325 14 OFFCURVE",
"395 49 OFFCURVE",
"419 116 CURVE",
"408 125 LINE",
"408 45 LINE SMOOTH",
"408 -32 OFFCURVE",
"369 -70 OFFCURVE",
"284 -70 CURVE SMOOTH",
"207 -70 OFFCURVE",
"150 -30 OFFCURVE",
"111 -30 CURVE SMOOTH",
"80 -30 OFFCURVE",
"65 -58 OFFCURVE",
"65 -88 CURVE SMOOTH",
"65 -114 OFFCURVE",
"81 -134 OFFCURVE",
"103 -146 CURVE SMOOTH",
"143 -168 OFFCURVE",
"205 -186 OFFCURVE",
"288 -186 CURVE SMOOTH"
);
},
{
closed = 1;
nodes = (
"228 132 OFFCURVE",
"188 181 OFFCURVE",
"188 257 CURVE SMOOTH",
"188 334 OFFCURVE",
"228 383 OFFCURVE",
"298 383 CURVE SMOOTH",
"362 383 OFFCURVE",
"408 343 OFFCURVE",
"408 257 CURVE SMOOTH",
"408 172 OFFCURVE",
"362 132 OFFCURVE",
"298 132 CURVE SMOOTH"
);
}
);
width = 619;
}
);
leftMetricsKey = o;
rightMetricsKey = "=|n";
unicode = 0067;
userData = {
anchors = (
);
b = {
};
com.typemytype.robofont.layerData = {
b = {
anchors = (
);
components = (
);
contours = (
);
lib = {
};
name = g;
unicodes = (
);
width = 1167;
};
};
components = (
);
contours = (
);
lib = {
};
name = g;
unicodes = (
);
width = 1207;
};
},
{
glyphname = h;
lastChange = "2016-08-19 20:17:39 +0000";
layers = (
{
anchors = (
{
name = bottom;
position = "{278, 0}";
},
{
name = center;
position = "{278, 245}";
},
{
name = top;
position = "{108, 705}";
}
);
background = {
paths = (
{
closed = 1;
nodes = (
"124 -5 OFFCURVE",
"135 5 OFFCURVE",
"135 23 CURVE SMOOTH",
"135 279 LINE SMOOTH",
"135 388 OFFCURVE",
"206 446 OFFCURVE",
"298 446 CURVE SMOOTH",
"377 446 OFFCURVE",
"423 411 OFFCURVE",
"423 304 CURVE SMOOTH",
"423 23 LINE SMOOTH",
"423 5 OFFCURVE",
"434 -5 OFFCURVE",
"450 -5 CURVE SMOOTH",
"466 -5 OFFCURVE",
"477 5 OFFCURVE",
"477 23 CURVE SMOOTH",
"477 308 LINE SMOOTH",
"477 443 OFFCURVE",
"407 495 OFFCURVE",
"301 495 CURVE SMOOTH",
"212 495 OFFCURVE",
"146 448 OFFCURVE",
"123 383 CURVE",
"134 382 LINE",
"134 467 LINE SMOOTH",
"134 485 OFFCURVE",
"123 495 OFFCURVE",
"108 495 CURVE SMOOTH",
"92 495 OFFCURVE",
"81 485 OFFCURVE",
"81 467 CURVE SMOOTH",
"81 23 LINE SMOOTH",
"81 5 OFFCURVE",
"92 -5 OFFCURVE",
"108 -5 CURVE SMOOTH"
);
}
);
};
layerId = "9E718F8A-2CEA-4931-B05D-987794BD97DA";
paths = (
{
closed = 1;
nodes = (
"124 -5 OFFCURVE",
"135 5 OFFCURVE",
"135 23 CURVE SMOOTH",
"135 279 LINE SMOOTH",
"135 388 OFFCURVE",
"206 446 OFFCURVE",
"298 446 CURVE SMOOTH",
"377 446 OFFCURVE",
"423 411 OFFCURVE",
"423 304 CURVE SMOOTH",
"423 23 LINE SMOOTH",
"423 5 OFFCURVE",
"434 -5 OFFCURVE",
"450 -5 CURVE SMOOTH",
"465 -5 OFFCURVE",
"477 5 OFFCURVE",
"477 23 CURVE SMOOTH",
"477 308 LINE SMOOTH",
"477 443 OFFCURVE",
"407 495 OFFCURVE",
"300 495 CURVE SMOOTH",
"212 495 OFFCURVE",
"146 448 OFFCURVE",
"123 383 CURVE",
"135 382 LINE",
"135 682 LINE SMOOTH",
"135 700 OFFCURVE",
"124 710 OFFCURVE",
"108 710 CURVE SMOOTH",
"93 710 OFFCURVE",
"81 700 OFFCURVE",
"81 682 CURVE SMOOTH",
"81 23 LINE SMOOTH",
"81 5 OFFCURVE",
"93 -5 OFFCURVE",
"108 -5 CURVE SMOOTH"
);
}
);
width = 556;
},
{
anchors = (
{
name = bottom;
position = "{300, 0}";
},
{
name = center;
position = "{300, 248}";
},
{
name = top;
position = "{137, 705}";
}
);
background = {
paths = (
{
closed = 1;
nodes = (
"176 -6 OFFCURVE",
"213 16 OFFCURVE",
"213 67 CURVE SMOOTH",
"213 273 LINE SMOOTH",
"213 338 OFFCURVE",
"253 380 OFFCURVE",
"314 380 CURVE SMOOTH",
"360 380 OFFCURVE",
"387 358 OFFCURVE",
"387 296 CURVE SMOOTH",
"387 67 LINE SMOOTH",
"387 16 OFFCURVE",
"424 -6 OFFCURVE",
"465 -6 CURVE SMOOTH",
"507 -6 OFFCURVE",
"543 16 OFFCURVE",
"543 67 CURVE SMOOTH",
"543 293 LINE SMOOTH",
"543 448 OFFCURVE",
"473 501 OFFCURVE",
"369 501 CURVE SMOOTH",
"288 501 OFFCURVE",
"228 461 OFFCURVE",
"196 397 CURVE",
"209 395 LINE",
"209 433 LINE SMOOTH",
"209 478 OFFCURVE",
"176 501 OFFCURVE",
"136 501 CURVE SMOOTH",
"96 501 OFFCURVE",
"57 478 OFFCURVE",
"57 430 CURVE SMOOTH",
"57 67 LINE SMOOTH",
"57 16 OFFCURVE",
"94 -6 OFFCURVE",
"135 -6 CURVE SMOOTH"
);
}
);
};
layerId = "E1B555A7-F4E1-459C-9C1A-AE952106EEF9";
paths = (
{
closed = 1;
nodes = (
"176 -6 OFFCURVE",
"213 16 OFFCURVE",
"213 67 CURVE SMOOTH",
"213 273 LINE SMOOTH",
"213 338 OFFCURVE",
"253 380 OFFCURVE",
"314 380 CURVE SMOOTH",
"360 380 OFFCURVE",
"387 358 OFFCURVE",
"387 296 CURVE SMOOTH",
"387 67 LINE SMOOTH",
"387 16 OFFCURVE",
"424 -6 OFFCURVE",
"465 -6 CURVE SMOOTH",
"507 -6 OFFCURVE",
"543 16 OFFCURVE",
"543 67 CURVE SMOOTH",
"543 293 LINE SMOOTH",
"543 448 OFFCURVE",
"473 501 OFFCURVE",
"369 501 CURVE SMOOTH",
"288 501 OFFCURVE",
"228 461 OFFCURVE",
"196 397 CURVE",
"213 395 LINE",
"213 642 LINE SMOOTH",
"213 687 OFFCURVE",
"178 710 OFFCURVE",
"137 710 CURVE SMOOTH",
"96 710 OFFCURVE",
"57 687 OFFCURVE",
"57 639 CURVE SMOOTH",
"57 67 LINE SMOOTH",
"57 16 OFFCURVE",
"94 -6 OFFCURVE",
"135 -6 CURVE SMOOTH"
);
}
);
width = 599;
}
);
leftMetricsKey = n;
rightMetricsKey = n;
unicode = 0068;
userData = {
anchors = (
);
b = {
};
com.typemytype.robofont.layerData = {
b = {
anchors = (
);
components = (
);
contours = (
);
lib = {
};
name = h;
unicodes = (
);
width = 1148;
};
};
components = (
);
contours = {
};
lib = {
};
name = h;
points = {
};
segmentType = curve;
unicodes = (
);
width = 1195;
x = 137;
y = 113;
};
},
{
color = 3;
glyphname = hbar;
lastChange = "2016-08-19 14:24:01 +0000";
layers = (
{
layerId = "9E718F8A-2CEA-4931-B05D-987794BD97DA";
paths = (
{
closed = 1;
nodes = (
"124 -5 OFFCURVE",
"135 5 OFFCURVE",
"135 23 CURVE SMOOTH",
"135 279 LINE SMOOTH",
"135 388 OFFCURVE",
"206 446 OFFCURVE",
"298 446 CURVE SMOOTH",
"377 446 OFFCURVE",
"423 411 OFFCURVE",
"423 304 CURVE SMOOTH",
"423 23 LINE SMOOTH",
"423 5 OFFCURVE",
"434 -5 OFFCURVE",
"450 -5 CURVE SMOOTH",
"465 -5 OFFCURVE",
"477 5 OFFCURVE",
"477 23 CURVE SMOOTH",
"477 308 LINE SMOOTH",
"477 443 OFFCURVE",
"407 495 OFFCURVE",
"300 495 CURVE SMOOTH",
"212 495 OFFCURVE",
"146 448 OFFCURVE",
"123 383 CURVE",
"135 382 LINE",
"135 682 LINE SMOOTH",
"135 700 OFFCURVE",
"124 710 OFFCURVE",
"108 710 CURVE SMOOTH",
"93 710 OFFCURVE",
"81 700 OFFCURVE",
"81 682 CURVE SMOOTH",
"81 23 LINE SMOOTH",
"81 5 OFFCURVE",
"93 -5 OFFCURVE",
"108 -5 CURVE SMOOTH"
);
},
{
closed = 1;
nodes = (
"312 563 LINE SMOOTH",
"326 563 OFFCURVE",
"335 572 OFFCURVE",
"335 585 CURVE SMOOTH",
"335 598 OFFCURVE",
"326 608 OFFCURVE",
"312 608 CURVE SMOOTH",
"4 608 LINE SMOOTH",
"-10 608 OFFCURVE",
"-19 598 OFFCURVE",
"-19 585 CURVE SMOOTH",
"-19 572 OFFCURVE",
"-10 563 OFFCURVE",
"4 563 CURVE SMOOTH"
);
}
);
width = 556;
},
{
layerId = "E1B555A7-F4E1-459C-9C1A-AE952106EEF9";
paths = (
{
closed = 1;
nodes = (
"176 -6 OFFCURVE",
"213 16 OFFCURVE",
"213 67 CURVE SMOOTH",
"213 273 LINE SMOOTH",
"213 338 OFFCURVE",
"253 380 OFFCURVE",
"314 380 CURVE SMOOTH",
"360 380 OFFCURVE",
"387 358 OFFCURVE",
"387 296 CURVE SMOOTH",
"387 67 LINE SMOOTH",
"387 16 OFFCURVE",
"424 -6 OFFCURVE",
"465 -6 CURVE SMOOTH",
"507 -6 OFFCURVE",
"543 16 OFFCURVE",
"543 67 CURVE SMOOTH",
"543 293 LINE SMOOTH",
"543 448 OFFCURVE",
"473 501 OFFCURVE",
"369 501 CURVE SMOOTH",
"288 501 OFFCURVE",
"228 461 OFFCURVE",
"196 397 CURVE",
"213 395 LINE",
"213 648 LINE SMOOTH",
"213 687 OFFCURVE",
"178 710 OFFCURVE",
"137 710 CURVE SMOOTH",
"96 710 OFFCURVE",
"57 687 OFFCURVE",
"57 648 CURVE SMOOTH",
"57 67 LINE SMOOTH",
"57 16 OFFCURVE",
"94 -6 OFFCURVE",
"135 -6 CURVE SMOOTH"
);
},
{
closed = 1;
nodes = (
"348 531 LINE SMOOTH",
"391 531 OFFCURVE",
"413 552 OFFCURVE",
"413 585 CURVE SMOOTH",
"413 618 OFFCURVE",
"391 639 OFFCURVE",
"348 639 CURVE SMOOTH",
"22 639 LINE SMOOTH",
"-21 639 OFFCURVE",
"-43 618 OFFCURVE",
"-43 585 CURVE SMOOTH",
"-43 552 OFFCURVE",
"-21 531 OFFCURVE",
"22 531 CURVE SMOOTH"
);
}
);
width = 599;
}
);
widthMetricsKey = n;
rightMetricsKey = n;
unicode = 0127;
},
{
glyphname = i;
lastChange = "2016-08-22 22:53:01 +0000";
layers = (
{
anchors = (
{
name = bottom;
position = "{108, 0}";
}
);
background = {
paths = (
{
closed = 1;
nodes = (
"124 -5 OFFCURVE",
"135 5 OFFCURVE",
"135 23 CURVE SMOOTH",
"135 467 LINE SMOOTH",
"135 485 OFFCURVE",
"124 495 OFFCURVE",
"108 495 CURVE SMOOTH",
"92 495 OFFCURVE",
"81 485 OFFCURVE",
"81 467 CURVE SMOOTH",
"81 23 LINE SMOOTH",
"81 5 OFFCURVE",
"92 -5 OFFCURVE",
"108 -5 CURVE SMOOTH"
);
},
{
closed = 1;
nodes = (
"132 626 OFFCURVE",
"150 642 OFFCURVE",
"150 667 CURVE SMOOTH",
"150 692 OFFCURVE",
"132 708 OFFCURVE",
"108 708 CURVE SMOOTH",
"84 708 OFFCURVE",
"66 692 OFFCURVE",
"66 667 CURVE SMOOTH",
"66 642 OFFCURVE",
"84 626 OFFCURVE",
"108 626 CURVE SMOOTH"
);
}
);
};
components = (
{
name = idotless;
},
{
name = dotaccentcomb;
transform = "{1, 0, 0, 1, -42, 0}";
}
);
layerId = "9E718F8A-2CEA-4931-B05D-987794BD97DA";
width = 216;
},
{
anchors = (
{
name = bottom;
position = "{135, 0}";
}
);
background = {
paths = (
{
closed = 1;
nodes = (
"176 -6 OFFCURVE",
"213 16 OFFCURVE",
"213 67 CURVE SMOOTH",
"213 428 LINE SMOOTH",
"213 479 OFFCURVE",
"176 501 OFFCURVE",
"135 501 CURVE SMOOTH",
"94 501 OFFCURVE",
"57 479 OFFCURVE",
"57 428 CURVE SMOOTH",
"57 67 LINE SMOOTH",
"57 16 OFFCURVE",
"94 -6 OFFCURVE",
"135 -6 CURVE SMOOTH"
);
},
{
closed = 1;
nodes = (
"189 565 OFFCURVE",
"223 596 OFFCURVE",
"223 643 CURVE SMOOTH",
"223 690 OFFCURVE",
"188 720 OFFCURVE",
"135 720 CURVE SMOOTH",
"81 720 OFFCURVE",
"47 690 OFFCURVE",
"47 643 CURVE SMOOTH",
"47 596 OFFCURVE",
"81 565 OFFCURVE",
"135 565 CURVE SMOOTH"
);
}
);
};
components = (
{
name = idotless;
},
{
name = dotaccentcomb;
transform = "{1, 0, 0, 1, -15, 0}";
}
);
layerId = "E1B555A7-F4E1-459C-9C1A-AE952106EEF9";
width = 270;
}
);
unicode = 0069;
},
{
glyphname = idotless;
lastChange = "2016-08-19 20:18:24 +0000";
layers = (
{
anchors = (
{
name = bottom;
position = "{108, 0}";
},
{
name = ogonek;
position = "{132, 10}";
},
{
name = top;
position = "{108, 490}";
}
);
background = {
paths = (
{
closed = 1;
nodes = (
"124 -5 OFFCURVE",
"136 5 OFFCURVE",
"136 23 CURVE SMOOTH",
"136 467 LINE SMOOTH",
"136 485 OFFCURVE",
"124 495 OFFCURVE",
"108 495 CURVE SMOOTH",
"92 495 OFFCURVE",
"80 485 OFFCURVE",
"80 467 CURVE SMOOTH",
"80 23 LINE SMOOTH",
"80 5 OFFCURVE",
"92 -5 OFFCURVE",
"108 -5 CURVE SMOOTH"
);
}
);
};
layerId = "9E718F8A-2CEA-4931-B05D-987794BD97DA";
paths = (
{
closed = 1;
nodes = (
"124 -5 OFFCURVE",
"135 5 OFFCURVE",
"135 23 CURVE SMOOTH",
"135 467 LINE SMOOTH",
"135 485 OFFCURVE",
"124 495 OFFCURVE",
"108 495 CURVE SMOOTH",
"92 495 OFFCURVE",
"81 485 OFFCURVE",
"81 467 CURVE SMOOTH",
"81 23 LINE SMOOTH",
"81 5 OFFCURVE",
"92 -5 OFFCURVE",
"108 -5 CURVE SMOOTH"
);
}
);
width = 216;
},
{
anchors = (
{
name = bottom;
position = "{135, 0}";
},
{
name = ogonek;
position = "{187, 10}";
},
{
name = top;
position = "{135, 495}";
}
);
background = {
paths = (
{
closed = 1;
nodes = (
"57 114 LINE SMOOTH",
"57 38 OFFCURVE",
"83 0 OFFCURVE",
"135 0 CURVE SMOOTH",
"191 0 OFFCURVE",
"213 51 OFFCURVE",
"213 114 CURVE SMOOTH",
"213 381 LINE SMOOTH",
"213 458 OFFCURVE",
"187 496 OFFCURVE",
"136 496 CURVE SMOOTH",
"93 496 OFFCURVE",
"57 466 OFFCURVE",
"57 415 CURVE SMOOTH"
);
}
);
};
layerId = "E1B555A7-F4E1-459C-9C1A-AE952106EEF9";
paths = (
{
closed = 1;
nodes = (
"176 -6 OFFCURVE",
"213 16 OFFCURVE",
"213 67 CURVE SMOOTH",
"213 428 LINE SMOOTH",
"213 479 OFFCURVE",
"176 501 OFFCURVE",
"135 501 CURVE SMOOTH",
"94 501 OFFCURVE",
"57 479 OFFCURVE",
"57 428 CURVE SMOOTH",
"57 67 LINE SMOOTH",
"57 16 OFFCURVE",
"94 -6 OFFCURVE",
"135 -6 CURVE SMOOTH"
);
}
);
width = 270;
}
);
leftMetricsKey = n;
rightMetricsKey = "=|n";
unicode = 0131;
},
{
glyphname = j;
lastChange = "2016-08-18 08:57:36 +0000";
layers = (
{
background = {
paths = (
{
closed = 1;
nodes = (
"-12 -180 LINE SMOOTH",
"88 -173 OFFCURVE",
"136 -122 OFFCURVE",
"136 -8 CURVE SMOOTH",
"136 467 LINE SMOOTH",
"136 485 OFFCURVE",
"124 495 OFFCURVE",
"108 495 CURVE SMOOTH",
"92 495 OFFCURVE",
"80 485 OFFCURVE",
"80 467 CURVE SMOOTH",
"80 -10 LINE SMOOTH",
"80 -99 OFFCURVE",
"46 -128 OFFCURVE",
"-21 -133 CURVE SMOOTH",
"-48 -135 LINE SMOOTH",
"-69 -137 OFFCURVE",
"-74 -147 OFFCURVE",
"-74 -159 CURVE SMOOTH",
"-74 -173 OFFCURVE",
"-65 -184 OFFCURVE",
"-39 -182 CURVE SMOOTH"
);
},
{
closed = 1;
nodes = (
"133 626 OFFCURVE",
"151 642 OFFCURVE",
"151 667 CURVE SMOOTH",
"151 692 OFFCURVE",
"133 708 OFFCURVE",
"108 708 CURVE SMOOTH",
"83 708 OFFCURVE",
"65 692 OFFCURVE",
"65 667 CURVE SMOOTH",
"65 642 OFFCURVE",
"83 626 OFFCURVE",
"108 626 CURVE SMOOTH"
);
}
);
};
layerId = "9E718F8A-2CEA-4931-B05D-987794BD97DA";
paths = (
{
closed = 1;
nodes = (
"-12 -180 LINE SMOOTH",
"88 -173 OFFCURVE",
"135 -122 OFFCURVE",
"135 -8 CURVE SMOOTH",
"135 467 LINE SMOOTH",
"135 485 OFFCURVE",
"124 495 OFFCURVE",
"108 495 CURVE SMOOTH",
"92 495 OFFCURVE",
"81 485 OFFCURVE",
"81 467 CURVE SMOOTH",
"81 -10 LINE SMOOTH",
"81 -99 OFFCURVE",
"46 -128 OFFCURVE",
"-21 -133 CURVE SMOOTH",
"-48 -135 LINE SMOOTH",
"-69 -137 OFFCURVE",
"-74 -147 OFFCURVE",
"-74 -159 CURVE SMOOTH",
"-74 -173 OFFCURVE",
"-65 -184 OFFCURVE",
"-39 -182 CURVE SMOOTH"
);
},
{
closed = 1;
nodes = (
"132 626 OFFCURVE",
"150 642 OFFCURVE",
"150 667 CURVE SMOOTH",
"150 692 OFFCURVE",
"132 708 OFFCURVE",
"108 708 CURVE SMOOTH",
"84 708 OFFCURVE",
"66 692 OFFCURVE",
"66 667 CURVE SMOOTH",
"66 642 OFFCURVE",
"84 626 OFFCURVE",
"108 626 CURVE SMOOTH"
);
}
);
width = 216;
},
{
background = {
paths = (
{
closed = 1;
nodes = (
"94 496 OFFCURVE",
"57 474 OFFCURVE",
"57 423 CURVE SMOOTH",
"57 -3 LINE SMOOTH",
"57 -44 OFFCURVE",
"36 -63 OFFCURVE",
"-7 -63 CURVE SMOOTH",
"-13 -63 LINE SMOOTH",
"-61 -63 OFFCURVE",
"-83 -85 OFFCURVE",
"-83 -122 CURVE SMOOTH",
"-83 -159 OFFCURVE",
"-61 -180 OFFCURVE",
"-13 -180 CURVE SMOOTH",
"22 -180 LINE SMOOTH",
"145 -180 OFFCURVE",
"213 -112 OFFCURVE",
"213 -11 CURVE SMOOTH",
"213 423 LINE SMOOTH",
"213 474 OFFCURVE",
"176 496 OFFCURVE",
"135 496 CURVE SMOOTH"
);
},
{
closed = 1;
nodes = (
"189 565 OFFCURVE",
"223 596 OFFCURVE",
"223 643 CURVE SMOOTH",
"223 690 OFFCURVE",
"188 720 OFFCURVE",
"135 720 CURVE SMOOTH",
"81 720 OFFCURVE",
"47 690 OFFCURVE",
"47 643 CURVE SMOOTH",
"47 596 OFFCURVE",
"81 565 OFFCURVE",
"135 565 CURVE SMOOTH"
);
}
);
};
layerId = "E1B555A7-F4E1-459C-9C1A-AE952106EEF9";
paths = (
{
closed = 1;
nodes = (
"37 -180 LINE SMOOTH",
"157 -171 OFFCURVE",
"213 -106 OFFCURVE",
"213 4 CURVE SMOOTH",
"213 428 LINE SMOOTH",
"213 479 OFFCURVE",
"176 501 OFFCURVE",
"135 501 CURVE SMOOTH",
"94 501 OFFCURVE",
"57 479 OFFCURVE",
"57 428 CURVE SMOOTH",
"57 -8 LINE SMOOTH",
"57 -45 OFFCURVE",
"38 -66 OFFCURVE",
"5 -68 CURVE SMOOTH",
"-23 -70 LINE SMOOTH",
"-65 -73 OFFCURVE",
"-83 -91 OFFCURVE",
"-83 -124 CURVE SMOOTH",
"-83 -167 OFFCURVE",
"-47 -186 OFFCURVE",
"9 -182 CURVE SMOOTH"
);
},
{
closed = 1;
nodes = (
"189 565 OFFCURVE",
"223 596 OFFCURVE",
"223 643 CURVE SMOOTH",
"223 690 OFFCURVE",
"188 720 OFFCURVE",
"135 720 CURVE SMOOTH",
"81 720 OFFCURVE",
"47 690 OFFCURVE",
"47 643 CURVE SMOOTH",
"47 596 OFFCURVE",
"81 565 OFFCURVE",
"135 565 CURVE SMOOTH"
);
}
);
width = 270;
}
);
unicode = 006A;
},
{
glyphname = jdotless;
lastChange = "2016-08-19 20:18:39 +0000";
layers = (
{
anchors = (
{
name = bottom;
position = "{108, 0}";
},
{
name = top;
position = "{108, 490}";
}
);
background = {
paths = (
{
closed = 1;
nodes = (
"93 485 OFFCURVE",
"81 475 OFFCURVE",
"81 457 CURVE SMOOTH",
"81 -53 LINE SMOOTH",
"81 -108 OFFCURVE",
"57 -133 OFFCURVE",
"3 -133 CURVE SMOOTH",
"-60 -133 LINE SMOOTH",
"-81 -133 OFFCURVE",
"-88 -144 OFFCURVE",
"-88 -157 CURVE SMOOTH",
"-88 -170 OFFCURVE",
"-79 -180 OFFCURVE",
"-56 -180 CURVE SMOOTH",
"8 -180 LINE SMOOTH",
"90 -180 OFFCURVE",
"137 -136 OFFCURVE",
"137 -55 CURVE SMOOTH",
"137 457 LINE SMOOTH",
"137 475 OFFCURVE",
"125 485 OFFCURVE",
"109 485 CURVE SMOOTH"
);
},
{
closed = 1;
nodes = (
"134 626 OFFCURVE",
"152 642 OFFCURVE",
"152 667 CURVE SMOOTH",
"152 692 OFFCURVE",
"134 708 OFFCURVE",
"109 708 CURVE SMOOTH",
"84 708 OFFCURVE",
"66 692 OFFCURVE",
"66 667 CURVE SMOOTH",
"66 642 OFFCURVE",
"84 626 OFFCURVE",
"109 626 CURVE SMOOTH"
);
}
);
};
layerId = "9E718F8A-2CEA-4931-B05D-987794BD97DA";
paths = (
{
closed = 1;
nodes = (
"-12 -180 LINE SMOOTH",
"88 -173 OFFCURVE",
"135 -122 OFFCURVE",
"135 -8 CURVE SMOOTH",
"135 467 LINE SMOOTH",
"135 485 OFFCURVE",
"124 495 OFFCURVE",
"108 495 CURVE SMOOTH",
"92 495 OFFCURVE",
"81 485 OFFCURVE",
"81 467 CURVE SMOOTH",
"81 -10 LINE SMOOTH",
"81 -99 OFFCURVE",
"46 -128 OFFCURVE",
"-21 -133 CURVE SMOOTH",
"-48 -135 LINE SMOOTH",
"-69 -137 OFFCURVE",
"-74 -147 OFFCURVE",
"-74 -159 CURVE SMOOTH",
"-74 -173 OFFCURVE",
"-65 -184 OFFCURVE",
"-39 -182 CURVE SMOOTH"
);
}
);
width = 216;
},
{
anchors = (
{
name = bottom;
position = "{136, 0}";
},
{
name = top;
position = "{136, 495}";
}
);
background = {
paths = (
{
closed = 1;
nodes = (
"96 496 OFFCURVE",
"59 474 OFFCURVE",
"59 423 CURVE SMOOTH",
"59 -3 LINE SMOOTH",
"59 -44 OFFCURVE",
"38 -63 OFFCURVE",
"-5 -63 CURVE SMOOTH",
"-31 -63 LINE SMOOTH",
"-79 -63 OFFCURVE",
"-101 -85 OFFCURVE",
"-101 -122 CURVE SMOOTH",
"-101 -159 OFFCURVE",
"-79 -180 OFFCURVE",
"-31 -180 CURVE SMOOTH",
"24 -180 LINE SMOOTH",
"147 -180 OFFCURVE",
"215 -112 OFFCURVE",
"215 -11 CURVE SMOOTH",
"215 423 LINE SMOOTH",
"215 474 OFFCURVE",
"178 496 OFFCURVE",
"137 496 CURVE SMOOTH"
);
},
{
closed = 1;
nodes = (
"191 575 OFFCURVE",
"225 606 OFFCURVE",
"225 653 CURVE SMOOTH",
"225 700 OFFCURVE",
"190 730 OFFCURVE",
"137 730 CURVE SMOOTH",
"83 730 OFFCURVE",
"49 700 OFFCURVE",
"49 653 CURVE SMOOTH",
"49 606 OFFCURVE",
"83 575 OFFCURVE",
"137 575 CURVE SMOOTH"
);
}
);
};
layerId = "E1B555A7-F4E1-459C-9C1A-AE952106EEF9";
paths = (
{
closed = 1;
nodes = (
"39 -180 LINE SMOOTH",
"159 -171 OFFCURVE",
"215 -106 OFFCURVE",
"215 4 CURVE SMOOTH",
"215 428 LINE SMOOTH",
"215 479 OFFCURVE",
"178 501 OFFCURVE",
"137 501 CURVE SMOOTH",
"96 501 OFFCURVE",
"59 479 OFFCURVE",
"59 428 CURVE SMOOTH",
"59 -8 LINE SMOOTH",
"59 -45 OFFCURVE",
"40 -66 OFFCURVE",
"7 -68 CURVE SMOOTH",
"-21 -70 LINE SMOOTH",
"-63 -73 OFFCURVE",
"-81 -91 OFFCURVE",
"-81 -124 CURVE SMOOTH",
"-81 -167 OFFCURVE",
"-45 -186 OFFCURVE",
"11 -182 CURVE SMOOTH"
);
}
);
width = 272;
}
);
unicode = 0237;
},
{
glyphname = k;
lastChange = "2016-08-19 20:19:06 +0000";
layers = (
{
anchors = (
{
name = bottom;
position = "{238, 0}";
},
{
name = top;
position = "{238, 490}";
}
);
background = {
paths = (
{
closed = 1;
nodes = (
"440 -22 OFFCURVE",
"476 17 OFFCURVE",
"445 43 CURVE SMOOTH",
"178 271 LINE",
"179 229 LINE",
"425 446 LINE SMOOTH",
"454 471 OFFCURVE",
"416 510 OFFCURVE",
"388 485 CURVE SMOOTH",
"122 248 LINE",
"411 3 LINE SMOOTH"
);
},
{
closed = 1;
nodes = (
"125 -5 OFFCURVE",
"137 5 OFFCURVE",
"137 23 CURVE SMOOTH",
"137 682 LINE SMOOTH",
"137 700 OFFCURVE",
"125 710 OFFCURVE",
"109 710 CURVE SMOOTH",
"93 710 OFFCURVE",
"81 700 OFFCURVE",
"81 682 CURVE SMOOTH",
"81 23 LINE SMOOTH",
"81 5 OFFCURVE",
"93 -5 OFFCURVE",
"109 -5 CURVE SMOOTH"
);
}
);
};
guideLines = (
{
position = "{169, 240}";
}
);
layerId = "9E718F8A-2CEA-4931-B05D-987794BD97DA";
paths = (
{
closed = 1;
nodes = (
"440 -22 OFFCURVE",
"474 17 OFFCURVE",
"443 43 CURVE SMOOTH",
"176 271 LINE",
"177 229 LINE",
"423 446 LINE SMOOTH",
"452 471 OFFCURVE",
"416 510 OFFCURVE",
"388 485 CURVE SMOOTH",
"122 248 LINE",
"411 3 LINE SMOOTH"
);
},
{
closed = 1;
nodes = (
"123 -5 OFFCURVE",
"135 5 OFFCURVE",
"135 23 CURVE SMOOTH",
"135 682 LINE SMOOTH",
"135 700 OFFCURVE",
"123 710 OFFCURVE",
"108 710 CURVE SMOOTH",
"92 710 OFFCURVE",
"81 700 OFFCURVE",
"81 682 CURVE SMOOTH",
"81 23 LINE SMOOTH",
"81 5 OFFCURVE",
"92 -5 OFFCURVE",
"108 -5 CURVE SMOOTH"
);
}
);
width = 476;
},
{
anchors = (
{
name = bottom;
position = "{281, 0}";
},
{
name = top;
position = "{281, 495}";
}
);
background = {
paths = (
{
closed = 1;
nodes = (
"503 -52 OFFCURVE",
"596 59 OFFCURVE",
"526 124 CURVE SMOOTH",
"352 286 LINE",
"344 216 LINE",
"513 379 LINE SMOOTH",
"582 446 OFFCURVE",
"478 546 OFFCURVE",
"410 478 CURVE SMOOTH",
"180 249 LINE",
"429 17 LINE SMOOTH"
);
},
{
closed = 1;
nodes = (
"176 -5 OFFCURVE",
"213 17 OFFCURVE",
"213 68 CURVE SMOOTH",
"213 637 LINE SMOOTH",
"213 688 OFFCURVE",
"176 710 OFFCURVE",
"135 710 CURVE SMOOTH",
"94 710 OFFCURVE",
"57 688 OFFCURVE",
"57 637 CURVE SMOOTH",
"57 68 LINE SMOOTH",
"57 17 OFFCURVE",
"94 -5 OFFCURVE",
"135 -5 CURVE SMOOTH"
);
}
);
};
layerId = "E1B555A7-F4E1-459C-9C1A-AE952106EEF9";
paths = (
{
closed = 1;
nodes = (
"503 -52 OFFCURVE",
"592 59 OFFCURVE",
"525 121 CURVE SMOOTH",
"348 286 LINE",
"340 216 LINE",
"509 379 LINE SMOOTH",
"578 446 OFFCURVE",
"478 546 OFFCURVE",
"410 478 CURVE SMOOTH",
"180 249 LINE",
"429 17 LINE SMOOTH"
);
},
{
closed = 1;
nodes = (
"176 -5 OFFCURVE",
"213 17 OFFCURVE",
"213 68 CURVE SMOOTH",
"213 637 LINE SMOOTH",
"213 688 OFFCURVE",
"176 710 OFFCURVE",
"135 710 CURVE SMOOTH",
"94 710 OFFCURVE",
"57 688 OFFCURVE",
"57 637 CURVE SMOOTH",
"57 68 LINE SMOOTH",
"57 17 OFFCURVE",
"94 -5 OFFCURVE",
"135 -5 CURVE SMOOTH"
);
}
);
width = 562;
}
);
leftMetricsKey = l;
unicode = 006B;
userData = {
com.typemytype.robofont.layerData = {
b = {
anchors = (
);
components = (
);
contours = (
{
points = (
{
segmentType = line;
smooth = 0;
x = 318;
y = 536;
},
{
segmentType = line;
smooth = 1;
x = 793;
y = 27;
},
{
smooth = 0;
x = 809;
y = 9;
},
{
smooth = 0;
x = 828;
y = 1;
},
{
segmentType = curve;
smooth = 1;
x = 845;
y = 1;
},
{
smooth = 0;
x = 883;
y = 1;
},
{
smooth = 0;
x = 922;
y = 33;
},
{
segmentType = curve;
smooth = 1;
x = 922;
y = 71;
},
{
smooth = 0;
x = 922;
y = 84;
},
{
smooth = 0;
x = 918;
y = 99;
},
{
segmentType = curve;
smooth = 1;
x = 906;
y = 112;
},
{
segmentType = line;
smooth = 0;
x = 492;
y = 554;
},
{
segmentType = line;
smooth = 1;
x = 873;
y = 889;
},
{
smooth = 0;
x = 888;
y = 902;
},
{
smooth = 0;
x = 894;
y = 918;
},
{
segmentType = curve;
smooth = 1;
x = 894;
y = 933;
},
{
smooth = 0;
x = 894;
y = 968;
},
{
smooth = 0;
x = 858;
y = 1002;
},
{
segmentType = curve;
smooth = 1;
x = 821;
y = 1002;
},
{
smooth = 0;
x = 802;
y = 1002;
},
{
smooth = 0;
x = 785;
y = 994;
},
{
segmentType = curve;
smooth = 0;
x = 770;
y = 979;
},
{
segmentType = line;
smooth = 0;
x = 318;
y = 574;
}
);
}
);
lib = {
};
name = k;
unicodes = (
);
width = 984;
};
};
};
},
{
glyphname = kgreenlandic;
lastChange = "2016-08-19 20:19:09 +0000";
layers = (
{
anchors = (
{
name = bottom;
position = "{238, 0}";
},
{
name = top;
position = "{238, 490}";
}
);
background = {
paths = (
{
closed = 1;
nodes = (
"440 -22 OFFCURVE",
"476 17 OFFCURVE",
"445 43 CURVE SMOOTH",
"178 271 LINE",
"179 229 LINE",
"425 446 LINE SMOOTH",
"454 471 OFFCURVE",
"416 510 OFFCURVE",
"388 485 CURVE SMOOTH",
"122 248 LINE",
"411 3 LINE SMOOTH"
);
},
{
closed = 1;
nodes = (
"125 -5 OFFCURVE",
"137 5 OFFCURVE",
"137 23 CURVE SMOOTH",
"137 467 LINE SMOOTH",
"137 485 OFFCURVE",
"125 495 OFFCURVE",
"109 495 CURVE SMOOTH",
"93 495 OFFCURVE",
"81 485 OFFCURVE",
"81 467 CURVE SMOOTH",
"81 23 LINE SMOOTH",
"81 5 OFFCURVE",
"93 -5 OFFCURVE",
"109 -5 CURVE SMOOTH"
);
}
);
};
layerId = "9E718F8A-2CEA-4931-B05D-987794BD97DA";
paths = (
{
closed = 1;
nodes = (
"440 -22 OFFCURVE",
"474 17 OFFCURVE",
"443 43 CURVE SMOOTH",
"176 271 LINE",
"177 229 LINE",
"423 446 LINE SMOOTH",
"452 471 OFFCURVE",
"416 510 OFFCURVE",
"388 485 CURVE SMOOTH",
"122 248 LINE",
"411 3 LINE SMOOTH"
);
},
{
closed = 1;
nodes = (
"123 -5 OFFCURVE",
"135 5 OFFCURVE",
"135 23 CURVE SMOOTH",
"135 467 LINE SMOOTH",
"135 485 OFFCURVE",
"123 495 OFFCURVE",
"108 495 CURVE SMOOTH",
"92 495 OFFCURVE",
"81 485 OFFCURVE",
"81 467 CURVE SMOOTH",
"81 23 LINE SMOOTH",
"81 5 OFFCURVE",
"92 -5 OFFCURVE",
"108 -5 CURVE SMOOTH"
);
}
);
width = 476;
},
{
anchors = (
{
name = bottom;
position = "{281, 0}";
},
{
name = top;
position = "{281, 495}";
}
);
background = {
paths = (
{
closed = 1;
nodes = (
"503 -52 OFFCURVE",
"600 59 OFFCURVE",
"530 124 CURVE SMOOTH",
"356 286 LINE",
"348 216 LINE",
"517 379 LINE SMOOTH",
"586 446 OFFCURVE",
"478 546 OFFCURVE",
"410 478 CURVE SMOOTH",
"180 249 LINE",
"429 17 LINE SMOOTH"
);
},
{
closed = 1;
nodes = (
"176 -5 OFFCURVE",
"213 17 OFFCURVE",
"213 68 CURVE SMOOTH",
"213 428 LINE SMOOTH",
"213 479 OFFCURVE",
"176 501 OFFCURVE",
"135 501 CURVE SMOOTH",
"94 501 OFFCURVE",
"57 479 OFFCURVE",
"57 428 CURVE SMOOTH",
"57 68 LINE SMOOTH",
"57 17 OFFCURVE",
"94 -5 OFFCURVE",
"135 -5 CURVE SMOOTH"
);
}
);
};
layerId = "E1B555A7-F4E1-459C-9C1A-AE952106EEF9";
paths = (
{
closed = 1;
nodes = (
"503 -52 OFFCURVE",
"592 59 OFFCURVE",
"525 121 CURVE SMOOTH",
"348 286 LINE",
"340 216 LINE",
"509 379 LINE SMOOTH",
"578 446 OFFCURVE",
"478 546 OFFCURVE",
"410 478 CURVE SMOOTH",
"180 249 LINE",
"429 17 LINE SMOOTH"
);
},
{
closed = 1;
nodes = (
"176 -5 OFFCURVE",
"213 17 OFFCURVE",
"213 68 CURVE SMOOTH",
"213 428 LINE SMOOTH",
"213 479 OFFCURVE",
"176 501 OFFCURVE",
"135 501 CURVE SMOOTH",
"94 501 OFFCURVE",
"57 479 OFFCURVE",
"57 428 CURVE SMOOTH",
"57 68 LINE SMOOTH",
"57 17 OFFCURVE",
"94 -5 OFFCURVE",
"135 -5 CURVE SMOOTH"
);
}
);
width = 562;
}
);
leftMetricsKey = n;
rightMetricsKey = k;
unicode = 0138;
userData = {
com.typemytype.robofont.layerData = {
b = {
anchors = (
);
components = (
);
contours = (
);
lib = {
};
name = kgreenlandic;
unicodes = (
);
width = 1047;
};
};
};
},
{
glyphname = l;
lastChange = "2016-08-22 21:36:53 +0000";
layers = (
{
anchors = (
{
name = bottom;
position = "{108, 0}";
},
{
name = center;
position = "{108, 245}";
},
{
name = top;
position = "{108, 705}";
},
{
name = topright;
position = "{165, 705}";
}
);
background = {
paths = (
{
closed = 1;
nodes = (
"81 -15 OFFCURVE",
"137 -14 OFFCURVE",
"137 23 CURVE SMOOTH",
"137 682 LINE SMOOTH",
"137 720 OFFCURVE",
"81 719 OFFCURVE",
"81 682 CURVE SMOOTH",
"81 23 LINE SMOOTH"
);
}
);
};
layerId = "9E718F8A-2CEA-4931-B05D-987794BD97DA";
paths = (
{
closed = 1;
nodes = (
"123 -5 OFFCURVE",
"135 5 OFFCURVE",
"135 23 CURVE SMOOTH",
"135 682 LINE SMOOTH",
"135 700 OFFCURVE",
"123 710 OFFCURVE",
"108 710 CURVE SMOOTH",
"92 710 OFFCURVE",
"81 700 OFFCURVE",
"81 682 CURVE SMOOTH",
"81 23 LINE SMOOTH",
"81 5 OFFCURVE",
"92 -5 OFFCURVE",
"108 -5 CURVE SMOOTH"
);
}
);
width = 216;
},
{
anchors = (
{
name = bottom;
position = "{135, 0}";
},
{
name = center;
position = "{135, 248}";
},
{
name = top;
position = "{135, 705}";
},
{
name = topright;
position = "{233, 705}";
}
);
background = {
paths = (
{
closed = 1;
nodes = (
"176 -5 OFFCURVE",
"213 17 OFFCURVE",
"213 68 CURVE SMOOTH",
"213 637 LINE SMOOTH",
"213 688 OFFCURVE",
"176 710 OFFCURVE",
"135 710 CURVE SMOOTH",
"94 710 OFFCURVE",
"57 688 OFFCURVE",
"57 637 CURVE SMOOTH",
"57 68 LINE SMOOTH",
"57 17 OFFCURVE",
"94 -5 OFFCURVE",
"135 -5 CURVE SMOOTH"
);
}
);
};
layerId = "E1B555A7-F4E1-459C-9C1A-AE952106EEF9";
paths = (
{
closed = 1;
nodes = (
"176 -6 OFFCURVE",
"213 16 OFFCURVE",
"213 67 CURVE SMOOTH",
"213 637 LINE SMOOTH",
"213 688 OFFCURVE",
"176 710 OFFCURVE",
"135 710 CURVE SMOOTH",
"94 710 OFFCURVE",
"57 688 OFFCURVE",
"57 637 CURVE SMOOTH",
"57 67 LINE SMOOTH",
"57 16 OFFCURVE",
"94 -6 OFFCURVE",
"135 -6 CURVE SMOOTH"
);
}
);
width = 270;
}
);
leftMetricsKey = n;
rightMetricsKey = "=|n";
unicode = 006C;
userData = {
com.typemytype.robofont.layerData = {
b = {
anchors = (
);
components = (
);
contours = (
);
lib = {
};
name = l;
unicodes = (
);
width = 511;
};
};
};
},
{
color = 3;
glyphname = lslash;
lastChange = "2016-08-22 23:04:34 +0000";
layers = (
{
background = {
paths = (
{
closed = 1;
nodes = (
"142 -5 OFFCURVE",
"154 5 OFFCURVE",
"154 23 CURVE SMOOTH",
"154 682 LINE SMOOTH",
"154 700 OFFCURVE",
"142 710 OFFCURVE",
"127 710 CURVE SMOOTH",
"111 710 OFFCURVE",
"100 700 OFFCURVE",
"100 682 CURVE SMOOTH",
"100 23 LINE SMOOTH",
"100 5 OFFCURVE",
"111 -5 OFFCURVE",
"127 -5 CURVE SMOOTH"
);
},
{
closed = 1;
nodes = (
"-249 715 LINE SMOOTH",
"-263 715 OFFCURVE",
"-273 705 OFFCURVE",
"-273 690 CURVE SMOOTH",
"-273 675 OFFCURVE",
"-263 665 OFFCURVE",
"-249 665 CURVE SMOOTH",
"100 665 LINE",
"100 34 LINE SMOOTH",
"100 17 OFFCURVE",
"109 5 OFFCURVE",
"127 5 CURVE SMOOTH",
"144 5 OFFCURVE",
"154 17 OFFCURVE",
"154 34 CURVE SMOOTH",
"154 690 LINE SMOOTH",
"154 704 OFFCURVE",
"140 715 OFFCURVE",
"126 715 CURVE SMOOTH"
);
},
{
closed = 1;
nodes = (
"-84 263 LINE SMOOTH",
"-111 247 OFFCURVE",
"-87 208 OFFCURVE",
"-60 223 CURVE SMOOTH",
"241 396 LINE SMOOTH",
"270 413 OFFCURVE",
"247 454 OFFCURVE",
"217 437 CURVE SMOOTH"
);
}
);
};
layerId = "9E718F8A-2CEA-4931-B05D-987794BD97DA";
paths = (
{
closed = 1;
nodes = (
"241 396 LINE SMOOTH",
"270 413 OFFCURVE",
"247 454 OFFCURVE",
"217 437 CURVE SMOOTH",
"13 319 LINE SMOOTH",
"-15 303 OFFCURVE",
"7 260 OFFCURVE",
"37 278 CURVE SMOOTH"
);
},
{
closed = 1;
nodes = (
"142 -5 OFFCURVE",
"154 5 OFFCURVE",
"154 23 CURVE SMOOTH",
"154 682 LINE SMOOTH",
"154 700 OFFCURVE",
"142 710 OFFCURVE",
"127 710 CURVE SMOOTH",
"111 710 OFFCURVE",
"100 700 OFFCURVE",
"100 682 CURVE SMOOTH",
"100 23 LINE SMOOTH",
"100 5 OFFCURVE",
"111 -5 OFFCURVE",
"127 -5 CURVE SMOOTH"
);
}
);
width = 254;
},
{
background = {
paths = (
{
closed = 1;
nodes = (
"-156 709 LINE SMOOTH",
"-209 709 OFFCURVE",
"-232 685 OFFCURVE",
"-232 643 CURVE SMOOTH",
"-232 600 OFFCURVE",
"-209 576 OFFCURVE",
"-156 576 CURVE SMOOTH",
"95 576 LINE",
"95 78 LINE SMOOTH",
"95 25 OFFCURVE",
"131 -1 OFFCURVE",
"176 -1 CURVE SMOOTH",
"220 -1 OFFCURVE",
"256 25 OFFCURVE",
"256 78 CURVE SMOOTH",
"256 634 LINE SMOOTH",
"256 682 OFFCURVE",
"229 709 OFFCURVE",
"181 709 CURVE SMOOTH"
);
},
{
closed = 1;
nodes = (
"-62 284 LINE SMOOTH",
"-139 239 OFFCURVE",
"-78 139 OFFCURVE",
"-3 182 CURVE SMOOTH",
"320 368 LINE SMOOTH",
"396 412 OFFCURVE",
"338 516 OFFCURVE",
"261 471 CURVE SMOOTH"
);
}
);
};
layerId = "E1B555A7-F4E1-459C-9C1A-AE952106EEF9";
paths = (
{
closed = 1;
nodes = (
"320 368 LINE SMOOTH",
"396 412 OFFCURVE",
"338 516 OFFCURVE",
"261 471 CURVE SMOOTH",
"36 341 LINE SMOOTH",
"-40 297 OFFCURVE",
"17 193 OFFCURVE",
"95 238 CURVE SMOOTH"
);
},
{
closed = 1;
nodes = (
"219 -6 OFFCURVE",
"256 16 OFFCURVE",
"256 67 CURVE SMOOTH",
"256 637 LINE SMOOTH",
"256 688 OFFCURVE",
"219 710 OFFCURVE",
"178 710 CURVE SMOOTH",
"137 710 OFFCURVE",
"100 688 OFFCURVE",
"100 637 CURVE SMOOTH",
"100 67 LINE SMOOTH",
"100 16 OFFCURVE",
"137 -6 OFFCURVE",
"178 -6 CURVE SMOOTH"
);
}
);
width = 356;
}
);
unicode = 0142;
},
